G04 #@! TF.GenerationSoftware,KiCad,Pcbnew,(5.0.0-rc2-dev)*
G04 #@! TF.CreationDate,2020-06-18T08:20:37+03:00*
G04 #@! TF.ProjectId,DIYVCO3M,44495956434F334D2E6B696361645F70,rev?*
G04 #@! TF.SameCoordinates,PX5e69ec0PY81b3200*
G04 #@! TF.FileFunction,Legend,Top*
G04 #@! TF.FilePolarity,Positive*
%FSLAX46Y46*%
G04 Gerber Fmt 4.6, Leading zero omitted, Abs format (unit mm)*
G04 Created by KiCad (PCBNEW (5.0.0-rc2-dev)) date Thu Jun 18 08:20:37 2020*
%MOMM*%
%LPD*%
G01*
G04 APERTURE LIST*
%ADD10C,0.300000*%
%ADD11C,0.200000*%
%ADD12C,0.100000*%
%ADD13C,0.120000*%
%ADD14C,0.150000*%
G04 APERTURE END LIST*
D10*
X4357142Y32095239D02*
X4357142Y34095239D01*
X4714285Y34095239D01*
X4928571Y34000000D01*
X5071428Y33809524D01*
X5142857Y33619048D01*
X5214285Y33238096D01*
X5214285Y32952381D01*
X5142857Y32571429D01*
X5071428Y32380953D01*
X4928571Y32190477D01*
X4714285Y32095239D01*
X4357142Y32095239D01*
X5857142Y32095239D02*
X5857142Y34095239D01*
X6857142Y33047620D02*
X6857142Y32095239D01*
X6357142Y34095239D02*
X6857142Y33047620D01*
X7357142Y34095239D01*
X7642857Y34095239D02*
X8142857Y32095239D01*
X8642857Y34095239D01*
X10000000Y32285715D02*
X9928571Y32190477D01*
X9714285Y32095239D01*
X9571428Y32095239D01*
X9357142Y32190477D01*
X9214285Y32380953D01*
X9142857Y32571429D01*
X9071428Y32952381D01*
X9071428Y33238096D01*
X9142857Y33619048D01*
X9214285Y33809524D01*
X9357142Y34000000D01*
X9571428Y34095239D01*
X9714285Y34095239D01*
X9928571Y34000000D01*
X10000000Y33904762D01*
X10928571Y34095239D02*
X11214285Y34095239D01*
X11357142Y34000000D01*
X11500000Y33809524D01*
X11571428Y33428572D01*
X11571428Y32761905D01*
X11500000Y32380953D01*
X11357142Y32190477D01*
X11214285Y32095239D01*
X10928571Y32095239D01*
X10785714Y32190477D01*
X10642857Y32380953D01*
X10571428Y32761905D01*
X10571428Y33428572D01*
X10642857Y33809524D01*
X10785714Y34000000D01*
X10928571Y34095239D01*
X12071428Y34095239D02*
X13000000Y34095239D01*
X12500000Y33333334D01*
X12714285Y33333334D01*
X12857142Y33238096D01*
X12928571Y33142858D01*
X13000000Y32952381D01*
X13000000Y32476191D01*
X12928571Y32285715D01*
X12857142Y32190477D01*
X12714285Y32095239D01*
X12285714Y32095239D01*
X12142857Y32190477D01*
X12071428Y32285715D01*
X13642857Y32095239D02*
X13642857Y34095239D01*
X14142857Y32666667D01*
X14642857Y34095239D01*
X14642857Y32095239D01*
D11*
X28390476Y93121429D02*
X28628571Y92121429D01*
X28866666Y93121429D01*
X29152380Y93621429D02*
X29771428Y93621429D01*
X29438095Y93050000D01*
X29580952Y93050000D01*
X29676190Y92978572D01*
X29723809Y92907143D01*
X29771428Y92764286D01*
X29771428Y92407143D01*
X29723809Y92264286D01*
X29676190Y92192858D01*
X29580952Y92121429D01*
X29295238Y92121429D01*
X29200000Y92192858D01*
X29152380Y92264286D01*
X30200000Y92264286D02*
X30247619Y92192858D01*
X30200000Y92121429D01*
X30152380Y92192858D01*
X30200000Y92264286D01*
X30200000Y92121429D01*
X30866666Y93621429D02*
X30961904Y93621429D01*
X31057142Y93550000D01*
X31104761Y93478572D01*
X31152380Y93335715D01*
X31200000Y93050000D01*
X31200000Y92692858D01*
X31152380Y92407143D01*
X31104761Y92264286D01*
X31057142Y92192858D01*
X30961904Y92121429D01*
X30866666Y92121429D01*
X30771428Y92192858D01*
X30723809Y92264286D01*
X30676190Y92407143D01*
X30628571Y92692858D01*
X30628571Y93050000D01*
X30676190Y93335715D01*
X30723809Y93478572D01*
X30771428Y93550000D01*
X30866666Y93621429D01*
X32676190Y93621429D02*
X32676190Y92550000D01*
X32628571Y92335715D01*
X32533333Y92192858D01*
X32390476Y92121429D01*
X32295238Y92121429D01*
X33580952Y93121429D02*
X33580952Y92121429D01*
X33152380Y93121429D02*
X33152380Y92335715D01*
X33200000Y92192858D01*
X33295238Y92121429D01*
X33438095Y92121429D01*
X33533333Y92192858D01*
X33580952Y92264286D01*
X34057142Y93121429D02*
X34057142Y92121429D01*
X34057142Y92978572D02*
X34104761Y93050000D01*
X34200000Y93121429D01*
X34342857Y93121429D01*
X34438095Y93050000D01*
X34485714Y92907143D01*
X34485714Y92121429D01*
X35342857Y92192858D02*
X35247619Y92121429D01*
X35057142Y92121429D01*
X34961904Y92192858D01*
X34914285Y92335715D01*
X34914285Y92907143D01*
X34961904Y93050000D01*
X35057142Y93121429D01*
X35247619Y93121429D01*
X35342857Y93050000D01*
X35390476Y92907143D01*
X35390476Y92764286D01*
X34914285Y92621429D01*
X36533333Y93478572D02*
X36580952Y93550000D01*
X36676190Y93621429D01*
X36914285Y93621429D01*
X37009523Y93550000D01*
X37057142Y93478572D01*
X37104761Y93335715D01*
X37104761Y93192858D01*
X37057142Y92978572D01*
X36485714Y92121429D01*
X37104761Y92121429D01*
X37723809Y93621429D02*
X37819047Y93621429D01*
X37914285Y93550000D01*
X37961904Y93478572D01*
X38009523Y93335715D01*
X38057142Y93050000D01*
X38057142Y92692858D01*
X38009523Y92407143D01*
X37961904Y92264286D01*
X37914285Y92192858D01*
X37819047Y92121429D01*
X37723809Y92121429D01*
X37628571Y92192858D01*
X37580952Y92264286D01*
X37533333Y92407143D01*
X37485714Y92692858D01*
X37485714Y93050000D01*
X37533333Y93335715D01*
X37580952Y93478572D01*
X37628571Y93550000D01*
X37723809Y93621429D01*
X38438095Y93478572D02*
X38485714Y93550000D01*
X38580952Y93621429D01*
X38819047Y93621429D01*
X38914285Y93550000D01*
X38961904Y93478572D01*
X39009523Y93335715D01*
X39009523Y93192858D01*
X38961904Y92978572D01*
X38390476Y92121429D01*
X39009523Y92121429D01*
X39628571Y93621429D02*
X39723809Y93621429D01*
X39819047Y93550000D01*
X39866666Y93478572D01*
X39914285Y93335715D01*
X39961904Y93050000D01*
X39961904Y92692858D01*
X39914285Y92407143D01*
X39866666Y92264286D01*
X39819047Y92192858D01*
X39723809Y92121429D01*
X39628571Y92121429D01*
X39533333Y92192858D01*
X39485714Y92264286D01*
X39438095Y92407143D01*
X39390476Y92692858D01*
X39390476Y93050000D01*
X39438095Y93335715D01*
X39485714Y93478572D01*
X39533333Y93550000D01*
X39628571Y93621429D01*
X2966666Y93007143D02*
X3300000Y93007143D01*
X3442857Y92221429D02*
X2966666Y92221429D01*
X2966666Y93721429D01*
X3442857Y93721429D01*
X3871428Y92221429D02*
X3871428Y93221429D01*
X3871428Y92935715D02*
X3919047Y93078572D01*
X3966666Y93150000D01*
X4061904Y93221429D01*
X4157142Y93221429D01*
X4490476Y92221429D02*
X4490476Y93221429D01*
X4490476Y93721429D02*
X4442857Y93650000D01*
X4490476Y93578572D01*
X4538095Y93650000D01*
X4490476Y93721429D01*
X4490476Y93578572D01*
X5395238Y92292858D02*
X5300000Y92221429D01*
X5109523Y92221429D01*
X5014285Y92292858D01*
X4966666Y92364286D01*
X4919047Y92507143D01*
X4919047Y92935715D01*
X4966666Y93078572D01*
X5014285Y93150000D01*
X5109523Y93221429D01*
X5300000Y93221429D01*
X5395238Y93150000D01*
X6252380Y92221429D02*
X6252380Y93007143D01*
X6204761Y93150000D01*
X6109523Y93221429D01*
X5919047Y93221429D01*
X5823809Y93150000D01*
X6252380Y92292858D02*
X6157142Y92221429D01*
X5919047Y92221429D01*
X5823809Y92292858D01*
X5776190Y92435715D01*
X5776190Y92578572D01*
X5823809Y92721429D01*
X5919047Y92792858D01*
X6157142Y92792858D01*
X6252380Y92864286D01*
X7442857Y92292858D02*
X7585714Y92221429D01*
X7823809Y92221429D01*
X7919047Y92292858D01*
X7966666Y92364286D01*
X8014285Y92507143D01*
X8014285Y92650000D01*
X7966666Y92792858D01*
X7919047Y92864286D01*
X7823809Y92935715D01*
X7633333Y93007143D01*
X7538095Y93078572D01*
X7490476Y93150000D01*
X7442857Y93292858D01*
X7442857Y93435715D01*
X7490476Y93578572D01*
X7538095Y93650000D01*
X7633333Y93721429D01*
X7871428Y93721429D01*
X8014285Y93650000D01*
X8347619Y93221429D02*
X8585714Y92221429D01*
X8823809Y93221429D02*
X8585714Y92221429D01*
X8490476Y91864286D01*
X8442857Y91792858D01*
X8347619Y91721429D01*
X9204761Y93221429D02*
X9204761Y92221429D01*
X9204761Y93078572D02*
X9252380Y93150000D01*
X9347619Y93221429D01*
X9490476Y93221429D01*
X9585714Y93150000D01*
X9633333Y93007143D01*
X9633333Y92221429D01*
X9966666Y93221429D02*
X10347619Y93221429D01*
X10109523Y93721429D02*
X10109523Y92435715D01*
X10157142Y92292858D01*
X10252380Y92221429D01*
X10347619Y92221429D01*
X10680952Y92221429D02*
X10680952Y93721429D01*
X11109523Y92221429D02*
X11109523Y93007143D01*
X11061904Y93150000D01*
X10966666Y93221429D01*
X10823809Y93221429D01*
X10728571Y93150000D01*
X10680952Y93078572D01*
X11538095Y92292858D02*
X11633333Y92221429D01*
X11823809Y92221429D01*
X11919047Y92292858D01*
X11966666Y92435715D01*
X11966666Y92507143D01*
X11919047Y92650000D01*
X11823809Y92721429D01*
X11680952Y92721429D01*
X11585714Y92792858D01*
X11538095Y92935715D01*
X11538095Y93007143D01*
X11585714Y93150000D01*
X11680952Y93221429D01*
X11823809Y93221429D01*
X11919047Y93150000D01*
X13157142Y92221429D02*
X13157142Y93721429D01*
X13395238Y93721429D01*
X13538095Y93650000D01*
X13633333Y93507143D01*
X13680952Y93364286D01*
X13728571Y93078572D01*
X13728571Y92864286D01*
X13680952Y92578572D01*
X13633333Y92435715D01*
X13538095Y92292858D01*
X13395238Y92221429D01*
X13157142Y92221429D01*
X14157142Y92221429D02*
X14157142Y93721429D01*
X14823809Y92935715D02*
X14823809Y92221429D01*
X14490476Y93721429D02*
X14823809Y92935715D01*
X15157142Y93721429D01*
X16252380Y92221429D02*
X16252380Y93721429D01*
X16633333Y93721429D01*
X16728571Y93650000D01*
X16776190Y93578572D01*
X16823809Y93435715D01*
X16823809Y93221429D01*
X16776190Y93078572D01*
X16728571Y93007143D01*
X16633333Y92935715D01*
X16252380Y92935715D01*
X17395238Y92221429D02*
X17300000Y92292858D01*
X17252380Y92364286D01*
X17204761Y92507143D01*
X17204761Y92935715D01*
X17252380Y93078572D01*
X17300000Y93150000D01*
X17395238Y93221429D01*
X17538095Y93221429D01*
X17633333Y93150000D01*
X17680952Y93078572D01*
X17728571Y92935715D01*
X17728571Y92507143D01*
X17680952Y92364286D01*
X17633333Y92292858D01*
X17538095Y92221429D01*
X17395238Y92221429D01*
X18300000Y92221429D02*
X18204761Y92292858D01*
X18157142Y92435715D01*
X18157142Y93721429D01*
X18680952Y92221429D02*
X18680952Y93221429D01*
X18680952Y93721429D02*
X18633333Y93650000D01*
X18680952Y93578572D01*
X18728571Y93650000D01*
X18680952Y93721429D01*
X18680952Y93578572D01*
X19061904Y93221429D02*
X19300000Y92221429D01*
X19538095Y93221429D01*
X20061904Y92221429D02*
X19966666Y92292858D01*
X19919047Y92364286D01*
X19871428Y92507143D01*
X19871428Y92935715D01*
X19919047Y93078572D01*
X19966666Y93150000D01*
X20061904Y93221429D01*
X20204761Y93221429D01*
X20300000Y93150000D01*
X20347619Y93078572D01*
X20395238Y92935715D01*
X20395238Y92507143D01*
X20347619Y92364286D01*
X20300000Y92292858D01*
X20204761Y92221429D01*
X20061904Y92221429D01*
X20823809Y92221429D02*
X20823809Y93721429D01*
X20919047Y92792858D02*
X21204761Y92221429D01*
X21204761Y93221429D02*
X20823809Y92650000D01*
X21585714Y92292858D02*
X21680952Y92221429D01*
X21871428Y92221429D01*
X21966666Y92292858D01*
X22014285Y92435715D01*
X22014285Y92507143D01*
X21966666Y92650000D01*
X21871428Y92721429D01*
X21728571Y92721429D01*
X21633333Y92792858D01*
X21585714Y92935715D01*
X21585714Y93007143D01*
X21633333Y93150000D01*
X21728571Y93221429D01*
X21871428Y93221429D01*
X21966666Y93150000D01*
X23061904Y93721429D02*
X23395238Y92221429D01*
X23728571Y93721429D01*
X24633333Y92364286D02*
X24585714Y92292858D01*
X24442857Y92221429D01*
X24347619Y92221429D01*
X24204761Y92292858D01*
X24109523Y92435715D01*
X24061904Y92578572D01*
X24014285Y92864286D01*
X24014285Y93078572D01*
X24061904Y93364286D01*
X24109523Y93507143D01*
X24204761Y93650000D01*
X24347619Y93721429D01*
X24442857Y93721429D01*
X24585714Y93650000D01*
X24633333Y93578572D01*
X25252380Y93721429D02*
X25442857Y93721429D01*
X25538095Y93650000D01*
X25633333Y93507143D01*
X25680952Y93221429D01*
X25680952Y92721429D01*
X25633333Y92435715D01*
X25538095Y92292858D01*
X25442857Y92221429D01*
X25252380Y92221429D01*
X25157142Y92292858D01*
X25061904Y92435715D01*
X25014285Y92721429D01*
X25014285Y93221429D01*
X25061904Y93507143D01*
X25157142Y93650000D01*
X25252380Y93721429D01*
D12*
X44950000Y92950000D02*
X45083333Y92483334D01*
X45216666Y92816667D01*
X45350000Y92483334D01*
X45483333Y92950000D01*
X45683333Y92950000D02*
X45816666Y92483334D01*
X45950000Y92816667D01*
X46083333Y92483334D01*
X46216666Y92950000D01*
X46416666Y92950000D02*
X46550000Y92483334D01*
X46683333Y92816667D01*
X46816666Y92483334D01*
X46950000Y92950000D01*
X47216666Y92550000D02*
X47250000Y92516667D01*
X47216666Y92483334D01*
X47183333Y92516667D01*
X47216666Y92550000D01*
X47216666Y92483334D01*
X47816666Y92516667D02*
X47750000Y92483334D01*
X47616666Y92483334D01*
X47550000Y92516667D01*
X47516666Y92583334D01*
X47516666Y92850000D01*
X47550000Y92916667D01*
X47616666Y92950000D01*
X47750000Y92950000D01*
X47816666Y92916667D01*
X47850000Y92850000D01*
X47850000Y92783334D01*
X47516666Y92716667D01*
X48150000Y92483334D02*
X48150000Y92950000D01*
X48150000Y92816667D02*
X48183333Y92883334D01*
X48216666Y92916667D01*
X48283333Y92950000D01*
X48350000Y92950000D01*
X48583333Y92483334D02*
X48583333Y92950000D01*
X48583333Y93183334D02*
X48550000Y93150000D01*
X48583333Y93116667D01*
X48616666Y93150000D01*
X48583333Y93183334D01*
X48583333Y93116667D01*
X49216666Y92516667D02*
X49150000Y92483334D01*
X49016666Y92483334D01*
X48950000Y92516667D01*
X48916666Y92550000D01*
X48883333Y92616667D01*
X48883333Y92816667D01*
X48916666Y92883334D01*
X48950000Y92916667D01*
X49016666Y92950000D01*
X49150000Y92950000D01*
X49216666Y92916667D01*
X49816666Y92483334D02*
X49816666Y92850000D01*
X49783333Y92916667D01*
X49716666Y92950000D01*
X49583333Y92950000D01*
X49516666Y92916667D01*
X49816666Y92516667D02*
X49750000Y92483334D01*
X49583333Y92483334D01*
X49516666Y92516667D01*
X49483333Y92583334D01*
X49483333Y92650000D01*
X49516666Y92716667D01*
X49583333Y92750000D01*
X49750000Y92750000D01*
X49816666Y92783334D01*
X50116666Y92516667D02*
X50183333Y92483334D01*
X50316666Y92483334D01*
X50383333Y92516667D01*
X50416666Y92583334D01*
X50416666Y92616667D01*
X50383333Y92683334D01*
X50316666Y92716667D01*
X50216666Y92716667D01*
X50150000Y92750000D01*
X50116666Y92816667D01*
X50116666Y92850000D01*
X50150000Y92916667D01*
X50216666Y92950000D01*
X50316666Y92950000D01*
X50383333Y92916667D01*
X50650000Y92950000D02*
X50816666Y92483334D01*
X50983333Y92950000D02*
X50816666Y92483334D01*
X50750000Y92316667D01*
X50716666Y92283334D01*
X50650000Y92250000D01*
X51250000Y92950000D02*
X51250000Y92483334D01*
X51250000Y92883334D02*
X51283333Y92916667D01*
X51350000Y92950000D01*
X51450000Y92950000D01*
X51516666Y92916667D01*
X51550000Y92850000D01*
X51550000Y92483334D01*
X51783333Y92950000D02*
X52050000Y92950000D01*
X51883333Y93183334D02*
X51883333Y92583334D01*
X51916666Y92516667D01*
X51983333Y92483334D01*
X52050000Y92483334D01*
X52283333Y92483334D02*
X52283333Y93183334D01*
X52583333Y92483334D02*
X52583333Y92850000D01*
X52550000Y92916667D01*
X52483333Y92950000D01*
X52383333Y92950000D01*
X52316666Y92916667D01*
X52283333Y92883334D01*
X52883333Y92516667D02*
X52950000Y92483334D01*
X53083333Y92483334D01*
X53150000Y92516667D01*
X53183333Y92583334D01*
X53183333Y92616667D01*
X53150000Y92683334D01*
X53083333Y92716667D01*
X52983333Y92716667D01*
X52916666Y92750000D01*
X52883333Y92816667D01*
X52883333Y92850000D01*
X52916666Y92916667D01*
X52983333Y92950000D01*
X53083333Y92950000D01*
X53150000Y92916667D01*
X53483333Y92550000D02*
X53516666Y92516667D01*
X53483333Y92483334D01*
X53450000Y92516667D01*
X53483333Y92550000D01*
X53483333Y92483334D01*
X53916666Y92483334D02*
X53850000Y92516667D01*
X53816666Y92583334D01*
X53816666Y93183334D01*
X54116666Y92950000D02*
X54283333Y92483334D01*
X54450000Y92950000D01*
X1500000Y91683334D02*
X1100000Y91683334D01*
X1300000Y91683334D02*
X1300000Y92383334D01*
X1233333Y92283334D01*
X1166666Y92216667D01*
X1100000Y92183334D01*
X58000000Y91883334D02*
X57600000Y91883334D01*
X57800000Y91883334D02*
X57800000Y92583334D01*
X57733333Y92483334D01*
X57666666Y92416667D01*
X57600000Y92383334D01*
X57100000Y35583334D02*
X56700000Y35583334D01*
X56900000Y35583334D02*
X56900000Y36283334D01*
X56833333Y36183334D01*
X56766666Y36116667D01*
X56700000Y36083334D01*
X1500000Y35583334D02*
X1100000Y35583334D01*
X1300000Y35583334D02*
X1300000Y36283334D01*
X1233333Y36183334D01*
X1166666Y36116667D01*
X1100000Y36083334D01*
X0Y95000000D02*
X0Y0D01*
X59000000Y95000000D02*
X0Y95000000D01*
X59000000Y0D02*
X59000000Y95000000D01*
X0Y0D02*
X59000000Y0D01*
D13*
X55000000Y67000000D02*
G75*
G03X55000000Y67000000I-14000000J0D01*
G01*
D14*
X16750000Y2500000D02*
G75*
G03X16750000Y2500000I-950000J0D01*
G01*
X10150000Y44600000D02*
G75*
G03X10150000Y44600000I-950000J0D01*
G01*
X25850000Y80800000D02*
G75*
G03X25850000Y80800000I-950000J0D01*
G01*
X25850000Y72400000D02*
G75*
G03X25850000Y72400000I-950000J0D01*
G01*
X21850000Y52200000D02*
G75*
G03X21850000Y52200000I-950000J0D01*
G01*
X21850000Y43500000D02*
G75*
G03X21850000Y43500000I-950000J0D01*
G01*
X-147000Y70713000D02*
X2647000Y70713000D01*
X-147000Y90652000D02*
X-147000Y70713000D01*
X488000Y91287000D02*
X-147000Y90652000D01*
X2647000Y91287000D02*
X488000Y91287000D01*
X2647000Y70713000D02*
X2647000Y91287000D01*
X56353000Y14713000D02*
X59147000Y14713000D01*
X56353000Y34652000D02*
X56353000Y14713000D01*
X56988000Y35287000D02*
X56353000Y34652000D01*
X59147000Y35287000D02*
X56988000Y35287000D01*
X59147000Y14713000D02*
X59147000Y35287000D01*
X59147000Y70713000D02*
X59147000Y91287000D01*
X59147000Y91287000D02*
X56988000Y91287000D01*
X56988000Y91287000D02*
X56353000Y90652000D01*
X56353000Y90652000D02*
X56353000Y70713000D01*
X56353000Y70713000D02*
X59147000Y70713000D01*
X2647000Y14713000D02*
X2647000Y35287000D01*
X2647000Y35287000D02*
X488000Y35287000D01*
X488000Y35287000D02*
X-147000Y34652000D01*
X-147000Y34652000D02*
X-147000Y14713000D01*
X-147000Y14713000D02*
X2647000Y14713000D01*
X16650000Y17700000D02*
G75*
G03X16650000Y17700000I-950000J0D01*
G01*
X55950000Y79700000D02*
G75*
G03X55950000Y79700000I-950000J0D01*
G01*
X55950000Y74700000D02*
G75*
G03X55950000Y74700000I-950000J0D01*
G01*
D12*
X36100000Y52783334D02*
X35700000Y52783334D01*
X35900000Y52783334D02*
X35900000Y53483334D01*
X35833333Y53383334D01*
X35766666Y53316667D01*
X35700000Y53283334D01*
X40066666Y81516667D02*
X40166666Y81483334D01*
X40333333Y81483334D01*
X40400000Y81516667D01*
X40433333Y81550000D01*
X40466666Y81616667D01*
X40466666Y81683334D01*
X40433333Y81750000D01*
X40400000Y81783334D01*
X40333333Y81816667D01*
X40200000Y81850000D01*
X40133333Y81883334D01*
X40100000Y81916667D01*
X40066666Y81983334D01*
X40066666Y82050000D01*
X40100000Y82116667D01*
X40133333Y82150000D01*
X40200000Y82183334D01*
X40366666Y82183334D01*
X40466666Y82150000D01*
X40700000Y82183334D02*
X40866666Y81483334D01*
X41000000Y81983334D01*
X41133333Y81483334D01*
X41300000Y82183334D01*
X41933333Y81483334D02*
X41533333Y81483334D01*
X41733333Y81483334D02*
X41733333Y82183334D01*
X41666666Y82083334D01*
X41600000Y82016667D01*
X41533333Y81983334D01*
X14916666Y4383334D02*
X15316666Y4383334D01*
X15116666Y3683334D02*
X15116666Y4383334D01*
X15550000Y3683334D02*
X15550000Y4383334D01*
X15816666Y4383334D01*
X15883333Y4350000D01*
X15916666Y4316667D01*
X15950000Y4250000D01*
X15950000Y4150000D01*
X15916666Y4083334D01*
X15883333Y4050000D01*
X15816666Y4016667D01*
X15550000Y4016667D01*
X16616666Y3683334D02*
X16216666Y3683334D01*
X16416666Y3683334D02*
X16416666Y4383334D01*
X16350000Y4283334D01*
X16283333Y4216667D01*
X16216666Y4183334D01*
X6116666Y44583334D02*
X6516666Y44583334D01*
X6316666Y43883334D02*
X6316666Y44583334D01*
X6750000Y43883334D02*
X6750000Y44583334D01*
X7016666Y44583334D01*
X7083333Y44550000D01*
X7116666Y44516667D01*
X7150000Y44450000D01*
X7150000Y44350000D01*
X7116666Y44283334D01*
X7083333Y44250000D01*
X7016666Y44216667D01*
X6750000Y44216667D01*
X7416666Y44516667D02*
X7450000Y44550000D01*
X7516666Y44583334D01*
X7683333Y44583334D01*
X7750000Y44550000D01*
X7783333Y44516667D01*
X7816666Y44450000D01*
X7816666Y44383334D01*
X7783333Y44283334D01*
X7383333Y43883334D01*
X7816666Y43883334D01*
X26116666Y81183334D02*
X26516666Y81183334D01*
X26316666Y80483334D02*
X26316666Y81183334D01*
X26750000Y80483334D02*
X26750000Y81183334D01*
X27016666Y81183334D01*
X27083333Y81150000D01*
X27116666Y81116667D01*
X27150000Y81050000D01*
X27150000Y80950000D01*
X27116666Y80883334D01*
X27083333Y80850000D01*
X27016666Y80816667D01*
X26750000Y80816667D01*
X27383333Y81183334D02*
X27816666Y81183334D01*
X27583333Y80916667D01*
X27683333Y80916667D01*
X27750000Y80883334D01*
X27783333Y80850000D01*
X27816666Y80783334D01*
X27816666Y80616667D01*
X27783333Y80550000D01*
X27750000Y80516667D01*
X27683333Y80483334D01*
X27483333Y80483334D01*
X27416666Y80516667D01*
X27383333Y80550000D01*
X25816666Y73483334D02*
X26216666Y73483334D01*
X26016666Y72783334D02*
X26016666Y73483334D01*
X26450000Y72783334D02*
X26450000Y73483334D01*
X26716666Y73483334D01*
X26783333Y73450000D01*
X26816666Y73416667D01*
X26850000Y73350000D01*
X26850000Y73250000D01*
X26816666Y73183334D01*
X26783333Y73150000D01*
X26716666Y73116667D01*
X26450000Y73116667D01*
X27450000Y73250000D02*
X27450000Y72783334D01*
X27283333Y73516667D02*
X27116666Y73016667D01*
X27550000Y73016667D01*
X21116666Y54083334D02*
X21516666Y54083334D01*
X21316666Y53383334D02*
X21316666Y54083334D01*
X21750000Y53383334D02*
X21750000Y54083334D01*
X22016666Y54083334D01*
X22083333Y54050000D01*
X22116666Y54016667D01*
X22150000Y53950000D01*
X22150000Y53850000D01*
X22116666Y53783334D01*
X22083333Y53750000D01*
X22016666Y53716667D01*
X21750000Y53716667D01*
X22783333Y54083334D02*
X22450000Y54083334D01*
X22416666Y53750000D01*
X22450000Y53783334D01*
X22516666Y53816667D01*
X22683333Y53816667D01*
X22750000Y53783334D01*
X22783333Y53750000D01*
X22816666Y53683334D01*
X22816666Y53516667D01*
X22783333Y53450000D01*
X22750000Y53416667D01*
X22683333Y53383334D01*
X22516666Y53383334D01*
X22450000Y53416667D01*
X22416666Y53450000D01*
X18016666Y43883334D02*
X18416666Y43883334D01*
X18216666Y43183334D02*
X18216666Y43883334D01*
X18650000Y43183334D02*
X18650000Y43883334D01*
X18916666Y43883334D01*
X18983333Y43850000D01*
X19016666Y43816667D01*
X19050000Y43750000D01*
X19050000Y43650000D01*
X19016666Y43583334D01*
X18983333Y43550000D01*
X18916666Y43516667D01*
X18650000Y43516667D01*
X19650000Y43883334D02*
X19516666Y43883334D01*
X19450000Y43850000D01*
X19416666Y43816667D01*
X19350000Y43716667D01*
X19316666Y43583334D01*
X19316666Y43316667D01*
X19350000Y43250000D01*
X19383333Y43216667D01*
X19450000Y43183334D01*
X19583333Y43183334D01*
X19650000Y43216667D01*
X19683333Y43250000D01*
X19716666Y43316667D01*
X19716666Y43483334D01*
X19683333Y43550000D01*
X19650000Y43583334D01*
X19583333Y43616667D01*
X19450000Y43616667D01*
X19383333Y43583334D01*
X19350000Y43550000D01*
X19316666Y43483334D01*
X683333Y70183334D02*
X1150000Y69483334D01*
X1150000Y70183334D02*
X683333Y69483334D01*
X1416666Y69483334D02*
X1416666Y70183334D01*
X1683333Y70183334D01*
X1750000Y70150000D01*
X1783333Y70116667D01*
X1816666Y70050000D01*
X1816666Y69950000D01*
X1783333Y69883334D01*
X1750000Y69850000D01*
X1683333Y69816667D01*
X1416666Y69816667D01*
X2083333Y70116667D02*
X2116666Y70150000D01*
X2183333Y70183334D01*
X2350000Y70183334D01*
X2416666Y70150000D01*
X2450000Y70116667D01*
X2483333Y70050000D01*
X2483333Y69983334D01*
X2450000Y69883334D01*
X2050000Y69483334D01*
X2483333Y69483334D01*
X56483333Y14283334D02*
X56950000Y13583334D01*
X56950000Y14283334D02*
X56483333Y13583334D01*
X57216666Y13583334D02*
X57216666Y14283334D01*
X57483333Y14283334D01*
X57550000Y14250000D01*
X57583333Y14216667D01*
X57616666Y14150000D01*
X57616666Y14050000D01*
X57583333Y13983334D01*
X57550000Y13950000D01*
X57483333Y13916667D01*
X57216666Y13916667D01*
X57850000Y14283334D02*
X58283333Y14283334D01*
X58050000Y14016667D01*
X58150000Y14016667D01*
X58216666Y13983334D01*
X58250000Y13950000D01*
X58283333Y13883334D01*
X58283333Y13716667D01*
X58250000Y13650000D01*
X58216666Y13616667D01*
X58150000Y13583334D01*
X57950000Y13583334D01*
X57883333Y13616667D01*
X57850000Y13650000D01*
X56683333Y70383334D02*
X57150000Y69683334D01*
X57150000Y70383334D02*
X56683333Y69683334D01*
X57416666Y69683334D02*
X57416666Y70383334D01*
X57683333Y70383334D01*
X57750000Y70350000D01*
X57783333Y70316667D01*
X57816666Y70250000D01*
X57816666Y70150000D01*
X57783333Y70083334D01*
X57750000Y70050000D01*
X57683333Y70016667D01*
X57416666Y70016667D01*
X58416666Y70150000D02*
X58416666Y69683334D01*
X58250000Y70416667D02*
X58083333Y69916667D01*
X58516666Y69916667D01*
X3183333Y24183334D02*
X3650000Y23483334D01*
X3650000Y24183334D02*
X3183333Y23483334D01*
X3916666Y23483334D02*
X3916666Y24183334D01*
X4183333Y24183334D01*
X4250000Y24150000D01*
X4283333Y24116667D01*
X4316666Y24050000D01*
X4316666Y23950000D01*
X4283333Y23883334D01*
X4250000Y23850000D01*
X4183333Y23816667D01*
X3916666Y23816667D01*
X4950000Y24183334D02*
X4616666Y24183334D01*
X4583333Y23850000D01*
X4616666Y23883334D01*
X4683333Y23916667D01*
X4850000Y23916667D01*
X4916666Y23883334D01*
X4950000Y23850000D01*
X4983333Y23783334D01*
X4983333Y23616667D01*
X4950000Y23550000D01*
X4916666Y23516667D01*
X4850000Y23483334D01*
X4683333Y23483334D01*
X4616666Y23516667D01*
X4583333Y23550000D01*
X15116666Y19583334D02*
X15516666Y19583334D01*
X15316666Y18883334D02*
X15316666Y19583334D01*
X15750000Y18883334D02*
X15750000Y19583334D01*
X16016666Y19583334D01*
X16083333Y19550000D01*
X16116666Y19516667D01*
X16150000Y19450000D01*
X16150000Y19350000D01*
X16116666Y19283334D01*
X16083333Y19250000D01*
X16016666Y19216667D01*
X15750000Y19216667D01*
X16383333Y19583334D02*
X16850000Y19583334D01*
X16550000Y18883334D01*
X52116666Y79983334D02*
X52516666Y79983334D01*
X52316666Y79283334D02*
X52316666Y79983334D01*
X52750000Y79283334D02*
X52750000Y79983334D01*
X53016666Y79983334D01*
X53083333Y79950000D01*
X53116666Y79916667D01*
X53150000Y79850000D01*
X53150000Y79750000D01*
X53116666Y79683334D01*
X53083333Y79650000D01*
X53016666Y79616667D01*
X52750000Y79616667D01*
X53550000Y79683334D02*
X53483333Y79716667D01*
X53450000Y79750000D01*
X53416666Y79816667D01*
X53416666Y79850000D01*
X53450000Y79916667D01*
X53483333Y79950000D01*
X53550000Y79983334D01*
X53683333Y79983334D01*
X53750000Y79950000D01*
X53783333Y79916667D01*
X53816666Y79850000D01*
X53816666Y79816667D01*
X53783333Y79750000D01*
X53750000Y79716667D01*
X53683333Y79683334D01*
X53550000Y79683334D01*
X53483333Y79650000D01*
X53450000Y79616667D01*
X53416666Y79550000D01*
X53416666Y79416667D01*
X53450000Y79350000D01*
X53483333Y79316667D01*
X53550000Y79283334D01*
X53683333Y79283334D01*
X53750000Y79316667D01*
X53783333Y79350000D01*
X53816666Y79416667D01*
X53816666Y79550000D01*
X53783333Y79616667D01*
X53750000Y79650000D01*
X53683333Y79683334D01*
X53816666Y76783334D02*
X54216666Y76783334D01*
X54016666Y76083334D02*
X54016666Y76783334D01*
X54450000Y76083334D02*
X54450000Y76783334D01*
X54716666Y76783334D01*
X54783333Y76750000D01*
X54816666Y76716667D01*
X54850000Y76650000D01*
X54850000Y76550000D01*
X54816666Y76483334D01*
X54783333Y76450000D01*
X54716666Y76416667D01*
X54450000Y76416667D01*
X55183333Y76083334D02*
X55316666Y76083334D01*
X55383333Y76116667D01*
X55416666Y76150000D01*
X55483333Y76250000D01*
X55516666Y76383334D01*
X55516666Y76650000D01*
X55483333Y76716667D01*
X55450000Y76750000D01*
X55383333Y76783334D01*
X55250000Y76783334D01*
X55183333Y76750000D01*
X55150000Y76716667D01*
X55116666Y76650000D01*
X55116666Y76483334D01*
X55150000Y76416667D01*
X55183333Y76383334D01*
X55250000Y76350000D01*
X55383333Y76350000D01*
X55450000Y76383334D01*
X55483333Y76416667D01*
X55516666Y76483334D01*
M02*
