G04 #@! TF.GenerationSoftware,KiCad,Pcbnew,(5.0.0-rc2-dev)*
G04 #@! TF.CreationDate,2020-06-18T08:20:37+03:00*
G04 #@! TF.ProjectId,DIYVCO3M,44495956434F334D2E6B696361645F70,rev?*
G04 #@! TF.SameCoordinates,PX5e69ec0PY81b3200*
G04 #@! TF.FileFunction,Soldermask,Top*
G04 #@! TF.FilePolarity,Negative*
%FSLAX46Y46*%
G04 Gerber Fmt 4.6, Leading zero omitted, Abs format (unit mm)*
G04 Created by KiCad (PCBNEW (5.0.0-rc2-dev)) date Thu Jun 18 08:20:37 2020*
%MOMM*%
%LPD*%
G01*
G04 APERTURE LIST*
%ADD10C,0.100000*%
%ADD11C,1.300000*%
%ADD12C,1.200000*%
%ADD13C,2.000000*%
%ADD14C,2.500000*%
%ADD15R,1.400000X1.400000*%
%ADD16C,1.400000*%
%ADD17R,2.200000X1.600000*%
%ADD18O,2.200000X1.600000*%
%ADD19C,1.600000*%
%ADD20R,1.600000X1.600000*%
G04 APERTURE END LIST*
D10*
X0Y95000000D02*
X0Y0D01*
X59000000Y95000000D02*
X0Y95000000D01*
X59000000Y0D02*
X59000000Y95000000D01*
X0Y0D02*
X59000000Y0D01*
D11*
X51240000Y84900000D03*
X48700000Y84900000D03*
X46160000Y84900000D03*
D12*
X46800000Y21340000D03*
X46800000Y16260000D03*
X38265000Y46830000D03*
X38265000Y49370000D03*
X39535000Y48100000D03*
X42165000Y46830000D03*
X42165000Y49370000D03*
X43435000Y48100000D03*
X34735000Y49370000D03*
X34735000Y46830000D03*
X33465000Y48100000D03*
X30835000Y49370000D03*
X30835000Y46830000D03*
X29565000Y48100000D03*
X46265000Y46830000D03*
X46265000Y49370000D03*
X47535000Y48100000D03*
X54900000Y46000000D03*
X54900000Y43460000D03*
X53630000Y44730000D03*
D13*
X3800000Y49200000D03*
X6800000Y49200000D03*
X6800000Y46200000D03*
X3800000Y46200000D03*
X3800000Y52300000D03*
X6800000Y52300000D03*
X22700000Y36900000D03*
X22700000Y39900000D03*
X19600000Y36900000D03*
X19600000Y39900000D03*
X34700000Y86600000D03*
X37700000Y86600000D03*
X31700000Y89400000D03*
X34700000Y89400000D03*
X28700000Y86600000D03*
X31700000Y86600000D03*
X25700000Y83700000D03*
X28700000Y83700000D03*
X25700000Y89600000D03*
X25700000Y86600000D03*
X45100000Y41600000D03*
X42100000Y41600000D03*
X2400000Y9700000D03*
X2400000Y12700000D03*
X8500000Y20800000D03*
X5500000Y20800000D03*
X18700000Y25600000D03*
X15700000Y25600000D03*
X15700000Y22800000D03*
X18700000Y22800000D03*
X21600000Y22600000D03*
X21600000Y25600000D03*
X47800000Y38800000D03*
X47800000Y35800000D03*
X15500000Y44200000D03*
X12500000Y44200000D03*
X44900000Y35800000D03*
X44900000Y38800000D03*
X16500000Y36900000D03*
X16500000Y39900000D03*
X13400000Y36900000D03*
X13400000Y39900000D03*
X4100000Y36900000D03*
X4100000Y39900000D03*
X7200000Y36900000D03*
X7200000Y39900000D03*
X10300000Y36900000D03*
X10300000Y39900000D03*
X28800000Y28000000D03*
X28800000Y31000000D03*
X7900000Y74400000D03*
X7900000Y77400000D03*
X5100000Y77400000D03*
X5100000Y74400000D03*
X7900000Y83900000D03*
X7900000Y80900000D03*
X22800000Y31000000D03*
X25800000Y31000000D03*
X10900000Y87500000D03*
X7900000Y87500000D03*
X22800000Y34000000D03*
X25800000Y34000000D03*
X25800000Y36900000D03*
X25800000Y39900000D03*
X11000000Y74400000D03*
X11000000Y77400000D03*
X19500000Y69000000D03*
X19500000Y66000000D03*
X22300000Y66000000D03*
X25300000Y66000000D03*
X5200000Y59100000D03*
X5200000Y62100000D03*
X15600000Y65400000D03*
X12600000Y65400000D03*
X22300000Y69100000D03*
X25300000Y69100000D03*
X50200000Y8700000D03*
X47200000Y8700000D03*
X24900000Y78300000D03*
X24900000Y75300000D03*
X50200000Y13700000D03*
X47200000Y13700000D03*
X47200000Y6000000D03*
X47200000Y3000000D03*
X46800000Y26800000D03*
X46800000Y23800000D03*
X49400000Y16300000D03*
X49400000Y19300000D03*
X37700000Y89400000D03*
X40700000Y89400000D03*
X52400000Y22400000D03*
X49400000Y22400000D03*
X28800000Y5600000D03*
X28800000Y8600000D03*
X22600000Y5600000D03*
X25600000Y5600000D03*
X31700000Y5600000D03*
X31700000Y2600000D03*
X29900000Y16700000D03*
X29900000Y19700000D03*
X43500000Y89400000D03*
X46500000Y89400000D03*
X28800000Y2600000D03*
X25800000Y2600000D03*
X26900000Y52200000D03*
X23900000Y52200000D03*
X50200000Y3000000D03*
X50200000Y6000000D03*
X29900000Y13700000D03*
X32900000Y13700000D03*
X56000000Y2700000D03*
X53000000Y2700000D03*
X20900000Y49300000D03*
X20900000Y46300000D03*
X28800000Y43200000D03*
X25800000Y43200000D03*
X34500000Y44300000D03*
X31500000Y44300000D03*
X26900000Y46300000D03*
X23900000Y46300000D03*
X23900000Y49300000D03*
X26900000Y49300000D03*
X48200000Y51600000D03*
X45200000Y51600000D03*
X51900000Y48600000D03*
X54900000Y48600000D03*
X54900000Y51600000D03*
X51900000Y51600000D03*
X54300000Y40700000D03*
X51300000Y40700000D03*
X51300000Y43800000D03*
X48300000Y43800000D03*
X22600000Y8600000D03*
X25600000Y8600000D03*
X31700000Y83700000D03*
X34700000Y83700000D03*
X32800000Y19700000D03*
X32800000Y16700000D03*
D14*
X43722000Y64278000D03*
X43722000Y69722000D03*
X38278000Y69722000D03*
X38278000Y64278000D03*
X43873000Y56278000D03*
X48849000Y59151000D03*
X51722000Y64127000D03*
X51722000Y69873000D03*
X48849000Y74849000D03*
X43873000Y77722000D03*
X38127000Y77722000D03*
X33151000Y74849000D03*
X30278000Y69873000D03*
X30278000Y64127000D03*
X33151000Y59151000D03*
X38127000Y56278000D03*
D15*
X53650000Y33900000D03*
D16*
X51150000Y33900000D03*
D12*
X15800000Y10060000D03*
X15800000Y15140000D03*
X2400000Y1760000D03*
X2400000Y6840000D03*
X25640000Y54800000D03*
X20560000Y54800000D03*
X7840000Y54800000D03*
X2760000Y54800000D03*
X46660000Y11200000D03*
X51740000Y11200000D03*
X33900000Y6060000D03*
X33900000Y11140000D03*
X28800000Y33560000D03*
X28800000Y38640000D03*
X39260000Y28500000D03*
X44340000Y28500000D03*
X36940000Y28500000D03*
X31860000Y28500000D03*
X12940000Y90000000D03*
X7860000Y90000000D03*
X11000000Y84940000D03*
X11000000Y79860000D03*
X7700000Y63640000D03*
X7700000Y58560000D03*
X52800000Y14160000D03*
X52800000Y19240000D03*
D16*
X40750000Y23800000D03*
D15*
X43250000Y23800000D03*
D12*
X37060000Y51600000D03*
X42140000Y51600000D03*
X32040000Y11200000D03*
X26960000Y11200000D03*
D16*
X36550000Y23800000D03*
D15*
X34050000Y23800000D03*
X51150000Y27000000D03*
D16*
X53650000Y27000000D03*
X54800000Y9050000D03*
D15*
X54800000Y6550000D03*
X28350000Y23800000D03*
D16*
X25850000Y23800000D03*
D17*
X13110000Y17720000D03*
D18*
X13110000Y15180000D03*
X13110000Y12640000D03*
X13110000Y10100000D03*
X13110000Y7560000D03*
X13110000Y5020000D03*
X13110000Y2480000D03*
X5490000Y2480000D03*
X5490000Y5020000D03*
X5490000Y7560000D03*
X5490000Y10100000D03*
X5490000Y12640000D03*
X5490000Y15180000D03*
X5490000Y17720000D03*
D17*
X17910000Y62420000D03*
D18*
X17910000Y59880000D03*
X17910000Y57340000D03*
X17910000Y54800000D03*
X17910000Y52260000D03*
X17910000Y49720000D03*
X17910000Y47180000D03*
X10290000Y47180000D03*
X10290000Y49720000D03*
X10290000Y52260000D03*
X10290000Y54800000D03*
X10290000Y57340000D03*
X10290000Y59880000D03*
X10290000Y62420000D03*
X36490000Y18820000D03*
X36490000Y16280000D03*
X36490000Y13740000D03*
X36490000Y11200000D03*
X36490000Y8660000D03*
X36490000Y6120000D03*
X36490000Y3580000D03*
X44110000Y3580000D03*
X44110000Y6120000D03*
X44110000Y8660000D03*
X44110000Y11200000D03*
X44110000Y13740000D03*
X44110000Y16280000D03*
D17*
X44110000Y18820000D03*
D19*
X15800000Y2500000D03*
X9200000Y44600000D03*
X24900000Y80800000D03*
X24900000Y72400000D03*
X20900000Y52200000D03*
X20900000Y43500000D03*
X39300000Y41100000D03*
X31700000Y41100000D03*
X42100000Y38600000D03*
X42100000Y31000000D03*
X45300000Y44200000D03*
X37700000Y44200000D03*
X19600000Y18800000D03*
X27200000Y18800000D03*
X19600000Y15200000D03*
X27200000Y15200000D03*
D17*
X21810000Y87520000D03*
D18*
X21810000Y84980000D03*
X21810000Y82440000D03*
X21810000Y79900000D03*
X21810000Y77360000D03*
X21810000Y74820000D03*
X21810000Y72280000D03*
X14190000Y72280000D03*
X14190000Y74820000D03*
X14190000Y77360000D03*
X14190000Y79900000D03*
X14190000Y82440000D03*
X14190000Y84980000D03*
X14190000Y87520000D03*
D19*
X1250000Y87350000D03*
D20*
X1250000Y89890000D03*
D19*
X1250000Y84810000D03*
X1250000Y82270000D03*
X1250000Y79730000D03*
X1250000Y77190000D03*
X1250000Y74650000D03*
X1250000Y72110000D03*
X57750000Y31350000D03*
D20*
X57750000Y33890000D03*
D19*
X57750000Y28810000D03*
X57750000Y26270000D03*
X57750000Y23730000D03*
X57750000Y21190000D03*
X57750000Y18650000D03*
X57750000Y16110000D03*
X57750000Y72110000D03*
X57750000Y74650000D03*
X57750000Y77190000D03*
X57750000Y79730000D03*
X57750000Y82270000D03*
X57750000Y84810000D03*
D20*
X57750000Y89890000D03*
D19*
X57750000Y87350000D03*
X1250000Y16110000D03*
X1250000Y18650000D03*
X1250000Y21190000D03*
X1250000Y23730000D03*
X1250000Y26270000D03*
X1250000Y28810000D03*
D20*
X1250000Y33890000D03*
D19*
X1250000Y31350000D03*
D12*
X17900000Y7560000D03*
X17900000Y12640000D03*
D19*
X15700000Y17700000D03*
X55000000Y79700000D03*
X55000000Y74700000D03*
X2700000Y42600000D03*
X10300000Y42600000D03*
D12*
X48960000Y89400000D03*
X54040000Y89400000D03*
D17*
X39310000Y38610000D03*
D18*
X39310000Y36070000D03*
X39310000Y33530000D03*
X39310000Y30990000D03*
X31690000Y30990000D03*
X31690000Y33530000D03*
X31690000Y36070000D03*
X31690000Y38610000D03*
D19*
X17600000Y34200000D03*
X20100000Y29200000D03*
X15100000Y29200000D03*
D14*
X17600000Y31700000D03*
D19*
X7700000Y65700000D03*
X5200000Y70700000D03*
X10200000Y70700000D03*
D14*
X7700000Y68200000D03*
D19*
X23100000Y57300000D03*
X20600000Y62300000D03*
X25600000Y62300000D03*
D14*
X23100000Y59800000D03*
M02*
