M48
;DRILL file {KiCad (5.0.0-rc2-dev)} date Thu Jun 18 08:20:39 2020
;FORMAT={-:-/ absolute / inch / decimal}
FMAT,2
INCH,TZ
T1C0.0197
T2C0.0276
T3C0.0315
T4C0.0354
T5C0.0394
T6C0.0630
%
G90
G05
M72
T1
X0.0354Y1.4016
X0.0433Y2.2795
X0.0512Y2.6496
X0.0591Y3.689
X0.0945Y1.5039
X0.1614Y0.8898
X0.1969Y2.248
X0.2165Y3.2913
X0.2165Y0.9843
X0.2205Y1.5039
X0.2205Y1.4134
X0.2717Y0.7638
X0.2756Y0.0394
X0.2835Y0.874
X0.2953Y0.9843
X0.3228Y1.6772
X0.3307Y2.0118
X0.3307Y1.8819
X0.3425Y1.4055
X0.3465Y1.5079
X0.3465Y1.2717
X0.3622Y2.5197
X0.3622Y0.6654
X0.3701Y3.126
X0.3937Y1.2323
X0.4055Y0.9646
X0.4055Y0.6535
X0.4094Y0.3228
X0.4173Y0.0906
X0.4213Y1.7441
X0.437Y1.1496
X0.4409Y2.622
X0.4488Y1.0512
X0.4528Y0.4449
X0.4606Y1.4016
X0.4606Y0.7559
X0.4685Y1.6417
X0.4724Y2.8465
X0.4724Y1.5079
X0.4882Y1.189
X0.5079Y3.6339
X0.5118Y2.7087
X0.5236Y2.0787
X0.5236Y1.3386
X0.5394Y2.3622
X0.6024Y2.7795
X0.6024Y0.8307
X0.6142Y2.252
X0.6142Y0.2441
X0.6181Y0.5157
X0.6496Y3.0709
X0.6811Y0.0472
X0.689Y3.5079
X0.689Y2.6654
X0.6969Y2.8307
X0.7087Y3.2047
X0.7087Y2.9488
X0.748Y0.6811
X0.7638Y0.4528
X0.7638Y0.0984
X0.7717Y0.3858
X0.7953Y0.5394
X0.8071Y2.9961
X0.8425Y0.7717
X0.8425Y0.5591
X0.8583Y3.5394
X0.8937Y2.1654
X0.9016Y0.7717
X0.9055Y1.1339
X0.9291Y2.8976
X0.9291Y0.0945
X0.9331Y1.6969
X0.9449Y3.3504
X0.9567Y1.4094
X0.9646Y0.6496
X0.9724Y1.6457
X1.0276Y3.6693
X1.0276Y2.7992
X1.0315Y3.1378
X1.0512Y1.1496
X1.063Y0.8819
X1.0669Y0.9961
X1.0787Y2.437
X1.1024Y0.0354
X1.1142Y1.6299
X1.1181Y2.2126
X1.1339Y2.126
X1.1378Y3.063
X1.1654Y2.6339
X1.1732Y3.5472
X1.185Y1.4606
X1.1969Y2.2441
X1.1969Y2.0787
X1.2362Y0.7205
X1.2402Y1.
X1.2402Y0.8622
X1.252Y2.4409
X1.2559Y3.0157
X1.2835Y2.8346
X1.3307Y1.5827
X1.3346Y0.3307
X1.3386Y1.4685
X1.3386Y1.0118
X1.3504Y3.0394
X1.3504Y0.5945
X1.3583Y2.2638
X1.3583Y0.7047
X1.3701Y0.0945
X1.3819Y1.2165
X1.4094Y2.1772
X1.4094Y1.6299
X1.4094Y1.4016
X1.4646Y2.9606
X1.4843Y3.1772
X1.4843Y1.5787
X1.4961Y2.6457
X1.4961Y0.6929
X1.5Y1.1575
X1.5276Y0.1929
X1.5354Y0.3386
X1.5394Y0.4488
X1.5433Y3.4724
X1.5433Y0.8701
X1.5433Y0.7953
X1.5512Y3.6693
X1.5512Y2.4213
X1.5551Y3.3386
X1.5827Y0.6614
X1.6102Y1.4685
X1.622Y0.7165
X1.6339Y2.9094
X1.6417Y0.4488
X1.6457Y0.0945
X1.6496Y2.3346
X1.6496Y1.4055
X1.6535Y1.0276
X1.6614Y0.2008
X1.6693Y0.5906
X1.6929Y1.3346
X1.7717Y2.2913
X1.7717Y0.8819
X1.8189Y0.7795
X1.8701Y2.8386
X1.8819Y2.5669
X1.8858Y3.4016
X1.8898Y3.122
X1.9252Y2.4409
X1.9409Y3.6693
X1.9409Y1.0512
X1.9606Y3.2756
X1.9606Y1.3976
X1.9646Y1.6654
X1.9724Y1.2717
X1.9764Y2.6142
X1.9921Y3.4961
X2.0157Y1.4764
X2.0197Y3.1378
X2.0197Y0.7008
X2.0197Y0.0433
X2.0433Y0.1811
X2.0512Y2.1929
X2.0669Y1.2362
X2.0866Y2.437
X2.0866Y0.315
X2.0984Y1.6929
X2.1024Y3.4685
X2.1024Y3.2835
X2.1063Y2.6417
X2.1063Y2.5945
X2.1063Y1.1339
X2.1142Y1.4094
X2.1378Y0.8976
X2.1457Y3.437
X2.1496Y3.2283
X2.1654Y1.0118
X2.2008Y2.5945
X2.2047Y1.6614
X2.2165Y2.6969
X2.2244Y0.5236
X2.2362Y2.6417
X2.2677Y0.2835
X2.2756Y2.3543
X2.2756Y1.937
X2.2795Y3.6614
X2.2795Y1.4094
T2
X1.8173Y3.3425
X1.9173Y3.3425
X2.0173Y3.3425
X0.3031Y2.5055
X0.3031Y2.3055
X1.1339Y1.5213
X1.1339Y1.3213
X1.164Y1.8937
X1.214Y1.9437
X1.214Y1.8437
X0.3094Y3.5433
X0.5094Y3.5433
X1.837Y0.4409
X2.037Y0.4409
X0.622Y0.5961
X0.622Y0.3961
X1.3175Y1.8937
X1.3675Y1.9437
X1.3675Y1.8437
X1.9276Y3.5197
X2.1276Y3.5197
X1.8425Y0.8402
X1.8425Y0.6402
X0.4331Y3.3441
X0.4331Y3.1441
X1.3346Y0.4386
X1.3346Y0.2386
X1.5065Y1.9437
X1.5065Y1.8437
X1.5565Y1.8937
X1.2543Y1.122
X1.4543Y1.122
X1.8215Y1.9437
X1.8215Y1.8437
X1.8715Y1.8937
X1.66Y1.9437
X1.66Y1.8437
X1.71Y1.8937
X2.1114Y1.761
X2.1614Y1.811
X2.1614Y1.711
X0.1087Y2.1575
X0.3087Y2.1575
X0.7047Y0.4976
X0.7047Y0.2976
X1.4591Y2.0315
X1.6591Y2.0315
X0.0945Y0.2693
X0.0945Y0.0693
X2.0787Y0.7575
X2.0787Y0.5575
X1.5457Y1.122
X1.7457Y1.122
X1.0614Y0.4409
X1.2614Y0.4409
X0.8094Y2.1575
X1.0094Y2.1575
T3
X0.1063Y1.6772
X0.4055Y1.6772
X1.6575Y1.5197
X1.6575Y1.2205
X0.7717Y0.5984
X1.0709Y0.5984
X0.7717Y0.7402
X1.0709Y0.7402
X1.4843Y1.7402
X1.7835Y1.7402
X1.248Y1.6181
X1.5472Y1.6181
T4
X1.2476Y1.5201
X1.2476Y1.4201
X1.2476Y1.3201
X1.2476Y1.2201
X1.5476Y1.5201
X1.5476Y1.4201
X1.5476Y1.3201
X1.5476Y1.2201
X0.9803Y3.1811
X0.8228Y1.7126
X0.2161Y0.6976
X0.2161Y0.5976
X0.2161Y0.4976
X0.2161Y0.3976
X0.2161Y0.2976
X0.2161Y0.1976
X0.2161Y0.0976
X0.5161Y0.6976
X0.5161Y0.5976
X0.5161Y0.4976
X0.5161Y0.3976
X0.5161Y0.2976
X0.5161Y0.1976
X0.5161Y0.0976
X0.622Y0.0984
X2.1654Y2.9409
X1.0177Y0.937
X1.1161Y0.937
X0.9803Y2.8504
X0.4051Y2.4575
X0.4051Y2.3575
X0.4051Y2.2575
X0.4051Y2.1575
X0.4051Y2.0575
X0.4051Y1.9575
X0.4051Y1.8575
X0.7051Y2.4575
X0.7051Y2.3575
X0.7051Y2.2575
X0.7051Y2.1575
X0.7051Y2.0575
X0.7051Y1.9575
X0.7051Y1.8575
X0.6181Y0.6969
X1.3406Y0.937
X1.439Y0.937
X2.0138Y1.063
X2.1122Y1.063
X2.0138Y1.3346
X2.1122Y1.3346
X1.4366Y0.7409
X1.4366Y0.6409
X1.4366Y0.5409
X1.4366Y0.4409
X1.4366Y0.3409
X1.4366Y0.2409
X1.4366Y0.1409
X1.7366Y0.7409
X1.7366Y0.6409
X1.7366Y0.5409
X1.7366Y0.4409
X1.7366Y0.3409
X1.7366Y0.2409
X1.7366Y0.1409
X0.8228Y2.0551
X1.6043Y0.937
X1.7028Y0.937
X0.5587Y3.4457
X0.5587Y3.3457
X0.5587Y3.2457
X0.5587Y3.1457
X0.5587Y3.0457
X0.5587Y2.9457
X0.5587Y2.8457
X0.8587Y3.4457
X0.8587Y3.3457
X0.8587Y3.2457
X0.8587Y3.1457
X0.8587Y3.0457
X0.8587Y2.9457
X0.8587Y2.8457
X2.1575Y0.3563
X2.1575Y0.2579
X0.3622Y1.7559
X2.1654Y3.1378
T5
X1.0118Y3.5276
X1.0118Y3.4094
X1.8583Y0.2362
X1.8583Y0.1181
X1.1339Y0.3386
X1.1339Y0.2205
X0.9409Y1.9409
X1.0591Y1.9409
X1.1299Y3.4094
X1.248Y3.4094
X0.1496Y1.937
X0.2677Y1.937
X0.7717Y1.5709
X0.7717Y1.4528
X1.0118Y3.2953
X1.1299Y3.2953
X1.8583Y0.5394
X1.9764Y0.5394
X0.0492Y1.3343
X0.0492Y1.2343
X0.0492Y1.1343
X0.0492Y1.0343
X0.0492Y0.9343
X0.0492Y0.8343
X0.0492Y0.7343
X0.0492Y0.6343
X2.0433Y1.9134
X2.1614Y1.9134
X1.248Y3.5197
X1.3661Y3.5197
X0.2047Y2.4449
X0.2047Y2.3268
X0.311Y3.0472
X0.311Y2.9291
X0.8898Y0.2205
X1.0079Y0.2205
X2.0197Y1.6024
X2.1378Y1.6024
X1.1772Y0.7756
X1.1772Y0.6575
X2.0433Y2.0315
X2.1614Y2.0315
X0.6496Y1.5709
X0.6496Y1.4528
X0.5945Y1.1496
X0.6929Y1.3465
X0.7913Y1.1496
X0.8504Y1.0079
X0.8504Y0.8898
X1.248Y0.2205
X1.248Y0.1024
X1.9016Y1.7244
X2.0197Y1.7244
X0.8898Y0.3386
X1.0079Y0.3386
X0.5276Y1.5709
X0.5276Y1.4528
X1.2913Y0.7756
X1.2913Y0.6575
X1.0157Y1.5709
X1.0157Y1.4528
X1.1772Y0.5394
X1.2953Y0.5394
X1.248Y3.2953
X1.3661Y3.2953
X0.1614Y1.5709
X0.1614Y1.4528
X0.8976Y1.3386
X1.0157Y1.3386
X1.7677Y1.5276
X1.7677Y1.4094
X0.2047Y2.7835
X0.3031Y2.5866
X0.4016Y2.7835
X0.2165Y0.8189
X0.3346Y0.8189
X0.4331Y3.0472
X0.4331Y2.9291
X2.0866Y0.1063
X2.2047Y0.1063
X0.811Y2.4528
X0.9094Y2.2559
X1.0079Y2.4528
X0.0492Y3.539
X0.0492Y3.439
X0.0492Y3.339
X0.0492Y3.239
X0.0492Y3.139
X0.0492Y3.039
X0.0492Y2.939
X0.0492Y2.839
X1.9449Y0.8819
X2.063Y0.8819
X0.878Y2.5984
X0.9961Y2.5984
X1.0157Y1.7008
X1.1339Y1.7008
X0.2835Y1.5709
X0.2835Y1.4528
X0.7677Y2.7165
X0.7677Y2.5984
X0.8228Y1.9409
X0.8228Y1.8228
X2.2736Y3.539
X2.2736Y3.439
X2.2736Y3.339
X2.2736Y3.239
X2.2736Y3.139
X2.2736Y3.039
X2.2736Y2.939
X2.2736Y2.839
X1.2402Y1.7441
X1.3583Y1.7441
X0.4055Y1.5709
X0.4055Y1.4528
X0.2008Y3.0472
X0.2008Y2.9291
X2.2736Y1.3343
X2.2736Y1.2343
X2.2736Y1.1343
X2.2736Y1.0343
X2.2736Y0.9343
X2.2736Y0.8343
X2.2736Y0.7343
X2.2736Y0.6343
X1.3661Y3.4094
X1.4843Y3.4094
X0.9409Y1.8228
X1.0591Y1.8228
X0.1496Y1.8189
X0.2677Y1.8189
X1.1339Y1.2205
X1.1339Y1.1024
X0.311Y3.3031
X0.311Y3.185
X0.4961Y2.5748
X0.6142Y2.5748
X1.9764Y0.2362
X1.9764Y0.1181
X0.9409Y2.0551
X1.0591Y2.0551
X0.4921Y1.7402
X0.6102Y1.7402
X0.1496Y2.0591
X0.2677Y2.0591
X1.4843Y3.5197
X1.6024Y3.5197
X0.8976Y1.2205
X1.0157Y1.2205
X0.878Y2.7205
X0.9961Y2.7205
X1.0157Y0.1024
X1.1339Y0.1024
X1.8819Y1.5276
X1.8819Y1.4094
X0.6181Y0.8976
X0.7362Y0.8976
X0.0945Y0.5
X0.0945Y0.3819
X1.9449Y0.7598
X1.9449Y0.6417
X0.9803Y3.0827
X0.9803Y2.9646
X1.7126Y3.5197
X1.8307Y3.5197
X0.6181Y1.0079
X0.7362Y1.0079
X0.8937Y1.5709
X0.8937Y1.4528
X1.6575Y1.6378
X1.7756Y1.6378
X1.8425Y1.0551
X1.8425Y0.937
X0.311Y3.4449
X0.4291Y3.4449
X1.7795Y2.0315
X1.8976Y2.0315
X1.8583Y0.3425
X1.9764Y0.3425
T6
X1.192Y2.7509
X1.192Y2.5247
X1.3052Y2.9468
X1.3052Y2.3288
X1.5011Y3.0599
X1.5011Y2.2157
X1.507Y2.745
X1.507Y2.5306
X1.7213Y2.745
X1.7213Y2.5306
X1.7273Y3.0599
X1.7273Y2.2157
X1.9232Y2.9468
X1.9232Y2.3288
X2.0363Y2.7509
X2.0363Y2.5247
T0
M30
