G04 #@! TF.GenerationSoftware,KiCad,Pcbnew,(5.0.0-rc2-dev)*
G04 #@! TF.CreationDate,2020-06-18T08:05:50+03:00*
G04 #@! TF.ProjectId,DIYVCO3C,44495956434F33432E6B696361645F70,rev?*
G04 #@! TF.SameCoordinates,PX1c9c380PY81b3200*
G04 #@! TF.FileFunction,Legend,Bot*
G04 #@! TF.FilePolarity,Positive*
%FSLAX46Y46*%
G04 Gerber Fmt 4.6, Leading zero omitted, Abs format (unit mm)*
G04 Created by KiCad (PCBNEW (5.0.0-rc2-dev)) date Thu Jun 18 08:05:50 2020*
%MOMM*%
%LPD*%
G01*
G04 APERTURE LIST*
%ADD10C,0.300000*%
%ADD11C,1.000000*%
%ADD12C,0.100000*%
%ADD13C,0.200000*%
G04 APERTURE END LIST*
D10*
X45435714Y76995239D02*
X45435714Y78995239D01*
X45078571Y78995239D01*
X44864285Y78900000D01*
X44721428Y78709524D01*
X44650000Y78519048D01*
X44578571Y78138096D01*
X44578571Y77852381D01*
X44650000Y77471429D01*
X44721428Y77280953D01*
X44864285Y77090477D01*
X45078571Y76995239D01*
X45435714Y76995239D01*
X43935714Y76995239D02*
X43935714Y78995239D01*
X42935714Y77947620D02*
X42935714Y76995239D01*
X43435714Y78995239D02*
X42935714Y77947620D01*
X42435714Y78995239D01*
X42150000Y78995239D02*
X41650000Y76995239D01*
X41150000Y78995239D01*
X39792857Y77185715D02*
X39864285Y77090477D01*
X40078571Y76995239D01*
X40221428Y76995239D01*
X40435714Y77090477D01*
X40578571Y77280953D01*
X40650000Y77471429D01*
X40721428Y77852381D01*
X40721428Y78138096D01*
X40650000Y78519048D01*
X40578571Y78709524D01*
X40435714Y78900000D01*
X40221428Y78995239D01*
X40078571Y78995239D01*
X39864285Y78900000D01*
X39792857Y78804762D01*
X38864285Y78995239D02*
X38578571Y78995239D01*
X38435714Y78900000D01*
X38292857Y78709524D01*
X38221428Y78328572D01*
X38221428Y77661905D01*
X38292857Y77280953D01*
X38435714Y77090477D01*
X38578571Y76995239D01*
X38864285Y76995239D01*
X39007142Y77090477D01*
X39150000Y77280953D01*
X39221428Y77661905D01*
X39221428Y78328572D01*
X39150000Y78709524D01*
X39007142Y78900000D01*
X38864285Y78995239D01*
X37721428Y78995239D02*
X36792857Y78995239D01*
X37292857Y78233334D01*
X37078571Y78233334D01*
X36935714Y78138096D01*
X36864285Y78042858D01*
X36792857Y77852381D01*
X36792857Y77376191D01*
X36864285Y77185715D01*
X36935714Y77090477D01*
X37078571Y76995239D01*
X37507142Y76995239D01*
X37650000Y77090477D01*
X37721428Y77185715D01*
X35292857Y77185715D02*
X35364285Y77090477D01*
X35578571Y76995239D01*
X35721428Y76995239D01*
X35935714Y77090477D01*
X36078571Y77280953D01*
X36150000Y77471429D01*
X36221428Y77852381D01*
X36221428Y78138096D01*
X36150000Y78519048D01*
X36078571Y78709524D01*
X35935714Y78900000D01*
X35721428Y78995239D01*
X35578571Y78995239D01*
X35364285Y78900000D01*
X35292857Y78804762D01*
D11*
X18500000Y90250000D02*
X55500000Y90250000D01*
X10500000Y90250000D02*
X11500000Y90250000D01*
X3500000Y90250000D02*
X7500000Y90250000D01*
D12*
X23550000Y63950000D02*
X23416666Y63483334D01*
X23283333Y63816667D01*
X23150000Y63483334D01*
X23016666Y63950000D01*
X22816666Y63950000D02*
X22683333Y63483334D01*
X22550000Y63816667D01*
X22416666Y63483334D01*
X22283333Y63950000D01*
X22083333Y63950000D02*
X21950000Y63483334D01*
X21816666Y63816667D01*
X21683333Y63483334D01*
X21550000Y63950000D01*
X21283333Y63550000D02*
X21250000Y63516667D01*
X21283333Y63483334D01*
X21316666Y63516667D01*
X21283333Y63550000D01*
X21283333Y63483334D01*
X20683333Y63516667D02*
X20750000Y63483334D01*
X20883333Y63483334D01*
X20950000Y63516667D01*
X20983333Y63583334D01*
X20983333Y63850000D01*
X20950000Y63916667D01*
X20883333Y63950000D01*
X20750000Y63950000D01*
X20683333Y63916667D01*
X20650000Y63850000D01*
X20650000Y63783334D01*
X20983333Y63716667D01*
X20350000Y63483334D02*
X20350000Y63950000D01*
X20350000Y63816667D02*
X20316666Y63883334D01*
X20283333Y63916667D01*
X20216666Y63950000D01*
X20150000Y63950000D01*
X19916666Y63483334D02*
X19916666Y63950000D01*
X19916666Y64183334D02*
X19950000Y64150000D01*
X19916666Y64116667D01*
X19883333Y64150000D01*
X19916666Y64183334D01*
X19916666Y64116667D01*
X19283333Y63516667D02*
X19350000Y63483334D01*
X19483333Y63483334D01*
X19550000Y63516667D01*
X19583333Y63550000D01*
X19616666Y63616667D01*
X19616666Y63816667D01*
X19583333Y63883334D01*
X19550000Y63916667D01*
X19483333Y63950000D01*
X19350000Y63950000D01*
X19283333Y63916667D01*
X18683333Y63483334D02*
X18683333Y63850000D01*
X18716666Y63916667D01*
X18783333Y63950000D01*
X18916666Y63950000D01*
X18983333Y63916667D01*
X18683333Y63516667D02*
X18750000Y63483334D01*
X18916666Y63483334D01*
X18983333Y63516667D01*
X19016666Y63583334D01*
X19016666Y63650000D01*
X18983333Y63716667D01*
X18916666Y63750000D01*
X18750000Y63750000D01*
X18683333Y63783334D01*
X18383333Y63516667D02*
X18316666Y63483334D01*
X18183333Y63483334D01*
X18116666Y63516667D01*
X18083333Y63583334D01*
X18083333Y63616667D01*
X18116666Y63683334D01*
X18183333Y63716667D01*
X18283333Y63716667D01*
X18350000Y63750000D01*
X18383333Y63816667D01*
X18383333Y63850000D01*
X18350000Y63916667D01*
X18283333Y63950000D01*
X18183333Y63950000D01*
X18116666Y63916667D01*
X17850000Y63950000D02*
X17683333Y63483334D01*
X17516666Y63950000D02*
X17683333Y63483334D01*
X17750000Y63316667D01*
X17783333Y63283334D01*
X17850000Y63250000D01*
X17250000Y63950000D02*
X17250000Y63483334D01*
X17250000Y63883334D02*
X17216666Y63916667D01*
X17150000Y63950000D01*
X17050000Y63950000D01*
X16983333Y63916667D01*
X16950000Y63850000D01*
X16950000Y63483334D01*
X16716666Y63950000D02*
X16450000Y63950000D01*
X16616666Y64183334D02*
X16616666Y63583334D01*
X16583333Y63516667D01*
X16516666Y63483334D01*
X16450000Y63483334D01*
X16216666Y63483334D02*
X16216666Y64183334D01*
X15916666Y63483334D02*
X15916666Y63850000D01*
X15950000Y63916667D01*
X16016666Y63950000D01*
X16116666Y63950000D01*
X16183333Y63916667D01*
X16216666Y63883334D01*
X15616666Y63516667D02*
X15550000Y63483334D01*
X15416666Y63483334D01*
X15350000Y63516667D01*
X15316666Y63583334D01*
X15316666Y63616667D01*
X15350000Y63683334D01*
X15416666Y63716667D01*
X15516666Y63716667D01*
X15583333Y63750000D01*
X15616666Y63816667D01*
X15616666Y63850000D01*
X15583333Y63916667D01*
X15516666Y63950000D01*
X15416666Y63950000D01*
X15350000Y63916667D01*
X15016666Y63550000D02*
X14983333Y63516667D01*
X15016666Y63483334D01*
X15050000Y63516667D01*
X15016666Y63550000D01*
X15016666Y63483334D01*
X14583333Y63483334D02*
X14650000Y63516667D01*
X14683333Y63583334D01*
X14683333Y64183334D01*
X14383333Y63950000D02*
X14216666Y63483334D01*
X14050000Y63950000D01*
X57500000Y35483334D02*
X57900000Y35483334D01*
X57700000Y35483334D02*
X57700000Y36183334D01*
X57766666Y36083334D01*
X57833333Y36016667D01*
X57900000Y35983334D01*
X1000000Y35583334D02*
X1400000Y35583334D01*
X1200000Y35583334D02*
X1200000Y36283334D01*
X1266666Y36183334D01*
X1333333Y36116667D01*
X1400000Y36083334D01*
X1000000Y91483334D02*
X1400000Y91483334D01*
X1200000Y91483334D02*
X1200000Y92183334D01*
X1266666Y92083334D01*
X1333333Y92016667D01*
X1400000Y91983334D01*
X57500000Y91483334D02*
X57900000Y91483334D01*
X57700000Y91483334D02*
X57700000Y92183334D01*
X57766666Y92083334D01*
X57833333Y92016667D01*
X57900000Y91983334D01*
D13*
X25614285Y97992858D02*
X24700000Y97992858D01*
X23500000Y97421429D02*
X24185714Y97421429D01*
X23842857Y97421429D02*
X23842857Y98921429D01*
X23957142Y98707143D01*
X24071428Y98564286D01*
X24185714Y98492858D01*
X23042857Y98778572D02*
X22985714Y98850000D01*
X22871428Y98921429D01*
X22585714Y98921429D01*
X22471428Y98850000D01*
X22414285Y98778572D01*
X22357142Y98635715D01*
X22357142Y98492858D01*
X22414285Y98278572D01*
X23100000Y97421429D01*
X22357142Y97421429D01*
X22014285Y98921429D02*
X21614285Y97421429D01*
X21214285Y98921429D01*
X5314285Y95292858D02*
X4400000Y95292858D01*
X4857142Y94721429D02*
X4857142Y95864286D01*
X3200000Y94721429D02*
X3885714Y94721429D01*
X3542857Y94721429D02*
X3542857Y96221429D01*
X3657142Y96007143D01*
X3771428Y95864286D01*
X3885714Y95792858D01*
X2742857Y96078572D02*
X2685714Y96150000D01*
X2571428Y96221429D01*
X2285714Y96221429D01*
X2171428Y96150000D01*
X2114285Y96078572D01*
X2057142Y95935715D01*
X2057142Y95792858D01*
X2114285Y95578572D01*
X2800000Y94721429D01*
X2057142Y94721429D01*
X1714285Y96221429D02*
X1314285Y94721429D01*
X914285Y96221429D01*
X23809523Y66221429D02*
X23571428Y65221429D01*
X23333333Y66221429D01*
X23047619Y66721429D02*
X22428571Y66721429D01*
X22761904Y66150000D01*
X22619047Y66150000D01*
X22523809Y66078572D01*
X22476190Y66007143D01*
X22428571Y65864286D01*
X22428571Y65507143D01*
X22476190Y65364286D01*
X22523809Y65292858D01*
X22619047Y65221429D01*
X22904761Y65221429D01*
X23000000Y65292858D01*
X23047619Y65364286D01*
X22000000Y65364286D02*
X21952380Y65292858D01*
X22000000Y65221429D01*
X22047619Y65292858D01*
X22000000Y65364286D01*
X22000000Y65221429D01*
X21333333Y66721429D02*
X21238095Y66721429D01*
X21142857Y66650000D01*
X21095238Y66578572D01*
X21047619Y66435715D01*
X21000000Y66150000D01*
X21000000Y65792858D01*
X21047619Y65507143D01*
X21095238Y65364286D01*
X21142857Y65292858D01*
X21238095Y65221429D01*
X21333333Y65221429D01*
X21428571Y65292858D01*
X21476190Y65364286D01*
X21523809Y65507143D01*
X21571428Y65792858D01*
X21571428Y66150000D01*
X21523809Y66435715D01*
X21476190Y66578572D01*
X21428571Y66650000D01*
X21333333Y66721429D01*
X19523809Y66721429D02*
X19523809Y65650000D01*
X19571428Y65435715D01*
X19666666Y65292858D01*
X19809523Y65221429D01*
X19904761Y65221429D01*
X18619047Y66221429D02*
X18619047Y65221429D01*
X19047619Y66221429D02*
X19047619Y65435715D01*
X19000000Y65292858D01*
X18904761Y65221429D01*
X18761904Y65221429D01*
X18666666Y65292858D01*
X18619047Y65364286D01*
X18142857Y66221429D02*
X18142857Y65221429D01*
X18142857Y66078572D02*
X18095238Y66150000D01*
X18000000Y66221429D01*
X17857142Y66221429D01*
X17761904Y66150000D01*
X17714285Y66007143D01*
X17714285Y65221429D01*
X16857142Y65292858D02*
X16952380Y65221429D01*
X17142857Y65221429D01*
X17238095Y65292858D01*
X17285714Y65435715D01*
X17285714Y66007143D01*
X17238095Y66150000D01*
X17142857Y66221429D01*
X16952380Y66221429D01*
X16857142Y66150000D01*
X16809523Y66007143D01*
X16809523Y65864286D01*
X17285714Y65721429D01*
X15666666Y66578572D02*
X15619047Y66650000D01*
X15523809Y66721429D01*
X15285714Y66721429D01*
X15190476Y66650000D01*
X15142857Y66578572D01*
X15095238Y66435715D01*
X15095238Y66292858D01*
X15142857Y66078572D01*
X15714285Y65221429D01*
X15095238Y65221429D01*
X14476190Y66721429D02*
X14380952Y66721429D01*
X14285714Y66650000D01*
X14238095Y66578572D01*
X14190476Y66435715D01*
X14142857Y66150000D01*
X14142857Y65792858D01*
X14190476Y65507143D01*
X14238095Y65364286D01*
X14285714Y65292858D01*
X14380952Y65221429D01*
X14476190Y65221429D01*
X14571428Y65292858D01*
X14619047Y65364286D01*
X14666666Y65507143D01*
X14714285Y65792858D01*
X14714285Y66150000D01*
X14666666Y66435715D01*
X14619047Y66578572D01*
X14571428Y66650000D01*
X14476190Y66721429D01*
X13761904Y66578572D02*
X13714285Y66650000D01*
X13619047Y66721429D01*
X13380952Y66721429D01*
X13285714Y66650000D01*
X13238095Y66578572D01*
X13190476Y66435715D01*
X13190476Y66292858D01*
X13238095Y66078572D01*
X13809523Y65221429D01*
X13190476Y65221429D01*
X12571428Y66721429D02*
X12476190Y66721429D01*
X12380952Y66650000D01*
X12333333Y66578572D01*
X12285714Y66435715D01*
X12238095Y66150000D01*
X12238095Y65792858D01*
X12285714Y65507143D01*
X12333333Y65364286D01*
X12380952Y65292858D01*
X12476190Y65221429D01*
X12571428Y65221429D01*
X12666666Y65292858D01*
X12714285Y65364286D01*
X12761904Y65507143D01*
X12809523Y65792858D01*
X12809523Y66150000D01*
X12761904Y66435715D01*
X12714285Y66578572D01*
X12666666Y66650000D01*
X12571428Y66721429D01*
X29033333Y68207143D02*
X28700000Y68207143D01*
X28557142Y67421429D02*
X29033333Y67421429D01*
X29033333Y68921429D01*
X28557142Y68921429D01*
X28128571Y67421429D02*
X28128571Y68421429D01*
X28128571Y68135715D02*
X28080952Y68278572D01*
X28033333Y68350000D01*
X27938095Y68421429D01*
X27842857Y68421429D01*
X27509523Y67421429D02*
X27509523Y68421429D01*
X27509523Y68921429D02*
X27557142Y68850000D01*
X27509523Y68778572D01*
X27461904Y68850000D01*
X27509523Y68921429D01*
X27509523Y68778572D01*
X26604761Y67492858D02*
X26700000Y67421429D01*
X26890476Y67421429D01*
X26985714Y67492858D01*
X27033333Y67564286D01*
X27080952Y67707143D01*
X27080952Y68135715D01*
X27033333Y68278572D01*
X26985714Y68350000D01*
X26890476Y68421429D01*
X26700000Y68421429D01*
X26604761Y68350000D01*
X25747619Y67421429D02*
X25747619Y68207143D01*
X25795238Y68350000D01*
X25890476Y68421429D01*
X26080952Y68421429D01*
X26176190Y68350000D01*
X25747619Y67492858D02*
X25842857Y67421429D01*
X26080952Y67421429D01*
X26176190Y67492858D01*
X26223809Y67635715D01*
X26223809Y67778572D01*
X26176190Y67921429D01*
X26080952Y67992858D01*
X25842857Y67992858D01*
X25747619Y68064286D01*
X24557142Y67492858D02*
X24414285Y67421429D01*
X24176190Y67421429D01*
X24080952Y67492858D01*
X24033333Y67564286D01*
X23985714Y67707143D01*
X23985714Y67850000D01*
X24033333Y67992858D01*
X24080952Y68064286D01*
X24176190Y68135715D01*
X24366666Y68207143D01*
X24461904Y68278572D01*
X24509523Y68350000D01*
X24557142Y68492858D01*
X24557142Y68635715D01*
X24509523Y68778572D01*
X24461904Y68850000D01*
X24366666Y68921429D01*
X24128571Y68921429D01*
X23985714Y68850000D01*
X23652380Y68421429D02*
X23414285Y67421429D01*
X23176190Y68421429D02*
X23414285Y67421429D01*
X23509523Y67064286D01*
X23557142Y66992858D01*
X23652380Y66921429D01*
X22795238Y68421429D02*
X22795238Y67421429D01*
X22795238Y68278572D02*
X22747619Y68350000D01*
X22652380Y68421429D01*
X22509523Y68421429D01*
X22414285Y68350000D01*
X22366666Y68207143D01*
X22366666Y67421429D01*
X22033333Y68421429D02*
X21652380Y68421429D01*
X21890476Y68921429D02*
X21890476Y67635715D01*
X21842857Y67492858D01*
X21747619Y67421429D01*
X21652380Y67421429D01*
X21319047Y67421429D02*
X21319047Y68921429D01*
X20890476Y67421429D02*
X20890476Y68207143D01*
X20938095Y68350000D01*
X21033333Y68421429D01*
X21176190Y68421429D01*
X21271428Y68350000D01*
X21319047Y68278572D01*
X20461904Y67492858D02*
X20366666Y67421429D01*
X20176190Y67421429D01*
X20080952Y67492858D01*
X20033333Y67635715D01*
X20033333Y67707143D01*
X20080952Y67850000D01*
X20176190Y67921429D01*
X20319047Y67921429D01*
X20414285Y67992858D01*
X20461904Y68135715D01*
X20461904Y68207143D01*
X20414285Y68350000D01*
X20319047Y68421429D01*
X20176190Y68421429D01*
X20080952Y68350000D01*
X18842857Y67421429D02*
X18842857Y68921429D01*
X18604761Y68921429D01*
X18461904Y68850000D01*
X18366666Y68707143D01*
X18319047Y68564286D01*
X18271428Y68278572D01*
X18271428Y68064286D01*
X18319047Y67778572D01*
X18366666Y67635715D01*
X18461904Y67492858D01*
X18604761Y67421429D01*
X18842857Y67421429D01*
X17842857Y67421429D02*
X17842857Y68921429D01*
X17176190Y68135715D02*
X17176190Y67421429D01*
X17509523Y68921429D02*
X17176190Y68135715D01*
X16842857Y68921429D01*
X15747619Y67421429D02*
X15747619Y68921429D01*
X15366666Y68921429D01*
X15271428Y68850000D01*
X15223809Y68778572D01*
X15176190Y68635715D01*
X15176190Y68421429D01*
X15223809Y68278572D01*
X15271428Y68207143D01*
X15366666Y68135715D01*
X15747619Y68135715D01*
X14604761Y67421429D02*
X14700000Y67492858D01*
X14747619Y67564286D01*
X14795238Y67707143D01*
X14795238Y68135715D01*
X14747619Y68278572D01*
X14700000Y68350000D01*
X14604761Y68421429D01*
X14461904Y68421429D01*
X14366666Y68350000D01*
X14319047Y68278572D01*
X14271428Y68135715D01*
X14271428Y67707143D01*
X14319047Y67564286D01*
X14366666Y67492858D01*
X14461904Y67421429D01*
X14604761Y67421429D01*
X13700000Y67421429D02*
X13795238Y67492858D01*
X13842857Y67635715D01*
X13842857Y68921429D01*
X13319047Y67421429D02*
X13319047Y68421429D01*
X13319047Y68921429D02*
X13366666Y68850000D01*
X13319047Y68778572D01*
X13271428Y68850000D01*
X13319047Y68921429D01*
X13319047Y68778572D01*
X12938095Y68421429D02*
X12700000Y67421429D01*
X12461904Y68421429D01*
X11938095Y67421429D02*
X12033333Y67492858D01*
X12080952Y67564286D01*
X12128571Y67707143D01*
X12128571Y68135715D01*
X12080952Y68278572D01*
X12033333Y68350000D01*
X11938095Y68421429D01*
X11795238Y68421429D01*
X11700000Y68350000D01*
X11652380Y68278572D01*
X11604761Y68135715D01*
X11604761Y67707143D01*
X11652380Y67564286D01*
X11700000Y67492858D01*
X11795238Y67421429D01*
X11938095Y67421429D01*
X11176190Y67421429D02*
X11176190Y68921429D01*
X11080952Y67992858D02*
X10795238Y67421429D01*
X10795238Y68421429D02*
X11176190Y67850000D01*
X10414285Y67492858D02*
X10319047Y67421429D01*
X10128571Y67421429D01*
X10033333Y67492858D01*
X9985714Y67635715D01*
X9985714Y67707143D01*
X10033333Y67850000D01*
X10128571Y67921429D01*
X10271428Y67921429D01*
X10366666Y67992858D01*
X10414285Y68135715D01*
X10414285Y68207143D01*
X10366666Y68350000D01*
X10271428Y68421429D01*
X10128571Y68421429D01*
X10033333Y68350000D01*
X8938095Y68921429D02*
X8604761Y67421429D01*
X8271428Y68921429D01*
X7366666Y67564286D02*
X7414285Y67492858D01*
X7557142Y67421429D01*
X7652380Y67421429D01*
X7795238Y67492858D01*
X7890476Y67635715D01*
X7938095Y67778572D01*
X7985714Y68064286D01*
X7985714Y68278572D01*
X7938095Y68564286D01*
X7890476Y68707143D01*
X7795238Y68850000D01*
X7652380Y68921429D01*
X7557142Y68921429D01*
X7414285Y68850000D01*
X7366666Y68778572D01*
X6747619Y68921429D02*
X6557142Y68921429D01*
X6461904Y68850000D01*
X6366666Y68707143D01*
X6319047Y68421429D01*
X6319047Y67921429D01*
X6366666Y67635715D01*
X6461904Y67492858D01*
X6557142Y67421429D01*
X6747619Y67421429D01*
X6842857Y67492858D01*
X6938095Y67635715D01*
X6985714Y67921429D01*
X6985714Y68421429D01*
X6938095Y68707143D01*
X6842857Y68850000D01*
X6747619Y68921429D01*
D12*
X41726017Y102402339D02*
G75*
G02X41730000Y98595000I1273983J-1902339D01*
G01*
X41730000Y98595000D02*
X41730000Y102405000D01*
X36726017Y102402339D02*
G75*
G02X36730000Y98595000I1273983J-1902339D01*
G01*
X36730000Y98595000D02*
X36730000Y102405000D01*
X35680710Y101400000D02*
G75*
G03X35680710Y101400000I-3180710J0D01*
G01*
X30023500Y103368500D02*
X30023500Y99431500D01*
X28276500Y100431500D02*
X28276500Y104368500D01*
X28980710Y102400000D02*
G75*
G03X28980710Y102400000I-3180710J0D01*
G01*
X19771000Y96628000D02*
X20787000Y97644000D01*
X213000Y96628000D02*
X19771000Y96628000D01*
X20787000Y105772000D02*
X20787000Y97644000D01*
X213000Y105772000D02*
X213000Y96628000D01*
X20787000Y105772000D02*
X213000Y105772000D01*
X2520000Y90525000D02*
X2520000Y70840000D01*
X1885000Y91160000D02*
X2520000Y90525000D01*
X-20000Y91160000D02*
X1885000Y91160000D01*
X-20000Y70840000D02*
X-20000Y91160000D01*
X2520000Y70840000D02*
X-20000Y70840000D01*
X59020000Y90525000D02*
X59020000Y70840000D01*
X58385000Y91160000D02*
X59020000Y90525000D01*
X56480000Y91160000D02*
X58385000Y91160000D01*
X56480000Y70840000D02*
X56480000Y91160000D01*
X59020000Y70840000D02*
X56480000Y70840000D01*
X2520000Y14840000D02*
X-20000Y14840000D01*
X-20000Y14840000D02*
X-20000Y35160000D01*
X-20000Y35160000D02*
X1885000Y35160000D01*
X1885000Y35160000D02*
X2520000Y34525000D01*
X2520000Y34525000D02*
X2520000Y14840000D01*
X59020000Y14840000D02*
X56480000Y14840000D01*
X56480000Y14840000D02*
X56480000Y35160000D01*
X56480000Y35160000D02*
X58385000Y35160000D01*
X58385000Y35160000D02*
X59020000Y34525000D01*
X59020000Y34525000D02*
X59020000Y14840000D01*
X52923500Y102768500D02*
X52923500Y98831500D01*
X58580710Y100800000D02*
G75*
G03X58580710Y100800000I-3180710J0D01*
G01*
X51576500Y97031500D02*
X51576500Y100968500D01*
X52280710Y99000000D02*
G75*
G03X52280710Y99000000I-3180710J0D01*
G01*
G36*
X26609535Y61206460D02*
X26649838Y60846549D01*
X26769170Y60544748D01*
X26894641Y60370643D01*
X27054901Y60238632D01*
X27215832Y60197294D01*
X27362939Y60248745D01*
X27413832Y60294858D01*
X27502663Y60462826D01*
X27531312Y60682160D01*
X27507013Y60928211D01*
X27437000Y61176333D01*
X27328508Y61401880D01*
X27188769Y61580205D01*
X27025019Y61686661D01*
X27003277Y61693671D01*
X26875057Y61683121D01*
X26751091Y61602003D01*
X26665193Y61513692D01*
X26622815Y61415725D01*
X26609812Y61268577D01*
X26609535Y61206460D01*
X26609535Y61206460D01*
G37*
X26609535Y61206460D02*
X26649838Y60846549D01*
X26769170Y60544748D01*
X26894641Y60370643D01*
X27054901Y60238632D01*
X27215832Y60197294D01*
X27362939Y60248745D01*
X27413832Y60294858D01*
X27502663Y60462826D01*
X27531312Y60682160D01*
X27507013Y60928211D01*
X27437000Y61176333D01*
X27328508Y61401880D01*
X27188769Y61580205D01*
X27025019Y61686661D01*
X27003277Y61693671D01*
X26875057Y61683121D01*
X26751091Y61602003D01*
X26665193Y61513692D01*
X26622815Y61415725D01*
X26609812Y61268577D01*
X26609535Y61206460D01*
G36*
X28348981Y60569528D02*
X28404308Y60366707D01*
X28427314Y60326360D01*
X28549150Y60217743D01*
X28701577Y60196641D01*
X28865056Y60262197D01*
X28967183Y60350010D01*
X29129322Y60586780D01*
X29229990Y60867506D01*
X29262659Y61160234D01*
X29220797Y61433014D01*
X29200038Y61489337D01*
X29100285Y61641779D01*
X28966753Y61698627D01*
X28796616Y61660878D01*
X28761675Y61644005D01*
X28611149Y61515340D01*
X28487439Y61315277D01*
X28397723Y61072097D01*
X28349178Y60814086D01*
X28348981Y60569528D01*
X28348981Y60569528D01*
G37*
X28348981Y60569528D02*
X28404308Y60366707D01*
X28427314Y60326360D01*
X28549150Y60217743D01*
X28701577Y60196641D01*
X28865056Y60262197D01*
X28967183Y60350010D01*
X29129322Y60586780D01*
X29229990Y60867506D01*
X29262659Y61160234D01*
X29220797Y61433014D01*
X29200038Y61489337D01*
X29100285Y61641779D01*
X28966753Y61698627D01*
X28796616Y61660878D01*
X28761675Y61644005D01*
X28611149Y61515340D01*
X28487439Y61315277D01*
X28397723Y61072097D01*
X28349178Y60814086D01*
X28348981Y60569528D01*
G36*
X27773420Y59695116D02*
X27780417Y59662791D01*
X27856427Y59578765D01*
X27969168Y59576683D01*
X28030317Y59609144D01*
X28089242Y59701206D01*
X28065574Y59802686D01*
X27970007Y59876407D01*
X27878360Y59866443D01*
X27801837Y59793624D01*
X27773420Y59695116D01*
X27773420Y59695116D01*
G37*
X27773420Y59695116D02*
X27780417Y59662791D01*
X27856427Y59578765D01*
X27969168Y59576683D01*
X28030317Y59609144D01*
X28089242Y59701206D01*
X28065574Y59802686D01*
X27970007Y59876407D01*
X27878360Y59866443D01*
X27801837Y59793624D01*
X27773420Y59695116D01*
G36*
X25536490Y61303810D02*
X25546312Y60864971D01*
X25563483Y60754440D01*
X25683955Y60342098D01*
X25882429Y59974293D01*
X25990717Y59848480D01*
X25990717Y60979063D01*
X26043320Y61313784D01*
X26163527Y61637085D01*
X26346452Y61925283D01*
X26452912Y62042078D01*
X26761098Y62273805D01*
X27129563Y62439732D01*
X27539424Y62537747D01*
X27971797Y62565733D01*
X28407799Y62521577D01*
X28828545Y62403165D01*
X29002768Y62327582D01*
X29324732Y62121709D01*
X29576141Y61860538D01*
X29753974Y61558744D01*
X29855208Y61231000D01*
X29876823Y60891981D01*
X29815797Y60556360D01*
X29669109Y60238811D01*
X29481775Y60001161D01*
X29117359Y59688418D01*
X28725249Y59464787D01*
X28315198Y59332435D01*
X27896963Y59293527D01*
X27480299Y59350230D01*
X27127926Y59478422D01*
X26850510Y59637683D01*
X26579137Y59840432D01*
X26340011Y60063762D01*
X26159336Y60284767D01*
X26107871Y60370083D01*
X26010605Y60656602D01*
X25990717Y60979063D01*
X25990717Y59848480D01*
X26148321Y59665368D01*
X26471046Y59429665D01*
X26583116Y59372724D01*
X26721536Y59304883D01*
X26812355Y59252051D01*
X26833200Y59232211D01*
X26792305Y59196068D01*
X26687325Y59131019D01*
X26596669Y59080946D01*
X26410658Y58974286D01*
X26223634Y58855010D01*
X26164869Y58814015D01*
X26041423Y58711917D01*
X25984204Y58616826D01*
X25969633Y58488234D01*
X25969600Y58478537D01*
X26011389Y58283668D01*
X26124678Y58140683D01*
X26291351Y58069100D01*
X26353875Y58064467D01*
X26480732Y58090804D01*
X26646827Y58157534D01*
X26757000Y58216000D01*
X26901698Y58297752D01*
X27012324Y58352826D01*
X27055314Y58367534D01*
X27072585Y58321097D01*
X27081199Y58196180D01*
X27080083Y58015619D01*
X27076204Y57923900D01*
X27051513Y57641882D01*
X27007154Y57426739D01*
X26936039Y57244530D01*
X26933051Y57238478D01*
X26855365Y57021952D01*
X26864953Y56846087D01*
X26964730Y56694923D01*
X27044678Y56627073D01*
X27189808Y56563371D01*
X27189808Y58346794D01*
X27192024Y58547996D01*
X27205785Y58727920D01*
X27231359Y58855981D01*
X27241388Y58879740D01*
X27272350Y58921192D01*
X27324729Y58949094D01*
X27416604Y58966074D01*
X27566054Y58974762D01*
X27791157Y58977786D01*
X27917028Y58978000D01*
X28238455Y58972639D01*
X28459624Y58956509D01*
X28581311Y58929541D01*
X28601041Y58917040D01*
X28627655Y58841588D01*
X28647550Y58694308D01*
X28659812Y58504805D01*
X28663528Y58302686D01*
X28657783Y58117557D01*
X28641665Y57979024D01*
X28631165Y57940755D01*
X28603382Y57906812D01*
X28539915Y57883738D01*
X28424521Y57869600D01*
X28240953Y57862466D01*
X27972966Y57860405D01*
X27955525Y57860400D01*
X27630649Y57865400D01*
X27405039Y57880506D01*
X27276849Y57905877D01*
X27249761Y57921360D01*
X27218944Y58002892D01*
X27198870Y58154898D01*
X27189808Y58346794D01*
X27189808Y56563371D01*
X27211571Y56553818D01*
X27376836Y56576485D01*
X27533254Y56689548D01*
X27673609Y56887483D01*
X27790681Y57164765D01*
X27804525Y57208688D01*
X27870581Y57399141D01*
X27928877Y57518097D01*
X27973460Y57558086D01*
X27998375Y57511639D01*
X28001600Y57455906D01*
X28030286Y57289286D01*
X28104153Y57084545D01*
X28204913Y56881409D01*
X28314282Y56719604D01*
X28363959Y56668709D01*
X28513732Y56569116D01*
X28653458Y56549329D01*
X28798380Y56590755D01*
X28939997Y56695778D01*
X29006447Y56857900D01*
X28995367Y57063353D01*
X28916000Y57276200D01*
X28861324Y57411482D01*
X28829532Y57571963D01*
X28815892Y57787939D01*
X28814400Y57926791D01*
X28814400Y58378099D01*
X29093031Y58220850D01*
X29353706Y58102220D01*
X29564604Y58069788D01*
X29729252Y58123262D01*
X29778308Y58163908D01*
X29896019Y58324887D01*
X29920784Y58483367D01*
X29850729Y58643336D01*
X29683980Y58808783D01*
X29418663Y58983699D01*
X29383896Y59003400D01*
X29216591Y59099914D01*
X29090149Y59178398D01*
X29025474Y59225676D01*
X29021234Y59232000D01*
X29063570Y59265419D01*
X29172580Y59325679D01*
X29286383Y59381512D01*
X29632657Y59597537D01*
X29916281Y59883990D01*
X30131121Y60226868D01*
X30271043Y60612169D01*
X30329914Y61025890D01*
X30301599Y61454029D01*
X30266408Y61618746D01*
X30112277Y62022779D01*
X29874042Y62376435D01*
X29560324Y62670867D01*
X29179743Y62897232D01*
X28923849Y62996391D01*
X28580936Y63077088D01*
X28188000Y63123593D01*
X27785074Y63134094D01*
X27412193Y63106778D01*
X27226900Y63073232D01*
X26765637Y62921185D01*
X26368524Y62701316D01*
X26041308Y62421636D01*
X25789733Y62090152D01*
X25619546Y61714874D01*
X25536490Y61303810D01*
X25536490Y61303810D01*
G37*
X25536490Y61303810D02*
X25546312Y60864971D01*
X25563483Y60754440D01*
X25683955Y60342098D01*
X25882429Y59974293D01*
X25990717Y59848480D01*
X25990717Y60979063D01*
X26043320Y61313784D01*
X26163527Y61637085D01*
X26346452Y61925283D01*
X26452912Y62042078D01*
X26761098Y62273805D01*
X27129563Y62439732D01*
X27539424Y62537747D01*
X27971797Y62565733D01*
X28407799Y62521577D01*
X28828545Y62403165D01*
X29002768Y62327582D01*
X29324732Y62121709D01*
X29576141Y61860538D01*
X29753974Y61558744D01*
X29855208Y61231000D01*
X29876823Y60891981D01*
X29815797Y60556360D01*
X29669109Y60238811D01*
X29481775Y60001161D01*
X29117359Y59688418D01*
X28725249Y59464787D01*
X28315198Y59332435D01*
X27896963Y59293527D01*
X27480299Y59350230D01*
X27127926Y59478422D01*
X26850510Y59637683D01*
X26579137Y59840432D01*
X26340011Y60063762D01*
X26159336Y60284767D01*
X26107871Y60370083D01*
X26010605Y60656602D01*
X25990717Y60979063D01*
X25990717Y59848480D01*
X26148321Y59665368D01*
X26471046Y59429665D01*
X26583116Y59372724D01*
X26721536Y59304883D01*
X26812355Y59252051D01*
X26833200Y59232211D01*
X26792305Y59196068D01*
X26687325Y59131019D01*
X26596669Y59080946D01*
X26410658Y58974286D01*
X26223634Y58855010D01*
X26164869Y58814015D01*
X26041423Y58711917D01*
X25984204Y58616826D01*
X25969633Y58488234D01*
X25969600Y58478537D01*
X26011389Y58283668D01*
X26124678Y58140683D01*
X26291351Y58069100D01*
X26353875Y58064467D01*
X26480732Y58090804D01*
X26646827Y58157534D01*
X26757000Y58216000D01*
X26901698Y58297752D01*
X27012324Y58352826D01*
X27055314Y58367534D01*
X27072585Y58321097D01*
X27081199Y58196180D01*
X27080083Y58015619D01*
X27076204Y57923900D01*
X27051513Y57641882D01*
X27007154Y57426739D01*
X26936039Y57244530D01*
X26933051Y57238478D01*
X26855365Y57021952D01*
X26864953Y56846087D01*
X26964730Y56694923D01*
X27044678Y56627073D01*
X27189808Y56563371D01*
X27189808Y58346794D01*
X27192024Y58547996D01*
X27205785Y58727920D01*
X27231359Y58855981D01*
X27241388Y58879740D01*
X27272350Y58921192D01*
X27324729Y58949094D01*
X27416604Y58966074D01*
X27566054Y58974762D01*
X27791157Y58977786D01*
X27917028Y58978000D01*
X28238455Y58972639D01*
X28459624Y58956509D01*
X28581311Y58929541D01*
X28601041Y58917040D01*
X28627655Y58841588D01*
X28647550Y58694308D01*
X28659812Y58504805D01*
X28663528Y58302686D01*
X28657783Y58117557D01*
X28641665Y57979024D01*
X28631165Y57940755D01*
X28603382Y57906812D01*
X28539915Y57883738D01*
X28424521Y57869600D01*
X28240953Y57862466D01*
X27972966Y57860405D01*
X27955525Y57860400D01*
X27630649Y57865400D01*
X27405039Y57880506D01*
X27276849Y57905877D01*
X27249761Y57921360D01*
X27218944Y58002892D01*
X27198870Y58154898D01*
X27189808Y58346794D01*
X27189808Y56563371D01*
X27211571Y56553818D01*
X27376836Y56576485D01*
X27533254Y56689548D01*
X27673609Y56887483D01*
X27790681Y57164765D01*
X27804525Y57208688D01*
X27870581Y57399141D01*
X27928877Y57518097D01*
X27973460Y57558086D01*
X27998375Y57511639D01*
X28001600Y57455906D01*
X28030286Y57289286D01*
X28104153Y57084545D01*
X28204913Y56881409D01*
X28314282Y56719604D01*
X28363959Y56668709D01*
X28513732Y56569116D01*
X28653458Y56549329D01*
X28798380Y56590755D01*
X28939997Y56695778D01*
X29006447Y56857900D01*
X28995367Y57063353D01*
X28916000Y57276200D01*
X28861324Y57411482D01*
X28829532Y57571963D01*
X28815892Y57787939D01*
X28814400Y57926791D01*
X28814400Y58378099D01*
X29093031Y58220850D01*
X29353706Y58102220D01*
X29564604Y58069788D01*
X29729252Y58123262D01*
X29778308Y58163908D01*
X29896019Y58324887D01*
X29920784Y58483367D01*
X29850729Y58643336D01*
X29683980Y58808783D01*
X29418663Y58983699D01*
X29383896Y59003400D01*
X29216591Y59099914D01*
X29090149Y59178398D01*
X29025474Y59225676D01*
X29021234Y59232000D01*
X29063570Y59265419D01*
X29172580Y59325679D01*
X29286383Y59381512D01*
X29632657Y59597537D01*
X29916281Y59883990D01*
X30131121Y60226868D01*
X30271043Y60612169D01*
X30329914Y61025890D01*
X30301599Y61454029D01*
X30266408Y61618746D01*
X30112277Y62022779D01*
X29874042Y62376435D01*
X29560324Y62670867D01*
X29179743Y62897232D01*
X28923849Y62996391D01*
X28580936Y63077088D01*
X28188000Y63123593D01*
X27785074Y63134094D01*
X27412193Y63106778D01*
X27226900Y63073232D01*
X26765637Y62921185D01*
X26368524Y62701316D01*
X26041308Y62421636D01*
X25789733Y62090152D01*
X25619546Y61714874D01*
X25536490Y61303810D01*
G36*
X27802311Y56028262D02*
X27841946Y55935025D01*
X27878755Y55910036D01*
X27957082Y55883474D01*
X28001833Y55900578D01*
X28042240Y55940160D01*
X28092823Y56043711D01*
X28069098Y56143901D01*
X27990929Y56208110D01*
X27881039Y56204842D01*
X27815471Y56134809D01*
X27802311Y56028262D01*
X27802311Y56028262D01*
G37*
X27802311Y56028262D02*
X27841946Y55935025D01*
X27878755Y55910036D01*
X27957082Y55883474D01*
X28001833Y55900578D01*
X28042240Y55940160D01*
X28092823Y56043711D01*
X28069098Y56143901D01*
X27990929Y56208110D01*
X27881039Y56204842D01*
X27815471Y56134809D01*
X27802311Y56028262D01*
G36*
X24590176Y54970202D02*
X24591600Y54735073D01*
X24601780Y54514329D01*
X24620682Y54331090D01*
X24648271Y54208474D01*
X24674847Y54170123D01*
X24774647Y54174666D01*
X24828752Y54204586D01*
X24879337Y54226790D01*
X24879337Y54926940D01*
X24936488Y55097334D01*
X25066610Y55232094D01*
X25106000Y55254665D01*
X25313718Y55317857D01*
X25525321Y55313185D01*
X25718164Y55250071D01*
X25869603Y55137935D01*
X25956989Y54986198D01*
X25969600Y54895388D01*
X25926677Y54687032D01*
X25808853Y54531435D01*
X25632554Y54436828D01*
X25414200Y54411442D01*
X25170216Y54463507D01*
X25135331Y54477284D01*
X24979798Y54589381D01*
X24894121Y54748444D01*
X24879337Y54926940D01*
X24879337Y54226790D01*
X24915589Y54242701D01*
X25030727Y54211615D01*
X25033695Y54210269D01*
X25184602Y54172197D01*
X25389592Y54157273D01*
X25603806Y54165566D01*
X25782382Y54197144D01*
X25817174Y54209072D01*
X26034351Y54347798D01*
X26184350Y54556089D01*
X26227274Y54673643D01*
X26256012Y54931729D01*
X26190566Y55163846D01*
X26064405Y55345778D01*
X25875509Y55490365D01*
X25631308Y55577642D01*
X25363585Y55602631D01*
X25104123Y55560352D01*
X24990501Y55514016D01*
X24883829Y55502957D01*
X24823931Y55544413D01*
X24730497Y55594537D01*
X24672730Y55592207D01*
X24638785Y55530720D01*
X24613734Y55391144D01*
X24597543Y55196599D01*
X24590176Y54970202D01*
X24590176Y54970202D01*
G37*
X24590176Y54970202D02*
X24591600Y54735073D01*
X24601780Y54514329D01*
X24620682Y54331090D01*
X24648271Y54208474D01*
X24674847Y54170123D01*
X24774647Y54174666D01*
X24828752Y54204586D01*
X24879337Y54226790D01*
X24879337Y54926940D01*
X24936488Y55097334D01*
X25066610Y55232094D01*
X25106000Y55254665D01*
X25313718Y55317857D01*
X25525321Y55313185D01*
X25718164Y55250071D01*
X25869603Y55137935D01*
X25956989Y54986198D01*
X25969600Y54895388D01*
X25926677Y54687032D01*
X25808853Y54531435D01*
X25632554Y54436828D01*
X25414200Y54411442D01*
X25170216Y54463507D01*
X25135331Y54477284D01*
X24979798Y54589381D01*
X24894121Y54748444D01*
X24879337Y54926940D01*
X24879337Y54226790D01*
X24915589Y54242701D01*
X25030727Y54211615D01*
X25033695Y54210269D01*
X25184602Y54172197D01*
X25389592Y54157273D01*
X25603806Y54165566D01*
X25782382Y54197144D01*
X25817174Y54209072D01*
X26034351Y54347798D01*
X26184350Y54556089D01*
X26227274Y54673643D01*
X26256012Y54931729D01*
X26190566Y55163846D01*
X26064405Y55345778D01*
X25875509Y55490365D01*
X25631308Y55577642D01*
X25363585Y55602631D01*
X25104123Y55560352D01*
X24990501Y55514016D01*
X24883829Y55502957D01*
X24823931Y55544413D01*
X24730497Y55594537D01*
X24672730Y55592207D01*
X24638785Y55530720D01*
X24613734Y55391144D01*
X24597543Y55196599D01*
X24590176Y54970202D01*
G36*
X26274400Y54400410D02*
X26320534Y54305315D01*
X26442933Y54230166D01*
X26617595Y54178512D01*
X26820518Y54153897D01*
X27027699Y54159870D01*
X27215137Y54199978D01*
X27315800Y54246517D01*
X27509924Y54392469D01*
X27623569Y54553491D01*
X27676555Y54760870D01*
X27682814Y54825888D01*
X27661757Y55101065D01*
X27557893Y55320844D01*
X27376896Y55479760D01*
X27124442Y55572349D01*
X26884000Y55595008D01*
X26644334Y55574044D01*
X26450527Y55515801D01*
X26322699Y55428391D01*
X26282958Y55352718D01*
X26290105Y55238118D01*
X26364159Y55195897D01*
X26497547Y55229327D01*
X26530976Y55245532D01*
X26710858Y55299999D01*
X26922371Y55309569D01*
X27124727Y55276939D01*
X27277139Y55204799D01*
X27288036Y55195541D01*
X27400187Y55035789D01*
X27427170Y54856685D01*
X27375667Y54682314D01*
X27252356Y54536762D01*
X27080975Y54448933D01*
X26934047Y54415590D01*
X26804587Y54421186D01*
X26640575Y54468659D01*
X26623137Y54474804D01*
X26441095Y54528234D01*
X26332368Y54527636D01*
X26282350Y54469895D01*
X26274400Y54400410D01*
X26274400Y54400410D01*
G37*
X26274400Y54400410D02*
X26320534Y54305315D01*
X26442933Y54230166D01*
X26617595Y54178512D01*
X26820518Y54153897D01*
X27027699Y54159870D01*
X27215137Y54199978D01*
X27315800Y54246517D01*
X27509924Y54392469D01*
X27623569Y54553491D01*
X27676555Y54760870D01*
X27682814Y54825888D01*
X27661757Y55101065D01*
X27557893Y55320844D01*
X27376896Y55479760D01*
X27124442Y55572349D01*
X26884000Y55595008D01*
X26644334Y55574044D01*
X26450527Y55515801D01*
X26322699Y55428391D01*
X26282958Y55352718D01*
X26290105Y55238118D01*
X26364159Y55195897D01*
X26497547Y55229327D01*
X26530976Y55245532D01*
X26710858Y55299999D01*
X26922371Y55309569D01*
X27124727Y55276939D01*
X27277139Y55204799D01*
X27288036Y55195541D01*
X27400187Y55035789D01*
X27427170Y54856685D01*
X27375667Y54682314D01*
X27252356Y54536762D01*
X27080975Y54448933D01*
X26934047Y54415590D01*
X26804587Y54421186D01*
X26640575Y54468659D01*
X26623137Y54474804D01*
X26441095Y54528234D01*
X26332368Y54527636D01*
X26282350Y54469895D01*
X26274400Y54400410D01*
G36*
X27805181Y55289917D02*
X27806150Y55069225D01*
X27809706Y54869930D01*
X27816145Y54592636D01*
X27824076Y54400726D01*
X27836286Y54277992D01*
X27855565Y54208228D01*
X27884699Y54175225D01*
X27926478Y54162776D01*
X27931479Y54162035D01*
X28027471Y54182538D01*
X28070485Y54263635D01*
X28083672Y54362255D01*
X28094265Y54535003D01*
X28100919Y54754418D01*
X28102507Y54916991D01*
X28095618Y55218682D01*
X28072187Y55428400D01*
X28029427Y55554834D01*
X27964550Y55606677D01*
X27884566Y55596595D01*
X27848849Y55573509D01*
X27824840Y55525644D01*
X27810848Y55436584D01*
X27805181Y55289917D01*
X27805181Y55289917D01*
G37*
X27805181Y55289917D02*
X27806150Y55069225D01*
X27809706Y54869930D01*
X27816145Y54592636D01*
X27824076Y54400726D01*
X27836286Y54277992D01*
X27855565Y54208228D01*
X27884699Y54175225D01*
X27926478Y54162776D01*
X27931479Y54162035D01*
X28027471Y54182538D01*
X28070485Y54263635D01*
X28083672Y54362255D01*
X28094265Y54535003D01*
X28100919Y54754418D01*
X28102507Y54916991D01*
X28095618Y55218682D01*
X28072187Y55428400D01*
X28029427Y55554834D01*
X27964550Y55606677D01*
X27884566Y55596595D01*
X27848849Y55573509D01*
X27824840Y55525644D01*
X27810848Y55436584D01*
X27805181Y55289917D01*
G36*
X28164635Y55334090D02*
X28180991Y55274541D01*
X28214581Y55238049D01*
X28278579Y55189333D01*
X28349275Y55193125D01*
X28449962Y55239630D01*
X28641789Y55301601D01*
X28851050Y55311565D01*
X29048787Y55274693D01*
X29206038Y55196154D01*
X29290844Y55089525D01*
X29307835Y54996590D01*
X29319566Y54839898D01*
X29323094Y54693946D01*
X29328366Y54506253D01*
X29341282Y54345216D01*
X29354419Y54266300D01*
X29418066Y54177337D01*
X29517171Y54150528D01*
X29593334Y54185867D01*
X29605897Y54246633D01*
X29616351Y54389016D01*
X29623737Y54593040D01*
X29627096Y54838728D01*
X29627200Y54891632D01*
X29625768Y55168090D01*
X29620104Y55359488D01*
X29608158Y55482342D01*
X29587881Y55553167D01*
X29557223Y55588481D01*
X29539641Y55597130D01*
X29436573Y55589033D01*
X29391404Y55547750D01*
X29314081Y55492734D01*
X29237664Y55513686D01*
X29025458Y55584266D01*
X28782195Y55603054D01*
X28540997Y55573345D01*
X28334984Y55498434D01*
X28221714Y55412623D01*
X28164635Y55334090D01*
X28164635Y55334090D01*
G37*
X28164635Y55334090D02*
X28180991Y55274541D01*
X28214581Y55238049D01*
X28278579Y55189333D01*
X28349275Y55193125D01*
X28449962Y55239630D01*
X28641789Y55301601D01*
X28851050Y55311565D01*
X29048787Y55274693D01*
X29206038Y55196154D01*
X29290844Y55089525D01*
X29307835Y54996590D01*
X29319566Y54839898D01*
X29323094Y54693946D01*
X29328366Y54506253D01*
X29341282Y54345216D01*
X29354419Y54266300D01*
X29418066Y54177337D01*
X29517171Y54150528D01*
X29593334Y54185867D01*
X29605897Y54246633D01*
X29616351Y54389016D01*
X29623737Y54593040D01*
X29627096Y54838728D01*
X29627200Y54891632D01*
X29625768Y55168090D01*
X29620104Y55359488D01*
X29608158Y55482342D01*
X29587881Y55553167D01*
X29557223Y55588481D01*
X29539641Y55597130D01*
X29436573Y55589033D01*
X29391404Y55547750D01*
X29314081Y55492734D01*
X29237664Y55513686D01*
X29025458Y55584266D01*
X28782195Y55603054D01*
X28540997Y55573345D01*
X28334984Y55498434D01*
X28221714Y55412623D01*
X28164635Y55334090D01*
G36*
X29750361Y55220121D02*
X29753241Y55070767D01*
X29814353Y54922795D01*
X29930528Y54820890D01*
X30051723Y54779969D01*
X30051723Y55092447D01*
X30054502Y55193005D01*
X30133214Y55268017D01*
X30264496Y55313455D01*
X30424986Y55325292D01*
X30591322Y55299501D01*
X30740140Y55232056D01*
X30763350Y55215113D01*
X30854771Y55130422D01*
X30896884Y55066207D01*
X30897200Y55062713D01*
X30850415Y55040874D01*
X30726050Y55024411D01*
X30548092Y55016093D01*
X30489206Y55015600D01*
X30273104Y55020074D01*
X30139711Y55035672D01*
X30070442Y55065659D01*
X30051723Y55092447D01*
X30051723Y54779969D01*
X30115135Y54758558D01*
X30381541Y54729303D01*
X30461883Y54726411D01*
X30697625Y54713083D01*
X30836650Y54685862D01*
X30883201Y54642248D01*
X30841521Y54579742D01*
X30783399Y54536977D01*
X30541266Y54434621D01*
X30279578Y54431933D01*
X30110056Y54479403D01*
X29934043Y54532506D01*
X29829442Y54525031D01*
X29784007Y54454051D01*
X29779600Y54400410D01*
X29825865Y54305726D01*
X29949198Y54231024D01*
X30126408Y54179836D01*
X30334304Y54155696D01*
X30549696Y54162134D01*
X30749391Y54202684D01*
X30840229Y54238864D01*
X31026381Y54381435D01*
X31146118Y54577481D01*
X31199182Y54803569D01*
X31185318Y55036267D01*
X31104268Y55252141D01*
X30955776Y55427759D01*
X30853980Y55494281D01*
X30616427Y55580675D01*
X30377291Y55605372D01*
X30153844Y55575020D01*
X29963359Y55496264D01*
X29823107Y55375749D01*
X29750361Y55220121D01*
X29750361Y55220121D01*
G37*
X29750361Y55220121D02*
X29753241Y55070767D01*
X29814353Y54922795D01*
X29930528Y54820890D01*
X30051723Y54779969D01*
X30051723Y55092447D01*
X30054502Y55193005D01*
X30133214Y55268017D01*
X30264496Y55313455D01*
X30424986Y55325292D01*
X30591322Y55299501D01*
X30740140Y55232056D01*
X30763350Y55215113D01*
X30854771Y55130422D01*
X30896884Y55066207D01*
X30897200Y55062713D01*
X30850415Y55040874D01*
X30726050Y55024411D01*
X30548092Y55016093D01*
X30489206Y55015600D01*
X30273104Y55020074D01*
X30139711Y55035672D01*
X30070442Y55065659D01*
X30051723Y55092447D01*
X30051723Y54779969D01*
X30115135Y54758558D01*
X30381541Y54729303D01*
X30461883Y54726411D01*
X30697625Y54713083D01*
X30836650Y54685862D01*
X30883201Y54642248D01*
X30841521Y54579742D01*
X30783399Y54536977D01*
X30541266Y54434621D01*
X30279578Y54431933D01*
X30110056Y54479403D01*
X29934043Y54532506D01*
X29829442Y54525031D01*
X29784007Y54454051D01*
X29779600Y54400410D01*
X29825865Y54305726D01*
X29949198Y54231024D01*
X30126408Y54179836D01*
X30334304Y54155696D01*
X30549696Y54162134D01*
X30749391Y54202684D01*
X30840229Y54238864D01*
X31026381Y54381435D01*
X31146118Y54577481D01*
X31199182Y54803569D01*
X31185318Y55036267D01*
X31104268Y55252141D01*
X30955776Y55427759D01*
X30853980Y55494281D01*
X30616427Y55580675D01*
X30377291Y55605372D01*
X30153844Y55575020D01*
X29963359Y55496264D01*
X29823107Y55375749D01*
X29750361Y55220121D01*
G36*
X25076506Y52163459D02*
X25106134Y51986294D01*
X25170940Y51890098D01*
X25254263Y51866000D01*
X25326666Y51892366D01*
X25374320Y51980015D01*
X25400885Y52141779D01*
X25410024Y52390487D01*
X25410107Y52412100D01*
X25430264Y52655294D01*
X25495531Y52815272D01*
X25614992Y52903815D01*
X25797730Y52932706D01*
X25811573Y52932800D01*
X25994425Y52914480D01*
X26121569Y52849877D01*
X26203819Y52724530D01*
X26251988Y52523976D01*
X26272171Y52316794D01*
X26288120Y52107570D01*
X26306882Y51979180D01*
X26334821Y51910920D01*
X26378301Y51882086D01*
X26407635Y51876015D01*
X26511068Y51897937D01*
X26547335Y51943669D01*
X26558137Y52020870D01*
X26567372Y52180442D01*
X26574363Y52403160D01*
X26578437Y52669798D01*
X26579200Y52851046D01*
X26575747Y53210880D01*
X26563875Y53479356D01*
X26541315Y53666529D01*
X26505798Y53782453D01*
X26455056Y53837185D01*
X26386819Y53840779D01*
X26357947Y53831649D01*
X26310910Y53791153D01*
X26284900Y53700554D01*
X26274983Y53538040D01*
X26274400Y53462360D01*
X26271736Y53283521D01*
X26259925Y53187075D01*
X26233244Y53153874D01*
X26185968Y53164767D01*
X26185500Y53164976D01*
X25986005Y53215911D01*
X25753091Y53220971D01*
X25538402Y53181168D01*
X25465212Y53150858D01*
X25291266Y53035816D01*
X25177439Y52892579D01*
X25111044Y52697421D01*
X25079570Y52429612D01*
X25076506Y52163459D01*
X25076506Y52163459D01*
G37*
X25076506Y52163459D02*
X25106134Y51986294D01*
X25170940Y51890098D01*
X25254263Y51866000D01*
X25326666Y51892366D01*
X25374320Y51980015D01*
X25400885Y52141779D01*
X25410024Y52390487D01*
X25410107Y52412100D01*
X25430264Y52655294D01*
X25495531Y52815272D01*
X25614992Y52903815D01*
X25797730Y52932706D01*
X25811573Y52932800D01*
X25994425Y52914480D01*
X26121569Y52849877D01*
X26203819Y52724530D01*
X26251988Y52523976D01*
X26272171Y52316794D01*
X26288120Y52107570D01*
X26306882Y51979180D01*
X26334821Y51910920D01*
X26378301Y51882086D01*
X26407635Y51876015D01*
X26511068Y51897937D01*
X26547335Y51943669D01*
X26558137Y52020870D01*
X26567372Y52180442D01*
X26574363Y52403160D01*
X26578437Y52669798D01*
X26579200Y52851046D01*
X26575747Y53210880D01*
X26563875Y53479356D01*
X26541315Y53666529D01*
X26505798Y53782453D01*
X26455056Y53837185D01*
X26386819Y53840779D01*
X26357947Y53831649D01*
X26310910Y53791153D01*
X26284900Y53700554D01*
X26274983Y53538040D01*
X26274400Y53462360D01*
X26271736Y53283521D01*
X26259925Y53187075D01*
X26233244Y53153874D01*
X26185968Y53164767D01*
X26185500Y53164976D01*
X25986005Y53215911D01*
X25753091Y53220971D01*
X25538402Y53181168D01*
X25465212Y53150858D01*
X25291266Y53035816D01*
X25177439Y52892579D01*
X25111044Y52697421D01*
X25079570Y52429612D01*
X25076506Y52163459D01*
G36*
X26655988Y52043561D02*
X26659959Y51948639D01*
X26731953Y51887297D01*
X26862098Y51865348D01*
X27015295Y51881853D01*
X27156444Y51935874D01*
X27195873Y51962960D01*
X27256975Y52024791D01*
X27296325Y52107014D01*
X27321014Y52235044D01*
X27338136Y52434296D01*
X27341200Y52483660D01*
X27356865Y52694122D01*
X27376019Y52820868D01*
X27403345Y52881779D01*
X27443529Y52894731D01*
X27448724Y52894030D01*
X27552216Y52919834D01*
X27617582Y53006483D01*
X27617182Y53101191D01*
X27546765Y53172212D01*
X27476605Y53196530D01*
X27413504Y53218513D01*
X27375582Y53278196D01*
X27352509Y53399999D01*
X27341200Y53516554D01*
X27320370Y53693331D01*
X27289496Y53791440D01*
X27239986Y53833802D01*
X27220288Y53839052D01*
X27126146Y53828072D01*
X27068005Y53744823D01*
X27040790Y53578718D01*
X27037178Y53457034D01*
X27031716Y53300704D01*
X27009145Y53218915D01*
X26958396Y53184790D01*
X26922100Y53177634D01*
X26824727Y53129873D01*
X26786499Y53046874D01*
X26811553Y52965559D01*
X26893682Y52924029D01*
X26955190Y52907882D01*
X26990364Y52865873D01*
X27006499Y52774865D01*
X27010884Y52611720D01*
X27011000Y52551800D01*
X27009140Y52365770D01*
X26997902Y52258169D01*
X26968802Y52205831D01*
X26913357Y52185589D01*
X26875018Y52180485D01*
X26730559Y52133158D01*
X26655988Y52043561D01*
X26655988Y52043561D01*
G37*
X26655988Y52043561D02*
X26659959Y51948639D01*
X26731953Y51887297D01*
X26862098Y51865348D01*
X27015295Y51881853D01*
X27156444Y51935874D01*
X27195873Y51962960D01*
X27256975Y52024791D01*
X27296325Y52107014D01*
X27321014Y52235044D01*
X27338136Y52434296D01*
X27341200Y52483660D01*
X27356865Y52694122D01*
X27376019Y52820868D01*
X27403345Y52881779D01*
X27443529Y52894731D01*
X27448724Y52894030D01*
X27552216Y52919834D01*
X27617582Y53006483D01*
X27617182Y53101191D01*
X27546765Y53172212D01*
X27476605Y53196530D01*
X27413504Y53218513D01*
X27375582Y53278196D01*
X27352509Y53399999D01*
X27341200Y53516554D01*
X27320370Y53693331D01*
X27289496Y53791440D01*
X27239986Y53833802D01*
X27220288Y53839052D01*
X27126146Y53828072D01*
X27068005Y53744823D01*
X27040790Y53578718D01*
X27037178Y53457034D01*
X27031716Y53300704D01*
X27009145Y53218915D01*
X26958396Y53184790D01*
X26922100Y53177634D01*
X26824727Y53129873D01*
X26786499Y53046874D01*
X26811553Y52965559D01*
X26893682Y52924029D01*
X26955190Y52907882D01*
X26990364Y52865873D01*
X27006499Y52774865D01*
X27010884Y52611720D01*
X27011000Y52551800D01*
X27009140Y52365770D01*
X26997902Y52258169D01*
X26968802Y52205831D01*
X26913357Y52185589D01*
X26875018Y52180485D01*
X26730559Y52133158D01*
X26655988Y52043561D01*
G36*
X27596741Y52182829D02*
X27615202Y52000841D01*
X27665652Y51900598D01*
X27750219Y51874102D01*
X27762096Y51875403D01*
X27817757Y51891586D01*
X27853735Y51934773D01*
X27876644Y52025801D01*
X27893101Y52185511D01*
X27902230Y52316794D01*
X27932384Y52583589D01*
X27988907Y52764242D01*
X28082192Y52872947D01*
X28222630Y52923897D01*
X28353249Y52932800D01*
X28539952Y52907450D01*
X28664760Y52823669D01*
X28736223Y52669859D01*
X28762890Y52434426D01*
X28763600Y52376176D01*
X28768740Y52140709D01*
X28788272Y51989331D01*
X28828367Y51904864D01*
X28895193Y51870131D01*
X28946836Y51866000D01*
X29068400Y51866000D01*
X29068400Y52527995D01*
X29066460Y52807121D01*
X29059486Y53000277D01*
X29045746Y53123037D01*
X29023510Y53190976D01*
X28991554Y53219478D01*
X28890461Y53215543D01*
X28842401Y53188959D01*
X28748288Y53155478D01*
X28668587Y53183275D01*
X28498584Y53230462D01*
X28286349Y53231260D01*
X28078449Y53188658D01*
X27966261Y53138236D01*
X27794408Y53001124D01*
X27684204Y52826064D01*
X27623085Y52589069D01*
X27608146Y52454559D01*
X27596741Y52182829D01*
X27596741Y52182829D01*
G37*
X27596741Y52182829D02*
X27615202Y52000841D01*
X27665652Y51900598D01*
X27750219Y51874102D01*
X27762096Y51875403D01*
X27817757Y51891586D01*
X27853735Y51934773D01*
X27876644Y52025801D01*
X27893101Y52185511D01*
X27902230Y52316794D01*
X27932384Y52583589D01*
X27988907Y52764242D01*
X28082192Y52872947D01*
X28222630Y52923897D01*
X28353249Y52932800D01*
X28539952Y52907450D01*
X28664760Y52823669D01*
X28736223Y52669859D01*
X28762890Y52434426D01*
X28763600Y52376176D01*
X28768740Y52140709D01*
X28788272Y51989331D01*
X28828367Y51904864D01*
X28895193Y51870131D01*
X28946836Y51866000D01*
X29068400Y51866000D01*
X29068400Y52527995D01*
X29066460Y52807121D01*
X29059486Y53000277D01*
X29045746Y53123037D01*
X29023510Y53190976D01*
X28991554Y53219478D01*
X28890461Y53215543D01*
X28842401Y53188959D01*
X28748288Y53155478D01*
X28668587Y53183275D01*
X28498584Y53230462D01*
X28286349Y53231260D01*
X28078449Y53188658D01*
X27966261Y53138236D01*
X27794408Y53001124D01*
X27684204Y52826064D01*
X27623085Y52589069D01*
X27608146Y52454559D01*
X27596741Y52182829D01*
G36*
X23532140Y52321686D02*
X23573240Y52144341D01*
X23694428Y51994735D01*
X23889215Y51891782D01*
X24138263Y51841083D01*
X24422234Y51848237D01*
X24532136Y51866639D01*
X24762480Y51929851D01*
X24899864Y52007461D01*
X24952492Y52104468D01*
X24953600Y52123382D01*
X24926824Y52217222D01*
X24839751Y52252602D01*
X24682266Y52231363D01*
X24558840Y52195192D01*
X24370155Y52153482D01*
X24180537Y52143979D01*
X24015544Y52163795D01*
X23900735Y52210042D01*
X23861400Y52274007D01*
X23886172Y52314561D01*
X23971107Y52343481D01*
X24132131Y52364699D01*
X24272146Y52375384D01*
X24571067Y52410924D01*
X24782354Y52475863D01*
X24917056Y52575442D01*
X24986005Y52714023D01*
X24982646Y52890626D01*
X24892821Y53046693D01*
X24731607Y53158300D01*
X24697886Y53171233D01*
X24489213Y53220100D01*
X24270340Y53233485D01*
X24057494Y53216269D01*
X23866902Y53173335D01*
X23714790Y53109563D01*
X23617386Y53029837D01*
X23590916Y52939037D01*
X23640046Y52852983D01*
X23704980Y52802304D01*
X23774366Y52804372D01*
X23877962Y52852030D01*
X24046968Y52907418D01*
X24249975Y52929884D01*
X24447221Y52919134D01*
X24598943Y52874875D01*
X24626391Y52857566D01*
X24685170Y52784056D01*
X24645476Y52729525D01*
X24508766Y52694623D01*
X24276500Y52680001D01*
X24227178Y52679578D01*
X23934652Y52654358D01*
X23717561Y52583240D01*
X23581520Y52470818D01*
X23532140Y52321686D01*
X23532140Y52321686D01*
G37*
X23532140Y52321686D02*
X23573240Y52144341D01*
X23694428Y51994735D01*
X23889215Y51891782D01*
X24138263Y51841083D01*
X24422234Y51848237D01*
X24532136Y51866639D01*
X24762480Y51929851D01*
X24899864Y52007461D01*
X24952492Y52104468D01*
X24953600Y52123382D01*
X24926824Y52217222D01*
X24839751Y52252602D01*
X24682266Y52231363D01*
X24558840Y52195192D01*
X24370155Y52153482D01*
X24180537Y52143979D01*
X24015544Y52163795D01*
X23900735Y52210042D01*
X23861400Y52274007D01*
X23886172Y52314561D01*
X23971107Y52343481D01*
X24132131Y52364699D01*
X24272146Y52375384D01*
X24571067Y52410924D01*
X24782354Y52475863D01*
X24917056Y52575442D01*
X24986005Y52714023D01*
X24982646Y52890626D01*
X24892821Y53046693D01*
X24731607Y53158300D01*
X24697886Y53171233D01*
X24489213Y53220100D01*
X24270340Y53233485D01*
X24057494Y53216269D01*
X23866902Y53173335D01*
X23714790Y53109563D01*
X23617386Y53029837D01*
X23590916Y52939037D01*
X23640046Y52852983D01*
X23704980Y52802304D01*
X23774366Y52804372D01*
X23877962Y52852030D01*
X24046968Y52907418D01*
X24249975Y52929884D01*
X24447221Y52919134D01*
X24598943Y52874875D01*
X24626391Y52857566D01*
X24685170Y52784056D01*
X24645476Y52729525D01*
X24508766Y52694623D01*
X24276500Y52680001D01*
X24227178Y52679578D01*
X23934652Y52654358D01*
X23717561Y52583240D01*
X23581520Y52470818D01*
X23532140Y52321686D01*
G36*
X30796540Y52321686D02*
X30837640Y52144341D01*
X30958457Y51995084D01*
X31151750Y51892140D01*
X31397172Y51840515D01*
X31674375Y51845211D01*
X31884481Y51886904D01*
X32085880Y51962646D01*
X32205138Y52051306D01*
X32235285Y52145506D01*
X32194974Y52215599D01*
X32112723Y52263248D01*
X32005334Y52238054D01*
X31997897Y52234715D01*
X31818060Y52175597D01*
X31619601Y52145455D01*
X31426919Y52143133D01*
X31264411Y52167474D01*
X31156475Y52217321D01*
X31125800Y52276055D01*
X31152671Y52315732D01*
X31243205Y52344497D01*
X31412285Y52365903D01*
X31543571Y52375790D01*
X31852557Y52415048D01*
X32070889Y52488529D01*
X32204643Y52599364D01*
X32259232Y52744812D01*
X32237602Y52932632D01*
X32128602Y53079863D01*
X31940204Y53181024D01*
X31680380Y53230635D01*
X31546532Y53234733D01*
X31307706Y53214999D01*
X31105942Y53166483D01*
X30954542Y53097112D01*
X30866812Y53014808D01*
X30856054Y52927497D01*
X30913823Y52857856D01*
X30993803Y52817173D01*
X31087186Y52826552D01*
X31178892Y52860832D01*
X31356827Y52911308D01*
X31554357Y52931747D01*
X31738197Y52922516D01*
X31875063Y52883980D01*
X31916414Y52852729D01*
X31949825Y52775900D01*
X31898446Y52722798D01*
X31757349Y52691415D01*
X31521608Y52679741D01*
X31491578Y52679578D01*
X31199052Y52654358D01*
X30981961Y52583240D01*
X30845920Y52470818D01*
X30796540Y52321686D01*
X30796540Y52321686D01*
G37*
X30796540Y52321686D02*
X30837640Y52144341D01*
X30958457Y51995084D01*
X31151750Y51892140D01*
X31397172Y51840515D01*
X31674375Y51845211D01*
X31884481Y51886904D01*
X32085880Y51962646D01*
X32205138Y52051306D01*
X32235285Y52145506D01*
X32194974Y52215599D01*
X32112723Y52263248D01*
X32005334Y52238054D01*
X31997897Y52234715D01*
X31818060Y52175597D01*
X31619601Y52145455D01*
X31426919Y52143133D01*
X31264411Y52167474D01*
X31156475Y52217321D01*
X31125800Y52276055D01*
X31152671Y52315732D01*
X31243205Y52344497D01*
X31412285Y52365903D01*
X31543571Y52375790D01*
X31852557Y52415048D01*
X32070889Y52488529D01*
X32204643Y52599364D01*
X32259232Y52744812D01*
X32237602Y52932632D01*
X32128602Y53079863D01*
X31940204Y53181024D01*
X31680380Y53230635D01*
X31546532Y53234733D01*
X31307706Y53214999D01*
X31105942Y53166483D01*
X30954542Y53097112D01*
X30866812Y53014808D01*
X30856054Y52927497D01*
X30913823Y52857856D01*
X30993803Y52817173D01*
X31087186Y52826552D01*
X31178892Y52860832D01*
X31356827Y52911308D01*
X31554357Y52931747D01*
X31738197Y52922516D01*
X31875063Y52883980D01*
X31916414Y52852729D01*
X31949825Y52775900D01*
X31898446Y52722798D01*
X31757349Y52691415D01*
X31521608Y52679741D01*
X31491578Y52679578D01*
X31199052Y52654358D01*
X30981961Y52583240D01*
X30845920Y52470818D01*
X30796540Y52321686D01*
G36*
X29232782Y52573353D02*
X29234600Y52403799D01*
X29243211Y52100886D01*
X29258139Y51880944D01*
X29281599Y51725429D01*
X29315808Y51615795D01*
X29332933Y51580751D01*
X29474904Y51419142D01*
X29683932Y51302781D01*
X29932090Y51240846D01*
X30191451Y51242517D01*
X30296094Y51264144D01*
X30472284Y51337983D01*
X30586256Y51437637D01*
X30621279Y51546498D01*
X30613590Y51579254D01*
X30567970Y51643717D01*
X30486493Y51656413D01*
X30348178Y51617482D01*
X30258147Y51581633D01*
X30097118Y51531146D01*
X29953616Y51536654D01*
X29876969Y51556466D01*
X29707877Y51625683D01*
X29608097Y51724488D01*
X29554312Y51851671D01*
X29538476Y51925415D01*
X29571282Y51941343D01*
X29675603Y51910023D01*
X29678453Y51909030D01*
X29890241Y51870459D01*
X30121540Y51882511D01*
X30332546Y51939427D01*
X30471723Y52023803D01*
X30582417Y52139707D01*
X30652569Y52255741D01*
X30694327Y52403226D01*
X30719837Y52613484D01*
X30724878Y52676596D01*
X30728625Y52947405D01*
X30693144Y53131332D01*
X30619300Y53225303D01*
X30567000Y53237600D01*
X30478116Y53192567D01*
X30420088Y53055903D01*
X30392155Y52825264D01*
X30389200Y52690014D01*
X30382733Y52484762D01*
X30359621Y52354443D01*
X30314300Y52272992D01*
X30296300Y52254874D01*
X30159085Y52189000D01*
X29977161Y52172327D01*
X29794219Y52203978D01*
X29671531Y52267424D01*
X29610566Y52328921D01*
X29572227Y52409807D01*
X29549543Y52535897D01*
X29535542Y52733011D01*
X29533355Y52779148D01*
X29518168Y53001418D01*
X29494684Y53139166D01*
X29459210Y53209364D01*
X29436506Y53224178D01*
X29356496Y53232381D01*
X29298366Y53180530D01*
X29259868Y53059494D01*
X29238756Y52860145D01*
X29232782Y52573353D01*
X29232782Y52573353D01*
G37*
X29232782Y52573353D02*
X29234600Y52403799D01*
X29243211Y52100886D01*
X29258139Y51880944D01*
X29281599Y51725429D01*
X29315808Y51615795D01*
X29332933Y51580751D01*
X29474904Y51419142D01*
X29683932Y51302781D01*
X29932090Y51240846D01*
X30191451Y51242517D01*
X30296094Y51264144D01*
X30472284Y51337983D01*
X30586256Y51437637D01*
X30621279Y51546498D01*
X30613590Y51579254D01*
X30567970Y51643717D01*
X30486493Y51656413D01*
X30348178Y51617482D01*
X30258147Y51581633D01*
X30097118Y51531146D01*
X29953616Y51536654D01*
X29876969Y51556466D01*
X29707877Y51625683D01*
X29608097Y51724488D01*
X29554312Y51851671D01*
X29538476Y51925415D01*
X29571282Y51941343D01*
X29675603Y51910023D01*
X29678453Y51909030D01*
X29890241Y51870459D01*
X30121540Y51882511D01*
X30332546Y51939427D01*
X30471723Y52023803D01*
X30582417Y52139707D01*
X30652569Y52255741D01*
X30694327Y52403226D01*
X30719837Y52613484D01*
X30724878Y52676596D01*
X30728625Y52947405D01*
X30693144Y53131332D01*
X30619300Y53225303D01*
X30567000Y53237600D01*
X30478116Y53192567D01*
X30420088Y53055903D01*
X30392155Y52825264D01*
X30389200Y52690014D01*
X30382733Y52484762D01*
X30359621Y52354443D01*
X30314300Y52272992D01*
X30296300Y52254874D01*
X30159085Y52189000D01*
X29977161Y52172327D01*
X29794219Y52203978D01*
X29671531Y52267424D01*
X29610566Y52328921D01*
X29572227Y52409807D01*
X29549543Y52535897D01*
X29535542Y52733011D01*
X29533355Y52779148D01*
X29518168Y53001418D01*
X29494684Y53139166D01*
X29459210Y53209364D01*
X29436506Y53224178D01*
X29356496Y53232381D01*
X29298366Y53180530D01*
X29259868Y53059494D01*
X29238756Y52860145D01*
X29232782Y52573353D01*
X44566666Y96283334D02*
X44900000Y96283334D01*
X44900000Y96983334D01*
X44333333Y96283334D02*
X44333333Y96983334D01*
X44100000Y96483334D01*
X43866666Y96983334D01*
X43866666Y96283334D01*
X43600000Y96983334D02*
X43166666Y96983334D01*
X43400000Y96716667D01*
X43300000Y96716667D01*
X43233333Y96683334D01*
X43200000Y96650000D01*
X43166666Y96583334D01*
X43166666Y96416667D01*
X43200000Y96350000D01*
X43233333Y96316667D01*
X43300000Y96283334D01*
X43500000Y96283334D01*
X43566666Y96316667D01*
X43600000Y96350000D01*
X42933333Y96983334D02*
X42500000Y96983334D01*
X42733333Y96716667D01*
X42633333Y96716667D01*
X42566666Y96683334D01*
X42533333Y96650000D01*
X42500000Y96583334D01*
X42500000Y96416667D01*
X42533333Y96350000D01*
X42566666Y96316667D01*
X42633333Y96283334D01*
X42833333Y96283334D01*
X42900000Y96316667D01*
X42933333Y96350000D01*
X42266666Y96983334D02*
X41800000Y96983334D01*
X42100000Y96283334D01*
X41200000Y96283334D02*
X41533333Y96283334D01*
X41533333Y96983334D01*
X43816666Y97283334D02*
X43816666Y97983334D01*
X43650000Y97983334D01*
X43550000Y97950000D01*
X43483333Y97883334D01*
X43450000Y97816667D01*
X43416666Y97683334D01*
X43416666Y97583334D01*
X43450000Y97450000D01*
X43483333Y97383334D01*
X43550000Y97316667D01*
X43650000Y97283334D01*
X43816666Y97283334D01*
X43150000Y97483334D02*
X42816666Y97483334D01*
X43216666Y97283334D02*
X42983333Y97983334D01*
X42750000Y97283334D01*
X42216666Y97983334D02*
X42350000Y97983334D01*
X42416666Y97950000D01*
X42450000Y97916667D01*
X42516666Y97816667D01*
X42550000Y97683334D01*
X42550000Y97416667D01*
X42516666Y97350000D01*
X42483333Y97316667D01*
X42416666Y97283334D01*
X42283333Y97283334D01*
X42216666Y97316667D01*
X42183333Y97350000D01*
X42150000Y97416667D01*
X42150000Y97583334D01*
X42183333Y97650000D01*
X42216666Y97683334D01*
X42283333Y97716667D01*
X42416666Y97716667D01*
X42483333Y97683334D01*
X42516666Y97650000D01*
X42550000Y97583334D01*
X39566666Y96283334D02*
X39900000Y96283334D01*
X39900000Y96983334D01*
X39333333Y96283334D02*
X39333333Y96983334D01*
X39100000Y96483334D01*
X38866666Y96983334D01*
X38866666Y96283334D01*
X38600000Y96983334D02*
X38166666Y96983334D01*
X38400000Y96716667D01*
X38300000Y96716667D01*
X38233333Y96683334D01*
X38200000Y96650000D01*
X38166666Y96583334D01*
X38166666Y96416667D01*
X38200000Y96350000D01*
X38233333Y96316667D01*
X38300000Y96283334D01*
X38500000Y96283334D01*
X38566666Y96316667D01*
X38600000Y96350000D01*
X37500000Y96283334D02*
X37900000Y96283334D01*
X37700000Y96283334D02*
X37700000Y96983334D01*
X37766666Y96883334D01*
X37833333Y96816667D01*
X37900000Y96783334D01*
X37266666Y96983334D02*
X36800000Y96983334D01*
X37100000Y96283334D01*
X36200000Y96283334D02*
X36533333Y96283334D01*
X36533333Y96983334D01*
X38916666Y97283334D02*
X38916666Y97983334D01*
X38750000Y97983334D01*
X38650000Y97950000D01*
X38583333Y97883334D01*
X38550000Y97816667D01*
X38516666Y97683334D01*
X38516666Y97583334D01*
X38550000Y97450000D01*
X38583333Y97383334D01*
X38650000Y97316667D01*
X38750000Y97283334D01*
X38916666Y97283334D01*
X38250000Y97483334D02*
X37916666Y97483334D01*
X38316666Y97283334D02*
X38083333Y97983334D01*
X37850000Y97283334D01*
X37683333Y97983334D02*
X37216666Y97983334D01*
X37516666Y97283334D01*
X30116666Y98050000D02*
X30150000Y98016667D01*
X30250000Y97983334D01*
X30316666Y97983334D01*
X30416666Y98016667D01*
X30483333Y98083334D01*
X30516666Y98150000D01*
X30550000Y98283334D01*
X30550000Y98383334D01*
X30516666Y98516667D01*
X30483333Y98583334D01*
X30416666Y98650000D01*
X30316666Y98683334D01*
X30250000Y98683334D01*
X30150000Y98650000D01*
X30116666Y98616667D01*
X29883333Y98683334D02*
X29450000Y98683334D01*
X29683333Y98416667D01*
X29583333Y98416667D01*
X29516666Y98383334D01*
X29483333Y98350000D01*
X29450000Y98283334D01*
X29450000Y98116667D01*
X29483333Y98050000D01*
X29516666Y98016667D01*
X29583333Y97983334D01*
X29783333Y97983334D01*
X29850000Y98016667D01*
X29883333Y98050000D01*
X34966666Y97450000D02*
X34966666Y96983334D01*
X35133333Y97716667D02*
X35300000Y97216667D01*
X34866666Y97216667D01*
X34666666Y97683334D02*
X34200000Y97683334D01*
X34500000Y96983334D01*
X33633333Y97450000D02*
X33633333Y96983334D01*
X33933333Y97450000D02*
X33933333Y97083334D01*
X33900000Y97016667D01*
X33833333Y96983334D01*
X33733333Y96983334D01*
X33666666Y97016667D01*
X33633333Y97050000D01*
X33066666Y97350000D02*
X33300000Y97350000D01*
X33300000Y96983334D02*
X33300000Y97683334D01*
X32966666Y97683334D01*
X32766666Y96983334D02*
X32400000Y97450000D01*
X32766666Y97450000D02*
X32400000Y96983334D01*
X32166666Y97616667D02*
X32133333Y97650000D01*
X32066666Y97683334D01*
X31900000Y97683334D01*
X31833333Y97650000D01*
X31800000Y97616667D01*
X31766666Y97550000D01*
X31766666Y97483334D01*
X31800000Y97383334D01*
X32200000Y96983334D01*
X31766666Y96983334D01*
X31133333Y97683334D02*
X31466666Y97683334D01*
X31500000Y97350000D01*
X31466666Y97383334D01*
X31400000Y97416667D01*
X31233333Y97416667D01*
X31166666Y97383334D01*
X31133333Y97350000D01*
X31100000Y97283334D01*
X31100000Y97116667D01*
X31133333Y97050000D01*
X31166666Y97016667D01*
X31233333Y96983334D01*
X31400000Y96983334D01*
X31466666Y97016667D01*
X31500000Y97050000D01*
X30900000Y97683334D02*
X30666666Y96983334D01*
X30433333Y97683334D01*
X29666666Y97350000D02*
X29666666Y96883334D01*
X29833333Y97616667D02*
X30000000Y97116667D01*
X29566666Y97116667D01*
X29366666Y97583334D02*
X28900000Y97583334D01*
X29200000Y96883334D01*
X28333333Y97350000D02*
X28333333Y96883334D01*
X28633333Y97350000D02*
X28633333Y96983334D01*
X28600000Y96916667D01*
X28533333Y96883334D01*
X28433333Y96883334D01*
X28366666Y96916667D01*
X28333333Y96950000D01*
X27766666Y97250000D02*
X28000000Y97250000D01*
X28000000Y96883334D02*
X28000000Y97583334D01*
X27666666Y97583334D01*
X27466666Y96883334D02*
X27100000Y97350000D01*
X27466666Y97350000D02*
X27100000Y96883334D01*
X26866666Y97516667D02*
X26833333Y97550000D01*
X26766666Y97583334D01*
X26600000Y97583334D01*
X26533333Y97550000D01*
X26500000Y97516667D01*
X26466666Y97450000D01*
X26466666Y97383334D01*
X26500000Y97283334D01*
X26900000Y96883334D01*
X26466666Y96883334D01*
X25833333Y97583334D02*
X26166666Y97583334D01*
X26200000Y97250000D01*
X26166666Y97283334D01*
X26100000Y97316667D01*
X25933333Y97316667D01*
X25866666Y97283334D01*
X25833333Y97250000D01*
X25800000Y97183334D01*
X25800000Y97016667D01*
X25833333Y96950000D01*
X25866666Y96916667D01*
X25933333Y96883334D01*
X26100000Y96883334D01*
X26166666Y96916667D01*
X26200000Y96950000D01*
X25600000Y97583334D02*
X25366666Y96883334D01*
X25133333Y97583334D01*
X27216666Y98350000D02*
X27250000Y98316667D01*
X27350000Y98283334D01*
X27416666Y98283334D01*
X27516666Y98316667D01*
X27583333Y98383334D01*
X27616666Y98450000D01*
X27650000Y98583334D01*
X27650000Y98683334D01*
X27616666Y98816667D01*
X27583333Y98883334D01*
X27516666Y98950000D01*
X27416666Y98983334D01*
X27350000Y98983334D01*
X27250000Y98950000D01*
X27216666Y98916667D01*
X26616666Y98750000D02*
X26616666Y98283334D01*
X26783333Y99016667D02*
X26950000Y98516667D01*
X26516666Y98516667D01*
X11516666Y96283334D02*
X11050000Y95583334D01*
X11050000Y96283334D02*
X11516666Y95583334D01*
X10783333Y95583334D02*
X10783333Y96283334D01*
X10516666Y96283334D01*
X10450000Y96250000D01*
X10416666Y96216667D01*
X10383333Y96150000D01*
X10383333Y96050000D01*
X10416666Y95983334D01*
X10450000Y95950000D01*
X10516666Y95916667D01*
X10783333Y95916667D01*
X9716666Y95583334D02*
X10116666Y95583334D01*
X9916666Y95583334D02*
X9916666Y96283334D01*
X9983333Y96183334D01*
X10050000Y96116667D01*
X10116666Y96083334D01*
X4700000Y77283334D02*
X4233333Y76583334D01*
X4233333Y77283334D02*
X4700000Y76583334D01*
X4000000Y76616667D02*
X3900000Y76583334D01*
X3733333Y76583334D01*
X3666666Y76616667D01*
X3633333Y76650000D01*
X3600000Y76716667D01*
X3600000Y76783334D01*
X3633333Y76850000D01*
X3666666Y76883334D01*
X3733333Y76916667D01*
X3866666Y76950000D01*
X3933333Y76983334D01*
X3966666Y77016667D01*
X4000000Y77083334D01*
X4000000Y77150000D01*
X3966666Y77216667D01*
X3933333Y77250000D01*
X3866666Y77283334D01*
X3700000Y77283334D01*
X3600000Y77250000D01*
X3200000Y76983334D02*
X3266666Y77016667D01*
X3300000Y77050000D01*
X3333333Y77116667D01*
X3333333Y77150000D01*
X3300000Y77216667D01*
X3266666Y77250000D01*
X3200000Y77283334D01*
X3066666Y77283334D01*
X3000000Y77250000D01*
X2966666Y77216667D01*
X2933333Y77150000D01*
X2933333Y77116667D01*
X2966666Y77050000D01*
X3000000Y77016667D01*
X3066666Y76983334D01*
X3200000Y76983334D01*
X3266666Y76950000D01*
X3300000Y76916667D01*
X3333333Y76850000D01*
X3333333Y76716667D01*
X3300000Y76650000D01*
X3266666Y76616667D01*
X3200000Y76583334D01*
X3066666Y76583334D01*
X3000000Y76616667D01*
X2966666Y76650000D01*
X2933333Y76716667D01*
X2933333Y76850000D01*
X2966666Y76916667D01*
X3000000Y76950000D01*
X3066666Y76983334D01*
X56100000Y77083334D02*
X55633333Y76383334D01*
X55633333Y77083334D02*
X56100000Y76383334D01*
X55400000Y76416667D02*
X55300000Y76383334D01*
X55133333Y76383334D01*
X55066666Y76416667D01*
X55033333Y76450000D01*
X55000000Y76516667D01*
X55000000Y76583334D01*
X55033333Y76650000D01*
X55066666Y76683334D01*
X55133333Y76716667D01*
X55266666Y76750000D01*
X55333333Y76783334D01*
X55366666Y76816667D01*
X55400000Y76883334D01*
X55400000Y76950000D01*
X55366666Y77016667D01*
X55333333Y77050000D01*
X55266666Y77083334D01*
X55100000Y77083334D01*
X55000000Y77050000D01*
X54666666Y76383334D02*
X54533333Y76383334D01*
X54466666Y76416667D01*
X54433333Y76450000D01*
X54366666Y76550000D01*
X54333333Y76683334D01*
X54333333Y76950000D01*
X54366666Y77016667D01*
X54400000Y77050000D01*
X54466666Y77083334D01*
X54600000Y77083334D01*
X54666666Y77050000D01*
X54700000Y77016667D01*
X54733333Y76950000D01*
X54733333Y76783334D01*
X54700000Y76716667D01*
X54666666Y76683334D01*
X54600000Y76650000D01*
X54466666Y76650000D01*
X54400000Y76683334D01*
X54366666Y76716667D01*
X54333333Y76783334D01*
X5333333Y25583334D02*
X4866666Y24883334D01*
X4866666Y25583334D02*
X5333333Y24883334D01*
X4633333Y24916667D02*
X4533333Y24883334D01*
X4366666Y24883334D01*
X4300000Y24916667D01*
X4266666Y24950000D01*
X4233333Y25016667D01*
X4233333Y25083334D01*
X4266666Y25150000D01*
X4300000Y25183334D01*
X4366666Y25216667D01*
X4500000Y25250000D01*
X4566666Y25283334D01*
X4600000Y25316667D01*
X4633333Y25383334D01*
X4633333Y25450000D01*
X4600000Y25516667D01*
X4566666Y25550000D01*
X4500000Y25583334D01*
X4333333Y25583334D01*
X4233333Y25550000D01*
X3566666Y24883334D02*
X3966666Y24883334D01*
X3766666Y24883334D02*
X3766666Y25583334D01*
X3833333Y25483334D01*
X3900000Y25416667D01*
X3966666Y25383334D01*
X3133333Y25583334D02*
X3066666Y25583334D01*
X3000000Y25550000D01*
X2966666Y25516667D01*
X2933333Y25450000D01*
X2900000Y25316667D01*
X2900000Y25150000D01*
X2933333Y25016667D01*
X2966666Y24950000D01*
X3000000Y24916667D01*
X3066666Y24883334D01*
X3133333Y24883334D01*
X3200000Y24916667D01*
X3233333Y24950000D01*
X3266666Y25016667D01*
X3300000Y25150000D01*
X3300000Y25316667D01*
X3266666Y25450000D01*
X3233333Y25516667D01*
X3200000Y25550000D01*
X3133333Y25583334D01*
X56233333Y25383334D02*
X55766666Y24683334D01*
X55766666Y25383334D02*
X56233333Y24683334D01*
X55533333Y24716667D02*
X55433333Y24683334D01*
X55266666Y24683334D01*
X55200000Y24716667D01*
X55166666Y24750000D01*
X55133333Y24816667D01*
X55133333Y24883334D01*
X55166666Y24950000D01*
X55200000Y24983334D01*
X55266666Y25016667D01*
X55400000Y25050000D01*
X55466666Y25083334D01*
X55500000Y25116667D01*
X55533333Y25183334D01*
X55533333Y25250000D01*
X55500000Y25316667D01*
X55466666Y25350000D01*
X55400000Y25383334D01*
X55233333Y25383334D01*
X55133333Y25350000D01*
X54466666Y24683334D02*
X54866666Y24683334D01*
X54666666Y24683334D02*
X54666666Y25383334D01*
X54733333Y25283334D01*
X54800000Y25216667D01*
X54866666Y25183334D01*
X53800000Y24683334D02*
X54200000Y24683334D01*
X54000000Y24683334D02*
X54000000Y25383334D01*
X54066666Y25283334D01*
X54133333Y25216667D01*
X54200000Y25183334D01*
X57300000Y96683334D02*
X57700000Y96683334D01*
X57500000Y96683334D02*
X57500000Y97383334D01*
X57566666Y97283334D01*
X57633333Y97216667D01*
X57700000Y97183334D01*
X56866666Y97383334D02*
X56800000Y97383334D01*
X56733333Y97350000D01*
X56700000Y97316667D01*
X56666666Y97250000D01*
X56633333Y97116667D01*
X56633333Y96950000D01*
X56666666Y96816667D01*
X56700000Y96750000D01*
X56733333Y96716667D01*
X56800000Y96683334D01*
X56866666Y96683334D01*
X56933333Y96716667D01*
X56966666Y96750000D01*
X57000000Y96816667D01*
X57033333Y96950000D01*
X57033333Y97116667D01*
X57000000Y97250000D01*
X56966666Y97316667D01*
X56933333Y97350000D01*
X56866666Y97383334D01*
X56033333Y97150000D02*
X56033333Y96683334D01*
X56333333Y97150000D02*
X56333333Y96783334D01*
X56300000Y96716667D01*
X56233333Y96683334D01*
X56133333Y96683334D01*
X56066666Y96716667D01*
X56033333Y96750000D01*
X55466666Y97050000D02*
X55700000Y97050000D01*
X55700000Y96683334D02*
X55700000Y97383334D01*
X55366666Y97383334D01*
X55166666Y96683334D02*
X54800000Y97150000D01*
X55166666Y97150000D02*
X54800000Y96683334D01*
X54566666Y97316667D02*
X54533333Y97350000D01*
X54466666Y97383334D01*
X54300000Y97383334D01*
X54233333Y97350000D01*
X54200000Y97316667D01*
X54166666Y97250000D01*
X54166666Y97183334D01*
X54200000Y97083334D01*
X54600000Y96683334D01*
X54166666Y96683334D01*
X53533333Y97383334D02*
X53866666Y97383334D01*
X53900000Y97050000D01*
X53866666Y97083334D01*
X53800000Y97116667D01*
X53633333Y97116667D01*
X53566666Y97083334D01*
X53533333Y97050000D01*
X53500000Y96983334D01*
X53500000Y96816667D01*
X53533333Y96750000D01*
X53566666Y96716667D01*
X53633333Y96683334D01*
X53800000Y96683334D01*
X53866666Y96716667D01*
X53900000Y96750000D01*
X53300000Y97383334D02*
X53066666Y96683334D01*
X52833333Y97383334D01*
X55750000Y104250000D02*
X55783333Y104216667D01*
X55883333Y104183334D01*
X55950000Y104183334D01*
X56050000Y104216667D01*
X56116666Y104283334D01*
X56150000Y104350000D01*
X56183333Y104483334D01*
X56183333Y104583334D01*
X56150000Y104716667D01*
X56116666Y104783334D01*
X56050000Y104850000D01*
X55950000Y104883334D01*
X55883333Y104883334D01*
X55783333Y104850000D01*
X55750000Y104816667D01*
X55516666Y104883334D02*
X55083333Y104883334D01*
X55316666Y104616667D01*
X55216666Y104616667D01*
X55150000Y104583334D01*
X55116666Y104550000D01*
X55083333Y104483334D01*
X55083333Y104316667D01*
X55116666Y104250000D01*
X55150000Y104216667D01*
X55216666Y104183334D01*
X55416666Y104183334D01*
X55483333Y104216667D01*
X55516666Y104250000D01*
X54850000Y104883334D02*
X54416666Y104883334D01*
X54650000Y104616667D01*
X54550000Y104616667D01*
X54483333Y104583334D01*
X54450000Y104550000D01*
X54416666Y104483334D01*
X54416666Y104316667D01*
X54450000Y104250000D01*
X54483333Y104216667D01*
X54550000Y104183334D01*
X54750000Y104183334D01*
X54816666Y104216667D01*
X54850000Y104250000D01*
X51100000Y94983334D02*
X51500000Y94983334D01*
X51300000Y94983334D02*
X51300000Y95683334D01*
X51366666Y95583334D01*
X51433333Y95516667D01*
X51500000Y95483334D01*
X50666666Y95683334D02*
X50600000Y95683334D01*
X50533333Y95650000D01*
X50500000Y95616667D01*
X50466666Y95550000D01*
X50433333Y95416667D01*
X50433333Y95250000D01*
X50466666Y95116667D01*
X50500000Y95050000D01*
X50533333Y95016667D01*
X50600000Y94983334D01*
X50666666Y94983334D01*
X50733333Y95016667D01*
X50766666Y95050000D01*
X50800000Y95116667D01*
X50833333Y95250000D01*
X50833333Y95416667D01*
X50800000Y95550000D01*
X50766666Y95616667D01*
X50733333Y95650000D01*
X50666666Y95683334D01*
X49833333Y95450000D02*
X49833333Y94983334D01*
X50133333Y95450000D02*
X50133333Y95083334D01*
X50100000Y95016667D01*
X50033333Y94983334D01*
X49933333Y94983334D01*
X49866666Y95016667D01*
X49833333Y95050000D01*
X49266666Y95350000D02*
X49500000Y95350000D01*
X49500000Y94983334D02*
X49500000Y95683334D01*
X49166666Y95683334D01*
X48966666Y94983334D02*
X48600000Y95450000D01*
X48966666Y95450000D02*
X48600000Y94983334D01*
X48366666Y95616667D02*
X48333333Y95650000D01*
X48266666Y95683334D01*
X48100000Y95683334D01*
X48033333Y95650000D01*
X48000000Y95616667D01*
X47966666Y95550000D01*
X47966666Y95483334D01*
X48000000Y95383334D01*
X48400000Y94983334D01*
X47966666Y94983334D01*
X47333333Y95683334D02*
X47666666Y95683334D01*
X47700000Y95350000D01*
X47666666Y95383334D01*
X47600000Y95416667D01*
X47433333Y95416667D01*
X47366666Y95383334D01*
X47333333Y95350000D01*
X47300000Y95283334D01*
X47300000Y95116667D01*
X47333333Y95050000D01*
X47366666Y95016667D01*
X47433333Y94983334D01*
X47600000Y94983334D01*
X47666666Y95016667D01*
X47700000Y95050000D01*
X47100000Y95683334D02*
X46866666Y94983334D01*
X46633333Y95683334D01*
X49550000Y102550000D02*
X49583333Y102516667D01*
X49683333Y102483334D01*
X49750000Y102483334D01*
X49850000Y102516667D01*
X49916666Y102583334D01*
X49950000Y102650000D01*
X49983333Y102783334D01*
X49983333Y102883334D01*
X49950000Y103016667D01*
X49916666Y103083334D01*
X49850000Y103150000D01*
X49750000Y103183334D01*
X49683333Y103183334D01*
X49583333Y103150000D01*
X49550000Y103116667D01*
X49316666Y103183334D02*
X48883333Y103183334D01*
X49116666Y102916667D01*
X49016666Y102916667D01*
X48950000Y102883334D01*
X48916666Y102850000D01*
X48883333Y102783334D01*
X48883333Y102616667D01*
X48916666Y102550000D01*
X48950000Y102516667D01*
X49016666Y102483334D01*
X49216666Y102483334D01*
X49283333Y102516667D01*
X49316666Y102550000D01*
X48283333Y103183334D02*
X48416666Y103183334D01*
X48483333Y103150000D01*
X48516666Y103116667D01*
X48583333Y103016667D01*
X48616666Y102883334D01*
X48616666Y102616667D01*
X48583333Y102550000D01*
X48550000Y102516667D01*
X48483333Y102483334D01*
X48350000Y102483334D01*
X48283333Y102516667D01*
X48250000Y102550000D01*
X48216666Y102616667D01*
X48216666Y102783334D01*
X48250000Y102850000D01*
X48283333Y102883334D01*
X48350000Y102916667D01*
X48483333Y102916667D01*
X48550000Y102883334D01*
X48583333Y102850000D01*
X48616666Y102783334D01*
M02*
