M48
;DRILL file {KiCad (5.0.0-rc2-dev)} date Thu Jun 18 08:05:51 2020
;FORMAT={-:-/ absolute / inch / decimal}
FMAT,2
INCH,TZ
T1C0.0197
T2C0.0276
T3C0.0315
T4C0.0354
T5C0.0394
T6C0.0433
T7C0.0551
%
G90
G05
M72
T1
X0.0472Y1.7677
X0.0512Y0.3583
X0.0551Y1.4528
X0.0551Y0.0472
X0.0669Y4.1142
X0.0669Y3.9449
X0.0709Y2.3425
X0.1024Y3.189
X0.1339Y2.6339
X0.1811Y1.3858
X0.1969Y3.2402
X0.2205Y2.063
X0.2441Y2.9331
X0.2559Y0.4567
X0.2638Y3.0827
X0.2756Y1.6496
X0.2835Y3.3228
X0.2874Y3.5591
X0.2874Y3.4764
X0.2992Y0.811
X0.3465Y0.6063
X0.3583Y2.5748
X0.3701Y1.0787
X0.4016Y2.8268
X0.4094Y3.4252
X0.4134Y1.4843
X0.4291Y3.2795
X0.4409Y3.7598
X0.4961Y3.4488
X0.4961Y1.4173
X0.5079Y1.7126
X0.5906Y2.3031
X0.5945Y0.811
X0.6142Y1.685
X0.6181Y1.9606
X0.622Y2.6693
X0.626Y1.3189
X0.6417Y0.5709
X0.6772Y1.5079
X0.689Y3.2559
X0.689Y0.374
X0.6929Y4.0276
X0.6969Y2.7402
X0.7087Y2.6496
X0.7244Y3.5118
X0.7323Y1.9488
X0.7441Y0.9331
X0.7598Y3.8071
X0.7835Y0.6339
X0.8031Y2.8228
X0.8425Y3.4213
X0.8543Y1.0748
X0.8583Y0.9055
X0.8701Y1.8307
X0.8701Y1.5079
X0.878Y3.5827
X0.8819Y1.5669
X0.8937Y1.6378
X0.9961Y0.6654
X1.0157Y1.2165
X1.0394Y2.4764
X1.0472Y2.9528
X1.0472Y1.6063
X1.063Y3.2913
X1.0748Y2.1535
X1.0787Y1.7283
X1.0827Y3.5945
X1.1024Y1.3583
X1.1102Y3.4173
X1.1142Y3.3307
X1.1181Y0.3701
X1.126Y2.748
X1.1417Y3.2441
X1.1614Y2.9646
X1.1811Y1.5669
X1.2047Y0.7598
X1.2165Y0.9843
X1.2244Y1.6181
X1.252Y1.248
X1.2598Y3.2913
X1.2638Y1.9016
X1.2756Y2.4646
X1.2756Y1.6772
X1.311Y3.5906
X1.3228Y0.9173
X1.3425Y3.4921
X1.3622Y2.1024
X1.3661Y1.9016
X1.3661Y1.3543
X1.378Y3.0039
X1.378Y2.8543
X1.3976Y1.2047
X1.4016Y3.9528
X1.4409Y4.126
X1.4488Y1.626
X1.4764Y3.4921
X1.4764Y1.311
X1.4803Y1.4252
X1.4921Y1.8071
X1.5157Y1.9016
X1.5236Y1.0787
X1.5276Y3.7283
X1.563Y1.7402
X1.5669Y3.5472
X1.5827Y4.1181
X1.5827Y4.0039
X1.5906Y0.4055
X1.6024Y3.0827
X1.6024Y1.2087
X1.6142Y2.3858
X1.622Y3.8976
X1.6378Y3.1299
X1.6417Y3.3228
X1.6496Y3.378
X1.6575Y3.4331
X1.6732Y1.9213
X1.6732Y1.7402
X1.689Y1.5315
X1.6929Y2.8976
X1.7008Y3.5315
X1.7008Y0.9016
X1.7087Y3.0827
X1.7126Y3.4764
X1.7205Y1.4213
X1.7402Y3.378
X1.7441Y4.1299
X1.7598Y1.311
X1.7835Y3.8937
X1.7992Y3.6063
X1.8031Y0.8465
X1.8071Y3.4764
X1.811Y2.1614
X1.8307Y0.9843
X1.8622Y1.7913
X1.8661Y3.1339
X1.8819Y3.748
X1.8819Y1.4213
X1.9016Y4.0236
X1.9213Y3.1102
X1.937Y0.4291
X1.9528Y3.5354
X1.9567Y3.4764
X1.9567Y3.378
X1.9606Y3.1378
X2.0157Y3.1378
X2.0354Y2.8228
X2.0354Y2.2441
X2.0472Y3.4764
X2.0472Y3.378
X2.0591Y3.5354
X2.063Y0.9843
X2.0866Y3.7598
X2.0945Y1.4724
X2.1063Y3.3543
X2.1102Y0.8622
X2.1181Y1.6535
X2.122Y3.0945
X2.126Y2.9921
X2.1457Y0.8976
X2.1535Y1.3583
X2.1614Y2.8898
X2.1811Y2.5709
X2.1929Y1.1181
X2.1929Y0.9843
X2.248Y2.4252
X2.248Y1.4724
X2.252Y1.8858
X2.2559Y0.0669
X2.2638Y4.1181
X2.2835Y2.0197
T2
X1.1795Y4.1181
X1.3795Y4.1181
X1.4711Y3.9567
X1.5211Y4.0067
X1.5211Y3.9067
X2.1693Y3.4031
X2.1693Y3.2031
X1.8331Y4.0394
X2.0331Y4.0394
X0.811Y3.7024
X0.811Y3.5024
X2.1693Y3.6748
X2.1693Y3.4748
X1.1638Y0.6575
X1.3638Y0.6575
X1.8331Y4.1181
X2.0331Y4.1181
X1.4591Y3.7165
X1.6591Y3.7165
X0.3425Y3.7102
X0.3425Y3.6102
X0.3425Y3.5102
X1.6679Y3.9567
X1.7179Y4.0067
X1.7179Y3.9067
T3
X0.6476Y3.5295
X0.6831Y3.7303
X0.6693Y0.7756
X0.9685Y0.7756
X1.0394Y1.7835
X1.0394Y1.4843
X0.6693Y0.8622
X0.9685Y0.8622
X1.5197Y1.5118
X1.8189Y1.5118
X1.5315Y1.9764
X1.5315Y1.6772
X0.5098Y3.5295
X0.5453Y3.7303
X1.1378Y1.7835
X1.1378Y1.4843
X1.622Y1.9764
X1.622Y1.6772
X1.5197Y1.5984
X1.8189Y1.5984
X1.2323Y1.7835
X1.2323Y1.4843
X1.3268Y1.7835
X1.3268Y1.4843
X1.4252Y1.7835
X1.4252Y1.4843
X0.9449Y1.7835
X0.9449Y1.4843
T4
X0.9665Y4.0315
X1.065Y4.0315
X2.1319Y3.9685
X2.2303Y3.9685
X1.2303Y3.9921
X1.3287Y3.9921
X1.8839Y3.8976
X1.9823Y3.8976
T5
X2.0669Y3.6811
X2.0669Y3.2874
X0.4724Y2.0079
X0.5709Y2.0079
X0.6693Y2.0079
X1.7323Y1.8465
X2.126Y1.8465
X0.2756Y0.6772
X0.6693Y0.6772
X1.7717Y1.0512
X1.7717Y0.6575
X0.0492Y1.3343
X0.0492Y1.2343
X0.0492Y1.1343
X0.0492Y1.0343
X0.0492Y0.9343
X0.0492Y0.8343
X0.0492Y0.7343
X0.0492Y0.6343
X1.1693Y1.2992
X1.1693Y0.9055
X0.5638Y3.1772
X0.9638Y3.1772
X0.5669Y2.9252
X0.9606Y2.9252
X1.5354Y1.2717
X1.9291Y1.2717
X1.0512Y1.2992
X1.0512Y0.9055
X0.4724Y0.9843
X0.5709Y0.9843
X0.6693Y0.9843
X1.2283Y1.3819
X1.622Y1.3819
X2.2736Y1.3343
X2.2736Y1.2343
X2.2736Y1.1343
X2.2736Y1.0343
X2.2736Y0.9343
X2.2736Y0.8343
X2.2736Y0.7343
X2.2736Y0.6343
X0.5638Y3.4094
X0.9638Y3.4094
X0.5638Y3.2913
X0.9638Y3.2913
X1.063Y3.4646
X1.1614Y3.4646
X1.2598Y3.4646
X1.7323Y1.9764
X2.126Y1.9764
X0.0492Y3.539
X0.0492Y3.439
X0.0492Y3.339
X0.0492Y3.239
X0.0492Y3.139
X0.0492Y3.039
X0.0492Y2.939
X0.0492Y2.839
X0.5669Y2.8031
X0.9606Y2.8031
X0.2008Y1.2126
X0.2008Y0.8189
X1.7717Y0.5472
X1.7717Y0.1535
X1.6929Y3.622
X1.6929Y3.2283
X2.2736Y3.539
X2.2736Y3.439
X2.2736Y3.339
X2.2736Y3.239
X2.2736Y3.139
X2.2736Y3.039
X2.2736Y2.939
X2.2736Y2.839
X1.9449Y3.6811
X1.9449Y3.2874
X1.8228Y3.6811
X1.8228Y3.2874
X0.874Y1.3819
X0.874Y0.9882
X1.1654Y0.5433
X1.1654Y0.1496
X1.4488Y3.622
X1.4488Y3.2283
X1.5709Y3.622
X1.5709Y3.2283
X0.5638Y3.0591
X0.9638Y3.0591
X0.2134Y4.0343
X0.2134Y3.9343
X0.3134Y4.0343
X0.3134Y3.9343
X0.4134Y4.0343
X0.4134Y3.9343
X0.5134Y4.0343
X0.5134Y3.9343
X0.6134Y4.0343
X0.6134Y3.9343
X0.5472Y0.5433
X0.5472Y0.1496
T6
X0.2756Y0.5443
X0.2756Y0.2243
X0.2756Y0.1043
X0.8661Y0.5443
X0.8661Y0.2243
X0.8661Y0.1043
X2.0472Y1.7254
X2.0472Y1.4054
X2.0472Y1.2854
X2.0472Y1.1349
X2.0472Y0.8149
X2.0472Y0.6949
X1.4567Y0.5443
X1.4567Y0.2243
X1.4567Y0.1043
X1.4567Y1.1349
X1.4567Y0.8149
X1.4567Y0.6949
X2.0472Y0.5443
X2.0472Y0.2243
X2.0472Y0.1043
T7
X0.7677Y1.2598
X0.9646Y3.7402
X1.3583Y3.7402
X0.374Y2.2835
X0.7677Y2.2835
X0.374Y1.2598
T0
M30
