%FSLAX45Y45*%
G04 Gerber Fmt 4.5, Leading zero omitted, Abs format (unit mm)*
G04 Created by KiCad (PCBNEW (5.0.0-rc2-dev)) date Thu Jun 18 08:05:52 2020*
%MOMM*%
%LPD*%
G01*
G04 APERTURE LIST*
%ADD10C,0.100000*%
%ADD11C,0.200000*%
%ADD12C,0.300000*%
G04 APERTURE END LIST*
D10*
X5900000Y10600000D02*
X5900000Y0D01*
X0Y0D02*
X0Y10600000D01*
X5900000Y0D02*
X0Y0D01*
X0Y10600000D02*
X5900000Y10600000D01*
D11*
X95000Y4515000D02*
X145000Y4465000D01*
X145000Y4515000D02*
X95000Y4465000D01*
X105000Y935000D02*
X155000Y885000D01*
X155000Y935000D02*
X105000Y885000D01*
X115000Y3715000D02*
X165000Y3665000D01*
X165000Y3715000D02*
X115000Y3665000D01*
X115000Y145000D02*
X165000Y95000D01*
X165000Y145000D02*
X115000Y95000D01*
X145000Y10475000D02*
X195000Y10425000D01*
X195000Y10475000D02*
X145000Y10425000D01*
X145000Y10045000D02*
X195000Y9995000D01*
X195000Y10045000D02*
X145000Y9995000D01*
X155000Y5975000D02*
X205000Y5925000D01*
X205000Y5975000D02*
X155000Y5925000D01*
X235000Y8125000D02*
X285000Y8075000D01*
X285000Y8125000D02*
X235000Y8075000D01*
X315000Y6715000D02*
X365000Y6665000D01*
X365000Y6715000D02*
X315000Y6665000D01*
X435000Y3545000D02*
X485000Y3495000D01*
X485000Y3545000D02*
X435000Y3495000D01*
X475000Y8255000D02*
X525000Y8205000D01*
X525000Y8255000D02*
X475000Y8205000D01*
X535000Y5265000D02*
X585000Y5215000D01*
X585000Y5265000D02*
X535000Y5215000D01*
X595000Y7475000D02*
X645000Y7425000D01*
X645000Y7475000D02*
X595000Y7425000D01*
X625000Y1185000D02*
X675000Y1135000D01*
X675000Y1185000D02*
X625000Y1135000D01*
X645000Y7855000D02*
X695000Y7805000D01*
X695000Y7855000D02*
X645000Y7805000D01*
X675000Y4215000D02*
X725000Y4165000D01*
X725000Y4215000D02*
X675000Y4165000D01*
X695000Y8465000D02*
X745000Y8415000D01*
X745000Y8465000D02*
X695000Y8415000D01*
X705000Y9065000D02*
X755000Y9015000D01*
X755000Y9065000D02*
X705000Y9015000D01*
X705000Y8855000D02*
X755000Y8805000D01*
X755000Y8855000D02*
X705000Y8805000D01*
X735000Y2085000D02*
X785000Y2035000D01*
X785000Y2085000D02*
X735000Y2035000D01*
X855000Y1565000D02*
X905000Y1515000D01*
X905000Y1565000D02*
X855000Y1515000D01*
X885000Y6565000D02*
X935000Y6515000D01*
X935000Y6565000D02*
X885000Y6515000D01*
X915000Y2765000D02*
X965000Y2715000D01*
X965000Y2765000D02*
X915000Y2715000D01*
X995000Y7205000D02*
X1045000Y7155000D01*
X1045000Y7205000D02*
X995000Y7155000D01*
X1015000Y8725000D02*
X1065000Y8675000D01*
X1065000Y8725000D02*
X1015000Y8675000D01*
X1025000Y3795000D02*
X1075000Y3745000D01*
X1075000Y3795000D02*
X1025000Y3745000D01*
X1065000Y8355000D02*
X1115000Y8305000D01*
X1115000Y8355000D02*
X1065000Y8305000D01*
X1095000Y9575000D02*
X1145000Y9525000D01*
X1145000Y9575000D02*
X1095000Y9525000D01*
X1235000Y8785000D02*
X1285000Y8735000D01*
X1285000Y8785000D02*
X1235000Y8735000D01*
X1235000Y3625000D02*
X1285000Y3575000D01*
X1285000Y3625000D02*
X1235000Y3575000D01*
X1265000Y4375000D02*
X1315000Y4325000D01*
X1315000Y4375000D02*
X1265000Y4325000D01*
X1475000Y5875000D02*
X1525000Y5825000D01*
X1525000Y5875000D02*
X1475000Y5825000D01*
X1485000Y2085000D02*
X1535000Y2035000D01*
X1535000Y2085000D02*
X1485000Y2035000D01*
X1535000Y4305000D02*
X1585000Y4255000D01*
X1585000Y4305000D02*
X1535000Y4255000D01*
X1545000Y5005000D02*
X1595000Y4955000D01*
X1595000Y5005000D02*
X1545000Y4955000D01*
X1555000Y6805000D02*
X1605000Y6755000D01*
X1605000Y6805000D02*
X1555000Y6755000D01*
X1565000Y3375000D02*
X1615000Y3325000D01*
X1615000Y3375000D02*
X1565000Y3325000D01*
X1605000Y1475000D02*
X1655000Y1425000D01*
X1655000Y1475000D02*
X1605000Y1425000D01*
X1695000Y3855000D02*
X1745000Y3805000D01*
X1745000Y3855000D02*
X1695000Y3805000D01*
X1725000Y8295000D02*
X1775000Y8245000D01*
X1775000Y8295000D02*
X1725000Y8245000D01*
X1725000Y975000D02*
X1775000Y925000D01*
X1775000Y975000D02*
X1725000Y925000D01*
X1735000Y10255000D02*
X1785000Y10205000D01*
X1785000Y10255000D02*
X1735000Y10205000D01*
X1745000Y6985000D02*
X1795000Y6935000D01*
X1795000Y6985000D02*
X1745000Y6935000D01*
X1775000Y6755000D02*
X1825000Y6705000D01*
X1825000Y6755000D02*
X1775000Y6705000D01*
X1815000Y8945000D02*
X1865000Y8895000D01*
X1865000Y8945000D02*
X1815000Y8895000D01*
X1835000Y4975000D02*
X1885000Y4925000D01*
X1885000Y4975000D02*
X1835000Y4925000D01*
X1865000Y2395000D02*
X1915000Y2345000D01*
X1915000Y2395000D02*
X1865000Y2345000D01*
X1905000Y9695000D02*
X1955000Y9645000D01*
X1955000Y9695000D02*
X1905000Y9645000D01*
X1965000Y1635000D02*
X2015000Y1585000D01*
X2015000Y1635000D02*
X1965000Y1585000D01*
X2015000Y7195000D02*
X2065000Y7145000D01*
X2065000Y7195000D02*
X2015000Y7145000D01*
X2115000Y8715000D02*
X2165000Y8665000D01*
X2165000Y8715000D02*
X2115000Y8665000D01*
X2145000Y2755000D02*
X2195000Y2705000D01*
X2195000Y2755000D02*
X2145000Y2705000D01*
X2155000Y2325000D02*
X2205000Y2275000D01*
X2205000Y2325000D02*
X2155000Y2275000D01*
X2185000Y4675000D02*
X2235000Y4625000D01*
X2235000Y4675000D02*
X2185000Y4625000D01*
X2185000Y3855000D02*
X2235000Y3805000D01*
X2235000Y3855000D02*
X2185000Y3805000D01*
X2205000Y9125000D02*
X2255000Y9075000D01*
X2255000Y9125000D02*
X2205000Y9075000D01*
X2215000Y4005000D02*
X2265000Y3955000D01*
X2265000Y4005000D02*
X2215000Y3955000D01*
X2245000Y4185000D02*
X2295000Y4135000D01*
X2295000Y4185000D02*
X2245000Y4135000D01*
X2505000Y1715000D02*
X2555000Y1665000D01*
X2555000Y1715000D02*
X2505000Y1665000D01*
X2555000Y3115000D02*
X2605000Y3065000D01*
X2605000Y3115000D02*
X2555000Y3065000D01*
X2615000Y6315000D02*
X2665000Y6265000D01*
X2665000Y6315000D02*
X2615000Y6265000D01*
X2635000Y7525000D02*
X2685000Y7475000D01*
X2685000Y7525000D02*
X2635000Y7475000D01*
X2635000Y4105000D02*
X2685000Y4055000D01*
X2685000Y4105000D02*
X2635000Y4055000D01*
X2675000Y8385000D02*
X2725000Y8335000D01*
X2725000Y8385000D02*
X2675000Y8335000D01*
X2705000Y5495000D02*
X2755000Y5445000D01*
X2755000Y5495000D02*
X2705000Y5445000D01*
X2715000Y4415000D02*
X2765000Y4365000D01*
X2765000Y4415000D02*
X2715000Y4365000D01*
X2725000Y9155000D02*
X2775000Y9105000D01*
X2775000Y9155000D02*
X2725000Y9105000D01*
X2775000Y3475000D02*
X2825000Y3425000D01*
X2825000Y3475000D02*
X2775000Y3425000D01*
X2795000Y8705000D02*
X2845000Y8655000D01*
X2845000Y8705000D02*
X2795000Y8655000D01*
X2805000Y8485000D02*
X2855000Y8435000D01*
X2855000Y8485000D02*
X2805000Y8435000D01*
X2815000Y965000D02*
X2865000Y915000D01*
X2865000Y965000D02*
X2815000Y915000D01*
X2835000Y7005000D02*
X2885000Y6955000D01*
X2885000Y7005000D02*
X2835000Y6955000D01*
X2875000Y8265000D02*
X2925000Y8215000D01*
X2925000Y8265000D02*
X2875000Y8215000D01*
X2925000Y7555000D02*
X2975000Y7505000D01*
X2975000Y7555000D02*
X2925000Y7505000D01*
X2975000Y4005000D02*
X3025000Y3955000D01*
X3025000Y4005000D02*
X2975000Y3955000D01*
X3035000Y1955000D02*
X3085000Y1905000D01*
X3085000Y1955000D02*
X3035000Y1905000D01*
X3065000Y2525000D02*
X3115000Y2475000D01*
X3115000Y2525000D02*
X3065000Y2475000D01*
X3085000Y4135000D02*
X3135000Y4085000D01*
X3135000Y4135000D02*
X3085000Y4085000D01*
X3155000Y3195000D02*
X3205000Y3145000D01*
X3205000Y3195000D02*
X3155000Y3145000D01*
X3175000Y8385000D02*
X3225000Y8335000D01*
X3225000Y8385000D02*
X3175000Y8335000D01*
X3185000Y4855000D02*
X3235000Y4805000D01*
X3235000Y4855000D02*
X3185000Y4805000D01*
X3215000Y6285000D02*
X3265000Y6235000D01*
X3265000Y6285000D02*
X3215000Y6235000D01*
X3215000Y4285000D02*
X3265000Y4235000D01*
X3265000Y4285000D02*
X3215000Y4235000D01*
X3305000Y9145000D02*
X3355000Y9095000D01*
X3355000Y9145000D02*
X3305000Y9095000D01*
X3335000Y2355000D02*
X3385000Y2305000D01*
X3385000Y2355000D02*
X3335000Y2305000D01*
X3385000Y8895000D02*
X3435000Y8845000D01*
X3435000Y8895000D02*
X3385000Y8845000D01*
X3435000Y5365000D02*
X3485000Y5315000D01*
X3485000Y5365000D02*
X3435000Y5315000D01*
X3445000Y4855000D02*
X3495000Y4805000D01*
X3495000Y4855000D02*
X3445000Y4805000D01*
X3445000Y3465000D02*
X3495000Y3415000D01*
X3495000Y3465000D02*
X3445000Y3415000D01*
X3475000Y7655000D02*
X3525000Y7605000D01*
X3525000Y7655000D02*
X3475000Y7605000D01*
X3475000Y7275000D02*
X3525000Y7225000D01*
X3525000Y7275000D02*
X3475000Y7225000D01*
X3525000Y3085000D02*
X3575000Y3035000D01*
X3575000Y3085000D02*
X3525000Y3035000D01*
X3535000Y10065000D02*
X3585000Y10015000D01*
X3585000Y10065000D02*
X3535000Y10015000D01*
X3635000Y10505000D02*
X3685000Y10455000D01*
X3685000Y10505000D02*
X3635000Y10455000D01*
X3655000Y4155000D02*
X3705000Y4105000D01*
X3705000Y4155000D02*
X3655000Y4105000D01*
X3725000Y8895000D02*
X3775000Y8845000D01*
X3775000Y8895000D02*
X3725000Y8845000D01*
X3725000Y3355000D02*
X3775000Y3305000D01*
X3775000Y3355000D02*
X3725000Y3305000D01*
X3735000Y3645000D02*
X3785000Y3595000D01*
X3785000Y3645000D02*
X3735000Y3595000D01*
X3765000Y4615000D02*
X3815000Y4565000D01*
X3815000Y4615000D02*
X3765000Y4565000D01*
X3825000Y4855000D02*
X3875000Y4805000D01*
X3875000Y4855000D02*
X3825000Y4805000D01*
X3845000Y2765000D02*
X3895000Y2715000D01*
X3895000Y2765000D02*
X3845000Y2715000D01*
X3855000Y9495000D02*
X3905000Y9445000D01*
X3905000Y9495000D02*
X3855000Y9445000D01*
X3945000Y4445000D02*
X3995000Y4395000D01*
X3995000Y4445000D02*
X3945000Y4395000D01*
X3955000Y9035000D02*
X4005000Y8985000D01*
X4005000Y9035000D02*
X3955000Y8985000D01*
X3995000Y10485000D02*
X4045000Y10435000D01*
X4045000Y10485000D02*
X3995000Y10435000D01*
X3995000Y10195000D02*
X4045000Y10145000D01*
X4045000Y10195000D02*
X3995000Y10145000D01*
X4015000Y1055000D02*
X4065000Y1005000D01*
X4065000Y1055000D02*
X4015000Y1005000D01*
X4045000Y7855000D02*
X4095000Y7805000D01*
X4095000Y7855000D02*
X4045000Y7805000D01*
X4045000Y3095000D02*
X4095000Y3045000D01*
X4095000Y3095000D02*
X4045000Y3045000D01*
X4075000Y6085000D02*
X4125000Y6035000D01*
X4125000Y6085000D02*
X4075000Y6035000D01*
X4095000Y9925000D02*
X4145000Y9875000D01*
X4145000Y9925000D02*
X4095000Y9875000D01*
X4135000Y7975000D02*
X4185000Y7925000D01*
X4185000Y7975000D02*
X4135000Y7925000D01*
X4145000Y8465000D02*
X4195000Y8415000D01*
X4195000Y8465000D02*
X4145000Y8415000D01*
X4165000Y8605000D02*
X4215000Y8555000D01*
X4215000Y8605000D02*
X4165000Y8555000D01*
X4185000Y8745000D02*
X4235000Y8695000D01*
X4235000Y8745000D02*
X4185000Y8695000D01*
X4225000Y4905000D02*
X4275000Y4855000D01*
X4275000Y4905000D02*
X4225000Y4855000D01*
X4225000Y4445000D02*
X4275000Y4395000D01*
X4275000Y4445000D02*
X4225000Y4395000D01*
X4265000Y3915000D02*
X4315000Y3865000D01*
X4315000Y3915000D02*
X4265000Y3865000D01*
X4275000Y7385000D02*
X4325000Y7335000D01*
X4325000Y7385000D02*
X4275000Y7335000D01*
X4295000Y8995000D02*
X4345000Y8945000D01*
X4345000Y8995000D02*
X4295000Y8945000D01*
X4295000Y2315000D02*
X4345000Y2265000D01*
X4345000Y2315000D02*
X4295000Y2265000D01*
X4315000Y7855000D02*
X4365000Y7805000D01*
X4365000Y7855000D02*
X4315000Y7805000D01*
X4325000Y8855000D02*
X4375000Y8805000D01*
X4375000Y8855000D02*
X4325000Y8805000D01*
X4345000Y3635000D02*
X4395000Y3585000D01*
X4395000Y3635000D02*
X4345000Y3585000D01*
X4395000Y8605000D02*
X4445000Y8555000D01*
X4445000Y8605000D02*
X4395000Y8555000D01*
X4405000Y10515000D02*
X4455000Y10465000D01*
X4455000Y10515000D02*
X4405000Y10465000D01*
X4445000Y3355000D02*
X4495000Y3305000D01*
X4495000Y3355000D02*
X4445000Y3305000D01*
X4505000Y9915000D02*
X4555000Y9865000D01*
X4555000Y9915000D02*
X4505000Y9865000D01*
X4545000Y9185000D02*
X4595000Y9135000D01*
X4595000Y9185000D02*
X4545000Y9135000D01*
X4555000Y2175000D02*
X4605000Y2125000D01*
X4605000Y2175000D02*
X4555000Y2125000D01*
X4565000Y8855000D02*
X4615000Y8805000D01*
X4615000Y8855000D02*
X4565000Y8805000D01*
X4575000Y5515000D02*
X4625000Y5465000D01*
X4625000Y5515000D02*
X4575000Y5465000D01*
X4625000Y2525000D02*
X4675000Y2475000D01*
X4675000Y2525000D02*
X4625000Y2475000D01*
X4705000Y4575000D02*
X4755000Y4525000D01*
X4755000Y4575000D02*
X4705000Y4525000D01*
X4715000Y7985000D02*
X4765000Y7935000D01*
X4765000Y7985000D02*
X4715000Y7935000D01*
X4755000Y9545000D02*
X4805000Y9495000D01*
X4805000Y9545000D02*
X4755000Y9495000D01*
X4755000Y3635000D02*
X4805000Y3585000D01*
X4805000Y3635000D02*
X4755000Y3585000D01*
X4805000Y10245000D02*
X4855000Y10195000D01*
X4855000Y10245000D02*
X4805000Y10195000D01*
X4855000Y7925000D02*
X4905000Y7875000D01*
X4905000Y7925000D02*
X4855000Y7875000D01*
X4895000Y1115000D02*
X4945000Y1065000D01*
X4945000Y1115000D02*
X4895000Y1065000D01*
X4935000Y9005000D02*
X4985000Y8955000D01*
X4985000Y9005000D02*
X4935000Y8955000D01*
X4945000Y8855000D02*
X4995000Y8805000D01*
X4995000Y8855000D02*
X4945000Y8805000D01*
X4945000Y8605000D02*
X4995000Y8555000D01*
X4995000Y8605000D02*
X4945000Y8555000D01*
X4955000Y7995000D02*
X5005000Y7945000D01*
X5005000Y7995000D02*
X4955000Y7945000D01*
X5095000Y7995000D02*
X5145000Y7945000D01*
X5145000Y7995000D02*
X5095000Y7945000D01*
X5145000Y7195000D02*
X5195000Y7145000D01*
X5195000Y7195000D02*
X5145000Y7145000D01*
X5145000Y5725000D02*
X5195000Y5675000D01*
X5195000Y5725000D02*
X5145000Y5675000D01*
X5175000Y8855000D02*
X5225000Y8805000D01*
X5225000Y8855000D02*
X5175000Y8805000D01*
X5175000Y8605000D02*
X5225000Y8555000D01*
X5225000Y8605000D02*
X5175000Y8555000D01*
X5205000Y9005000D02*
X5255000Y8955000D01*
X5255000Y9005000D02*
X5205000Y8955000D01*
X5215000Y2525000D02*
X5265000Y2475000D01*
X5265000Y2525000D02*
X5215000Y2475000D01*
X5275000Y9575000D02*
X5325000Y9525000D01*
X5325000Y9575000D02*
X5275000Y9525000D01*
X5295000Y3765000D02*
X5345000Y3715000D01*
X5345000Y3765000D02*
X5295000Y3715000D01*
X5325000Y8545000D02*
X5375000Y8495000D01*
X5375000Y8545000D02*
X5325000Y8495000D01*
X5335000Y2215000D02*
X5385000Y2165000D01*
X5385000Y2215000D02*
X5335000Y2165000D01*
X5355000Y4225000D02*
X5405000Y4175000D01*
X5405000Y4225000D02*
X5355000Y4175000D01*
X5365000Y7885000D02*
X5415000Y7835000D01*
X5415000Y7885000D02*
X5365000Y7835000D01*
X5375000Y7625000D02*
X5425000Y7575000D01*
X5425000Y7625000D02*
X5375000Y7575000D01*
X5425000Y2305000D02*
X5475000Y2255000D01*
X5475000Y2305000D02*
X5425000Y2255000D01*
X5445000Y3475000D02*
X5495000Y3425000D01*
X5495000Y3475000D02*
X5445000Y3425000D01*
X5465000Y7365000D02*
X5515000Y7315000D01*
X5515000Y7365000D02*
X5465000Y7315000D01*
X5515000Y6555000D02*
X5565000Y6505000D01*
X5565000Y6555000D02*
X5515000Y6505000D01*
X5545000Y2865000D02*
X5595000Y2815000D01*
X5595000Y2865000D02*
X5545000Y2815000D01*
X5545000Y2525000D02*
X5595000Y2475000D01*
X5595000Y2525000D02*
X5545000Y2475000D01*
X5685000Y6185000D02*
X5735000Y6135000D01*
X5735000Y6185000D02*
X5685000Y6135000D01*
X5685000Y3765000D02*
X5735000Y3715000D01*
X5735000Y3765000D02*
X5685000Y3715000D01*
X5695000Y4815000D02*
X5745000Y4765000D01*
X5745000Y4815000D02*
X5695000Y4765000D01*
X5705000Y195000D02*
X5755000Y145000D01*
X5755000Y195000D02*
X5705000Y145000D01*
X5725000Y10485000D02*
X5775000Y10435000D01*
X5775000Y10485000D02*
X5725000Y10435000D01*
X5775000Y5155000D02*
X5825000Y5105000D01*
X5825000Y5155000D02*
X5775000Y5105000D01*
X3031000Y10460000D02*
G75*
G03X3031000Y10460000I-35000J0D01*
G01*
X3539000Y10460000D02*
G75*
G03X3539000Y10460000I-35000J0D01*
G01*
X3771500Y10050000D02*
G75*
G03X3771500Y10050000I-35000J0D01*
G01*
X3898500Y10177000D02*
G75*
G03X3898500Y10177000I-35000J0D01*
G01*
X3898500Y9923000D02*
G75*
G03X3898500Y9923000I-35000J0D01*
G01*
X5545000Y8644000D02*
G75*
G03X5545000Y8644000I-35000J0D01*
G01*
X5545000Y8136000D02*
G75*
G03X5545000Y8136000I-35000J0D01*
G01*
X4691000Y10260000D02*
G75*
G03X4691000Y10260000I-35000J0D01*
G01*
X5199000Y10260000D02*
G75*
G03X5199000Y10260000I-35000J0D01*
G01*
X2095000Y9404000D02*
G75*
G03X2095000Y9404000I-35000J0D01*
G01*
X2095000Y8896000D02*
G75*
G03X2095000Y8896000I-35000J0D01*
G01*
X5545000Y9334000D02*
G75*
G03X5545000Y9334000I-35000J0D01*
G01*
X5545000Y8826000D02*
G75*
G03X5545000Y8826000I-35000J0D01*
G01*
X2991000Y1670000D02*
G75*
G03X2991000Y1670000I-35000J0D01*
G01*
X3499000Y1670000D02*
G75*
G03X3499000Y1670000I-35000J0D01*
G01*
X4691000Y10460000D02*
G75*
G03X4691000Y10460000I-35000J0D01*
G01*
X5199000Y10460000D02*
G75*
G03X5199000Y10460000I-35000J0D01*
G01*
X3741000Y9440000D02*
G75*
G03X3741000Y9440000I-35000J0D01*
G01*
X4249000Y9440000D02*
G75*
G03X4249000Y9440000I-35000J0D01*
G01*
X905000Y9424000D02*
G75*
G03X905000Y9424000I-35000J0D01*
G01*
X905000Y9170000D02*
G75*
G03X905000Y9170000I-35000J0D01*
G01*
X905000Y8916000D02*
G75*
G03X905000Y8916000I-35000J0D01*
G01*
X4271500Y10050000D02*
G75*
G03X4271500Y10050000I-35000J0D01*
G01*
X4398500Y10177000D02*
G75*
G03X4398500Y10177000I-35000J0D01*
G01*
X4398500Y9923000D02*
G75*
G03X4398500Y9923000I-35000J0D01*
G01*
X1645000Y9005000D02*
X1645000Y8925000D01*
X1605000Y8965000D02*
X1685000Y8965000D01*
X1735000Y9515000D02*
X1735000Y9435000D01*
X1695000Y9475000D02*
X1775000Y9475000D01*
X1700000Y2010000D02*
X1700000Y1930000D01*
X1660000Y1970000D02*
X1740000Y1970000D01*
X2460000Y2010000D02*
X2460000Y1930000D01*
X2420000Y1970000D02*
X2500000Y1970000D01*
X2640000Y4570000D02*
X2640000Y4490000D01*
X2600000Y4530000D02*
X2680000Y4530000D01*
X2640000Y3810000D02*
X2640000Y3730000D01*
X2600000Y3770000D02*
X2680000Y3770000D01*
X1700000Y2230000D02*
X1700000Y2150000D01*
X1660000Y2190000D02*
X1740000Y2190000D01*
X2460000Y2230000D02*
X2460000Y2150000D01*
X2420000Y2190000D02*
X2500000Y2190000D01*
X3860000Y3880000D02*
X3860000Y3800000D01*
X3820000Y3840000D02*
X3900000Y3840000D01*
X4620000Y3880000D02*
X4620000Y3800000D01*
X4580000Y3840000D02*
X4660000Y3840000D01*
X3890000Y5060000D02*
X3890000Y4980000D01*
X3850000Y5020000D02*
X3930000Y5020000D01*
X3890000Y4300000D02*
X3890000Y4220000D01*
X3850000Y4260000D02*
X3930000Y4260000D01*
X1295000Y9005000D02*
X1295000Y8925000D01*
X1255000Y8965000D02*
X1335000Y8965000D01*
X1385000Y9515000D02*
X1385000Y9435000D01*
X1345000Y9475000D02*
X1425000Y9475000D01*
X2890000Y4570000D02*
X2890000Y4490000D01*
X2850000Y4530000D02*
X2930000Y4530000D01*
X2890000Y3810000D02*
X2890000Y3730000D01*
X2850000Y3770000D02*
X2930000Y3770000D01*
X4120000Y5060000D02*
X4120000Y4980000D01*
X4080000Y5020000D02*
X4160000Y5020000D01*
X4120000Y4300000D02*
X4120000Y4220000D01*
X4080000Y4260000D02*
X4160000Y4260000D01*
X3860000Y4100000D02*
X3860000Y4020000D01*
X3820000Y4060000D02*
X3900000Y4060000D01*
X4620000Y4100000D02*
X4620000Y4020000D01*
X4580000Y4060000D02*
X4660000Y4060000D01*
X3130000Y4570000D02*
X3130000Y4490000D01*
X3090000Y4530000D02*
X3170000Y4530000D01*
X3130000Y3810000D02*
X3130000Y3730000D01*
X3090000Y3770000D02*
X3170000Y3770000D01*
X3370000Y4570000D02*
X3370000Y4490000D01*
X3330000Y4530000D02*
X3410000Y4530000D01*
X3370000Y3810000D02*
X3370000Y3730000D01*
X3330000Y3770000D02*
X3410000Y3770000D01*
X3620000Y4570000D02*
X3620000Y4490000D01*
X3580000Y4530000D02*
X3660000Y4530000D01*
X3620000Y3810000D02*
X3620000Y3730000D01*
X3580000Y3770000D02*
X3660000Y3770000D01*
X2400000Y4570000D02*
X2400000Y4490000D01*
X2360000Y4530000D02*
X2440000Y4530000D01*
X2400000Y3810000D02*
X2400000Y3730000D01*
X2360000Y3770000D02*
X2440000Y3770000D01*
X2486820Y10208180D02*
X2486820Y10271820D01*
X2423180Y10271820D01*
X2423180Y10208180D01*
X2486820Y10208180D01*
X2736820Y10208180D02*
X2736820Y10271820D01*
X2673180Y10271820D01*
X2673180Y10208180D01*
X2736820Y10208180D01*
X5446820Y10048180D02*
X5446820Y10111820D01*
X5383180Y10111820D01*
X5383180Y10048180D01*
X5446820Y10048180D01*
X5696820Y10048180D02*
X5696820Y10111820D01*
X5633180Y10111820D01*
X5633180Y10048180D01*
X5696820Y10048180D01*
X3156820Y10108180D02*
X3156820Y10171820D01*
X3093180Y10171820D01*
X3093180Y10108180D01*
X3156820Y10108180D01*
X3406820Y10108180D02*
X3406820Y10171820D01*
X3343180Y10171820D01*
X3343180Y10108180D01*
X3406820Y10108180D01*
X4816820Y9868180D02*
X4816820Y9931820D01*
X4753180Y9931820D01*
X4753180Y9868180D01*
X4816820Y9868180D01*
X5066820Y9868180D02*
X5066820Y9931820D01*
X5003180Y9931820D01*
X5003180Y9868180D01*
X5066820Y9868180D01*
X5250000Y9300000D02*
X5300000Y9350000D01*
X5250000Y9400000D01*
X5200000Y9350000D01*
X5250000Y9300000D01*
X5250000Y8300000D02*
X5300000Y8350000D01*
X5250000Y8400000D01*
X5200000Y8350000D01*
X5250000Y8300000D01*
X1200000Y5050000D02*
X1250000Y5100000D01*
X1200000Y5150000D01*
X1150000Y5100000D01*
X1200000Y5050000D01*
X1450000Y5050000D02*
X1500000Y5100000D01*
X1450000Y5150000D01*
X1400000Y5100000D01*
X1450000Y5050000D01*
X1700000Y5050000D02*
X1750000Y5100000D01*
X1700000Y5150000D01*
X1650000Y5100000D01*
X1700000Y5050000D01*
X4400000Y4640000D02*
X4450000Y4690000D01*
X4400000Y4740000D01*
X4350000Y4690000D01*
X4400000Y4640000D01*
X5400000Y4640000D02*
X5450000Y4690000D01*
X5400000Y4740000D01*
X5350000Y4690000D01*
X5400000Y4640000D01*
X700000Y1670000D02*
X750000Y1720000D01*
X700000Y1770000D01*
X650000Y1720000D01*
X700000Y1670000D01*
X1700000Y1670000D02*
X1750000Y1720000D01*
X1700000Y1770000D01*
X1650000Y1720000D01*
X1700000Y1670000D01*
X4500000Y2620000D02*
X4550000Y2670000D01*
X4500000Y2720000D01*
X4450000Y2670000D01*
X4500000Y2620000D01*
X4500000Y1620000D02*
X4550000Y1670000D01*
X4500000Y1720000D01*
X4450000Y1670000D01*
X4500000Y1620000D01*
X125000Y3339000D02*
X175000Y3389000D01*
X125000Y3439000D01*
X75000Y3389000D01*
X125000Y3339000D01*
X125000Y3085000D02*
X175000Y3135000D01*
X125000Y3185000D01*
X75000Y3135000D01*
X125000Y3085000D01*
X125000Y2831000D02*
X175000Y2881000D01*
X125000Y2931000D01*
X75000Y2881000D01*
X125000Y2831000D01*
X125000Y2577000D02*
X175000Y2627000D01*
X125000Y2677000D01*
X75000Y2627000D01*
X125000Y2577000D01*
X125000Y2323000D02*
X175000Y2373000D01*
X125000Y2423000D01*
X75000Y2373000D01*
X125000Y2323000D01*
X125000Y2069000D02*
X175000Y2119000D01*
X125000Y2169000D01*
X75000Y2119000D01*
X125000Y2069000D01*
X125000Y1815000D02*
X175000Y1865000D01*
X125000Y1915000D01*
X75000Y1865000D01*
X125000Y1815000D01*
X125000Y1561000D02*
X175000Y1611000D01*
X125000Y1661000D01*
X75000Y1611000D01*
X125000Y1561000D01*
X2970000Y3250000D02*
X3020000Y3300000D01*
X2970000Y3350000D01*
X2920000Y3300000D01*
X2970000Y3250000D01*
X2970000Y2250000D02*
X3020000Y2300000D01*
X2970000Y2350000D01*
X2920000Y2300000D01*
X2970000Y2250000D01*
X1432000Y8020000D02*
X1482000Y8070000D01*
X1432000Y8120000D01*
X1382000Y8070000D01*
X1432000Y8020000D01*
X2448000Y8020000D02*
X2498000Y8070000D01*
X2448000Y8120000D01*
X2398000Y8070000D01*
X2448000Y8020000D01*
X1440000Y7380000D02*
X1490000Y7430000D01*
X1440000Y7480000D01*
X1390000Y7430000D01*
X1440000Y7380000D01*
X2440000Y7380000D02*
X2490000Y7430000D01*
X2440000Y7480000D01*
X2390000Y7430000D01*
X2440000Y7380000D01*
X3900000Y3180000D02*
X3950000Y3230000D01*
X3900000Y3280000D01*
X3850000Y3230000D01*
X3900000Y3180000D01*
X4900000Y3180000D02*
X4950000Y3230000D01*
X4900000Y3280000D01*
X4850000Y3230000D01*
X4900000Y3180000D01*
X2670000Y3250000D02*
X2720000Y3300000D01*
X2670000Y3350000D01*
X2620000Y3300000D01*
X2670000Y3250000D01*
X2670000Y2250000D02*
X2720000Y2300000D01*
X2670000Y2350000D01*
X2620000Y2300000D01*
X2670000Y2250000D01*
X1200000Y2450000D02*
X1250000Y2500000D01*
X1200000Y2550000D01*
X1150000Y2500000D01*
X1200000Y2450000D01*
X1450000Y2450000D02*
X1500000Y2500000D01*
X1450000Y2550000D01*
X1400000Y2500000D01*
X1450000Y2450000D01*
X1700000Y2450000D02*
X1750000Y2500000D01*
X1700000Y2550000D01*
X1650000Y2500000D01*
X1700000Y2450000D01*
X3120000Y3460000D02*
X3170000Y3510000D01*
X3120000Y3560000D01*
X3070000Y3510000D01*
X3120000Y3460000D01*
X4120000Y3460000D02*
X4170000Y3510000D01*
X4120000Y3560000D01*
X4070000Y3510000D01*
X4120000Y3460000D01*
X5775000Y3339000D02*
X5825000Y3389000D01*
X5775000Y3439000D01*
X5725000Y3389000D01*
X5775000Y3339000D01*
X5775000Y3085000D02*
X5825000Y3135000D01*
X5775000Y3185000D01*
X5725000Y3135000D01*
X5775000Y3085000D01*
X5775000Y2831000D02*
X5825000Y2881000D01*
X5775000Y2931000D01*
X5725000Y2881000D01*
X5775000Y2831000D01*
X5775000Y2577000D02*
X5825000Y2627000D01*
X5775000Y2677000D01*
X5725000Y2627000D01*
X5775000Y2577000D01*
X5775000Y2323000D02*
X5825000Y2373000D01*
X5775000Y2423000D01*
X5725000Y2373000D01*
X5775000Y2323000D01*
X5775000Y2069000D02*
X5825000Y2119000D01*
X5775000Y2169000D01*
X5725000Y2119000D01*
X5775000Y2069000D01*
X5775000Y1815000D02*
X5825000Y1865000D01*
X5775000Y1915000D01*
X5725000Y1865000D01*
X5775000Y1815000D01*
X5775000Y1561000D02*
X5825000Y1611000D01*
X5775000Y1661000D01*
X5725000Y1611000D01*
X5775000Y1561000D01*
X1432000Y8610000D02*
X1482000Y8660000D01*
X1432000Y8710000D01*
X1382000Y8660000D01*
X1432000Y8610000D01*
X2448000Y8610000D02*
X2498000Y8660000D01*
X2448000Y8710000D01*
X2398000Y8660000D01*
X2448000Y8610000D01*
X1432000Y8310000D02*
X1482000Y8360000D01*
X1432000Y8410000D01*
X1382000Y8360000D01*
X1432000Y8310000D01*
X2448000Y8310000D02*
X2498000Y8360000D01*
X2448000Y8410000D01*
X2398000Y8360000D01*
X2448000Y8310000D01*
X2700000Y8750000D02*
X2750000Y8800000D01*
X2700000Y8850000D01*
X2650000Y8800000D01*
X2700000Y8750000D01*
X2950000Y8750000D02*
X3000000Y8800000D01*
X2950000Y8850000D01*
X2900000Y8800000D01*
X2950000Y8750000D01*
X3200000Y8750000D02*
X3250000Y8800000D01*
X3200000Y8850000D01*
X3150000Y8800000D01*
X3200000Y8750000D01*
X4400000Y4970000D02*
X4450000Y5020000D01*
X4400000Y5070000D01*
X4350000Y5020000D01*
X4400000Y4970000D01*
X5400000Y4970000D02*
X5450000Y5020000D01*
X5400000Y5070000D01*
X5350000Y5020000D01*
X5400000Y4970000D01*
X125000Y8939000D02*
X175000Y8989000D01*
X125000Y9039000D01*
X75000Y8989000D01*
X125000Y8939000D01*
X125000Y8685000D02*
X175000Y8735000D01*
X125000Y8785000D01*
X75000Y8735000D01*
X125000Y8685000D01*
X125000Y8431000D02*
X175000Y8481000D01*
X125000Y8531000D01*
X75000Y8481000D01*
X125000Y8431000D01*
X125000Y8177000D02*
X175000Y8227000D01*
X125000Y8277000D01*
X75000Y8227000D01*
X125000Y8177000D01*
X125000Y7923000D02*
X175000Y7973000D01*
X125000Y8023000D01*
X75000Y7973000D01*
X125000Y7923000D01*
X125000Y7669000D02*
X175000Y7719000D01*
X125000Y7769000D01*
X75000Y7719000D01*
X125000Y7669000D01*
X125000Y7415000D02*
X175000Y7465000D01*
X125000Y7515000D01*
X75000Y7465000D01*
X125000Y7415000D01*
X125000Y7161000D02*
X175000Y7211000D01*
X125000Y7261000D01*
X75000Y7211000D01*
X125000Y7161000D01*
X1440000Y7070000D02*
X1490000Y7120000D01*
X1440000Y7170000D01*
X1390000Y7120000D01*
X1440000Y7070000D01*
X2440000Y7070000D02*
X2490000Y7120000D01*
X2440000Y7170000D01*
X2390000Y7120000D01*
X2440000Y7070000D01*
X510000Y3030000D02*
X560000Y3080000D01*
X510000Y3130000D01*
X460000Y3080000D01*
X510000Y3030000D01*
X510000Y2030000D02*
X560000Y2080000D01*
X510000Y2130000D01*
X460000Y2080000D01*
X510000Y2030000D01*
X4500000Y1340000D02*
X4550000Y1390000D01*
X4500000Y1440000D01*
X4450000Y1390000D01*
X4500000Y1340000D01*
X4500000Y340000D02*
X4550000Y390000D01*
X4500000Y440000D01*
X4450000Y390000D01*
X4500000Y340000D01*
X4300000Y9150000D02*
X4350000Y9200000D01*
X4300000Y9250000D01*
X4250000Y9200000D01*
X4300000Y9150000D01*
X4300000Y8150000D02*
X4350000Y8200000D01*
X4300000Y8250000D01*
X4250000Y8200000D01*
X4300000Y8150000D01*
X5775000Y8939000D02*
X5825000Y8989000D01*
X5775000Y9039000D01*
X5725000Y8989000D01*
X5775000Y8939000D01*
X5775000Y8685000D02*
X5825000Y8735000D01*
X5775000Y8785000D01*
X5725000Y8735000D01*
X5775000Y8685000D01*
X5775000Y8431000D02*
X5825000Y8481000D01*
X5775000Y8531000D01*
X5725000Y8481000D01*
X5775000Y8431000D01*
X5775000Y8177000D02*
X5825000Y8227000D01*
X5775000Y8277000D01*
X5725000Y8227000D01*
X5775000Y8177000D01*
X5775000Y7923000D02*
X5825000Y7973000D01*
X5775000Y8023000D01*
X5725000Y7973000D01*
X5775000Y7923000D01*
X5775000Y7669000D02*
X5825000Y7719000D01*
X5775000Y7769000D01*
X5725000Y7719000D01*
X5775000Y7669000D01*
X5775000Y7415000D02*
X5825000Y7465000D01*
X5775000Y7515000D01*
X5725000Y7465000D01*
X5775000Y7415000D01*
X5775000Y7161000D02*
X5825000Y7211000D01*
X5775000Y7261000D01*
X5725000Y7211000D01*
X5775000Y7161000D01*
X4940000Y9300000D02*
X4990000Y9350000D01*
X4940000Y9400000D01*
X4890000Y9350000D01*
X4940000Y9300000D01*
X4940000Y8300000D02*
X4990000Y8350000D01*
X4940000Y8400000D01*
X4890000Y8350000D01*
X4940000Y8300000D01*
X4630000Y9300000D02*
X4680000Y9350000D01*
X4630000Y9400000D01*
X4580000Y9350000D01*
X4630000Y9300000D01*
X4630000Y8300000D02*
X4680000Y8350000D01*
X4630000Y8400000D01*
X4580000Y8350000D01*
X4630000Y8300000D01*
X2220000Y3460000D02*
X2270000Y3510000D01*
X2220000Y3560000D01*
X2170000Y3510000D01*
X2220000Y3460000D01*
X2220000Y2460000D02*
X2270000Y2510000D01*
X2220000Y2560000D01*
X2170000Y2510000D01*
X2220000Y2460000D01*
X2960000Y1330000D02*
X3010000Y1380000D01*
X2960000Y1430000D01*
X2910000Y1380000D01*
X2960000Y1330000D01*
X2960000Y330000D02*
X3010000Y380000D01*
X2960000Y430000D01*
X2910000Y380000D01*
X2960000Y330000D01*
X3680000Y9150000D02*
X3730000Y9200000D01*
X3680000Y9250000D01*
X3630000Y9200000D01*
X3680000Y9150000D01*
X3680000Y8150000D02*
X3730000Y8200000D01*
X3680000Y8250000D01*
X3630000Y8200000D01*
X3680000Y8150000D01*
X3990000Y9150000D02*
X4040000Y9200000D01*
X3990000Y9250000D01*
X3940000Y9200000D01*
X3990000Y9150000D01*
X3990000Y8150000D02*
X4040000Y8200000D01*
X3990000Y8250000D01*
X3940000Y8200000D01*
X3990000Y8150000D01*
X1432000Y7720000D02*
X1482000Y7770000D01*
X1432000Y7820000D01*
X1382000Y7770000D01*
X1432000Y7720000D01*
X2448000Y7720000D02*
X2498000Y7770000D01*
X2448000Y7820000D01*
X2398000Y7770000D01*
X2448000Y7720000D01*
X542000Y10197000D02*
X592000Y10247000D01*
X542000Y10297000D01*
X492000Y10247000D01*
X542000Y10197000D01*
X542000Y9943000D02*
X592000Y9993000D01*
X542000Y10043000D01*
X492000Y9993000D01*
X542000Y9943000D01*
X796000Y10197000D02*
X846000Y10247000D01*
X796000Y10297000D01*
X746000Y10247000D01*
X796000Y10197000D01*
X796000Y9943000D02*
X846000Y9993000D01*
X796000Y10043000D01*
X746000Y9993000D01*
X796000Y9943000D01*
X1050000Y10197000D02*
X1100000Y10247000D01*
X1050000Y10297000D01*
X1000000Y10247000D01*
X1050000Y10197000D01*
X1050000Y9943000D02*
X1100000Y9993000D01*
X1050000Y10043000D01*
X1000000Y9993000D01*
X1050000Y9943000D01*
X1304000Y10197000D02*
X1354000Y10247000D01*
X1304000Y10297000D01*
X1254000Y10247000D01*
X1304000Y10197000D01*
X1304000Y9943000D02*
X1354000Y9993000D01*
X1304000Y10043000D01*
X1254000Y9993000D01*
X1304000Y9943000D01*
X1558000Y10197000D02*
X1608000Y10247000D01*
X1558000Y10297000D01*
X1508000Y10247000D01*
X1558000Y10197000D01*
X1558000Y9943000D02*
X1608000Y9993000D01*
X1558000Y10043000D01*
X1508000Y9993000D01*
X1558000Y9943000D01*
X1390000Y1330000D02*
X1440000Y1380000D01*
X1390000Y1430000D01*
X1340000Y1380000D01*
X1390000Y1330000D01*
X1390000Y330000D02*
X1440000Y380000D01*
X1390000Y430000D01*
X1340000Y380000D01*
X1390000Y330000D01*
X645000Y1437600D02*
X755000Y1327600D01*
X755000Y1437600D02*
X645000Y1327600D01*
X755000Y1382600D02*
G75*
G03X755000Y1382600I-55000J0D01*
G01*
X645000Y624800D02*
X755000Y514800D01*
X755000Y624800D02*
X645000Y514800D01*
X755000Y569800D02*
G75*
G03X755000Y569800I-55000J0D01*
G01*
X645000Y320000D02*
X755000Y210000D01*
X755000Y320000D02*
X645000Y210000D01*
X755000Y265000D02*
G75*
G03X755000Y265000I-55000J0D01*
G01*
X2145000Y1437600D02*
X2255000Y1327600D01*
X2255000Y1437600D02*
X2145000Y1327600D01*
X2255000Y1382600D02*
G75*
G03X2255000Y1382600I-55000J0D01*
G01*
X2145000Y624800D02*
X2255000Y514800D01*
X2255000Y624800D02*
X2145000Y514800D01*
X2255000Y569800D02*
G75*
G03X2255000Y569800I-55000J0D01*
G01*
X2145000Y320000D02*
X2255000Y210000D01*
X2255000Y320000D02*
X2145000Y210000D01*
X2255000Y265000D02*
G75*
G03X2255000Y265000I-55000J0D01*
G01*
X5145000Y4437600D02*
X5255000Y4327600D01*
X5255000Y4437600D02*
X5145000Y4327600D01*
X5255000Y4382600D02*
G75*
G03X5255000Y4382600I-55000J0D01*
G01*
X5145000Y3624800D02*
X5255000Y3514800D01*
X5255000Y3624800D02*
X5145000Y3514800D01*
X5255000Y3569800D02*
G75*
G03X5255000Y3569800I-55000J0D01*
G01*
X5145000Y3320000D02*
X5255000Y3210000D01*
X5255000Y3320000D02*
X5145000Y3210000D01*
X5255000Y3265000D02*
G75*
G03X5255000Y3265000I-55000J0D01*
G01*
X5145000Y2937600D02*
X5255000Y2827600D01*
X5255000Y2937600D02*
X5145000Y2827600D01*
X5255000Y2882600D02*
G75*
G03X5255000Y2882600I-55000J0D01*
G01*
X5145000Y2124800D02*
X5255000Y2014800D01*
X5255000Y2124800D02*
X5145000Y2014800D01*
X5255000Y2069800D02*
G75*
G03X5255000Y2069800I-55000J0D01*
G01*
X5145000Y1820000D02*
X5255000Y1710000D01*
X5255000Y1820000D02*
X5145000Y1710000D01*
X5255000Y1765000D02*
G75*
G03X5255000Y1765000I-55000J0D01*
G01*
X3645000Y1437600D02*
X3755000Y1327600D01*
X3755000Y1437600D02*
X3645000Y1327600D01*
X3755000Y1382600D02*
G75*
G03X3755000Y1382600I-55000J0D01*
G01*
X3645000Y624800D02*
X3755000Y514800D01*
X3755000Y624800D02*
X3645000Y514800D01*
X3755000Y569800D02*
G75*
G03X3755000Y569800I-55000J0D01*
G01*
X3645000Y320000D02*
X3755000Y210000D01*
X3755000Y320000D02*
X3645000Y210000D01*
X3755000Y265000D02*
G75*
G03X3755000Y265000I-55000J0D01*
G01*
X3645000Y2937600D02*
X3755000Y2827600D01*
X3755000Y2937600D02*
X3645000Y2827600D01*
X3755000Y2882600D02*
G75*
G03X3755000Y2882600I-55000J0D01*
G01*
X3645000Y2124800D02*
X3755000Y2014800D01*
X3755000Y2124800D02*
X3645000Y2014800D01*
X3755000Y2069800D02*
G75*
G03X3755000Y2069800I-55000J0D01*
G01*
X3645000Y1820000D02*
X3755000Y1710000D01*
X3755000Y1820000D02*
X3645000Y1710000D01*
X3755000Y1765000D02*
G75*
G03X3755000Y1765000I-55000J0D01*
G01*
X5145000Y1437600D02*
X5255000Y1327600D01*
X5255000Y1437600D02*
X5145000Y1327600D01*
X5255000Y1382600D02*
G75*
G03X5255000Y1382600I-55000J0D01*
G01*
X5145000Y624800D02*
X5255000Y514800D01*
X5255000Y624800D02*
X5145000Y514800D01*
X5255000Y569800D02*
G75*
G03X5255000Y569800I-55000J0D01*
G01*
X5145000Y320000D02*
X5255000Y210000D01*
X5255000Y320000D02*
X5145000Y210000D01*
X5255000Y265000D02*
G75*
G03X5255000Y265000I-55000J0D01*
G01*
X1880000Y3270000D02*
X2020000Y3130000D01*
X2020000Y3270000D02*
X1880000Y3130000D01*
X1950000Y3270000D02*
X1950000Y3130000D01*
X1880000Y3200000D02*
X2020000Y3200000D01*
X2380000Y9570000D02*
X2520000Y9430000D01*
X2520000Y9570000D02*
X2380000Y9430000D01*
X2450000Y9570000D02*
X2450000Y9430000D01*
X2380000Y9500000D02*
X2520000Y9500000D01*
X3380000Y9570000D02*
X3520000Y9430000D01*
X3520000Y9570000D02*
X3380000Y9430000D01*
X3450000Y9570000D02*
X3450000Y9430000D01*
X3380000Y9500000D02*
X3520000Y9500000D01*
X880000Y5870000D02*
X1020000Y5730000D01*
X1020000Y5870000D02*
X880000Y5730000D01*
X950000Y5870000D02*
X950000Y5730000D01*
X880000Y5800000D02*
X1020000Y5800000D01*
X1880000Y5870000D02*
X2020000Y5730000D01*
X2020000Y5870000D02*
X1880000Y5730000D01*
X1950000Y5870000D02*
X1950000Y5730000D01*
X1880000Y5800000D02*
X2020000Y5800000D01*
X880000Y3270000D02*
X1020000Y3130000D01*
X1020000Y3270000D02*
X880000Y3130000D01*
X950000Y3270000D02*
X950000Y3130000D01*
X880000Y3200000D02*
X1020000Y3200000D01*
D12*
X281428Y-470714D02*
X281428Y-170714D01*
X352857Y-170714D01*
X395714Y-185000D01*
X424286Y-213571D01*
X438571Y-242143D01*
X452857Y-299286D01*
X452857Y-342143D01*
X438571Y-399286D01*
X424286Y-427857D01*
X395714Y-456429D01*
X352857Y-470714D01*
X281428Y-470714D01*
X581428Y-470714D02*
X581428Y-270714D01*
X581428Y-327857D02*
X595714Y-299286D01*
X610000Y-285000D01*
X638571Y-270714D01*
X667143Y-270714D01*
X767143Y-470714D02*
X767143Y-270714D01*
X767143Y-170714D02*
X752857Y-185000D01*
X767143Y-199286D01*
X781428Y-185000D01*
X767143Y-170714D01*
X767143Y-199286D01*
X952857Y-470714D02*
X924286Y-456429D01*
X910000Y-427857D01*
X910000Y-170714D01*
X1110000Y-470714D02*
X1081428Y-456429D01*
X1067143Y-427857D01*
X1067143Y-170714D01*
X1452857Y-470714D02*
X1452857Y-170714D01*
X1552857Y-385000D01*
X1652857Y-170714D01*
X1652857Y-470714D01*
X1924286Y-470714D02*
X1924286Y-313572D01*
X1910000Y-285000D01*
X1881428Y-270714D01*
X1824286Y-270714D01*
X1795714Y-285000D01*
X1924286Y-456429D02*
X1895714Y-470714D01*
X1824286Y-470714D01*
X1795714Y-456429D01*
X1781428Y-427857D01*
X1781428Y-399286D01*
X1795714Y-370714D01*
X1824286Y-356429D01*
X1895714Y-356429D01*
X1924286Y-342143D01*
X2067143Y-270714D02*
X2067143Y-570714D01*
X2067143Y-285000D02*
X2095714Y-270714D01*
X2152857Y-270714D01*
X2181428Y-285000D01*
X2195714Y-299286D01*
X2210000Y-327857D01*
X2210000Y-413571D01*
X2195714Y-442143D01*
X2181428Y-456429D01*
X2152857Y-470714D01*
X2095714Y-470714D01*
X2067143Y-456429D01*
X2338571Y-442143D02*
X2352857Y-456429D01*
X2338571Y-470714D01*
X2324286Y-456429D01*
X2338571Y-442143D01*
X2338571Y-470714D01*
X2338571Y-285000D02*
X2352857Y-299286D01*
X2338571Y-313572D01*
X2324286Y-299286D01*
X2338571Y-285000D01*
X2338571Y-313572D01*
X-55000Y-940000D02*
X-5000Y-990000D01*
X-5000Y-940000D02*
X-55000Y-990000D01*
X338571Y-800714D02*
X367143Y-800714D01*
X395714Y-815000D01*
X410000Y-829286D01*
X424286Y-857857D01*
X438571Y-915000D01*
X438571Y-986429D01*
X424286Y-1043571D01*
X410000Y-1072143D01*
X395714Y-1086429D01*
X367143Y-1100714D01*
X338571Y-1100714D01*
X310000Y-1086429D01*
X295714Y-1072143D01*
X281428Y-1043571D01*
X267143Y-986429D01*
X267143Y-915000D01*
X281428Y-857857D01*
X295714Y-829286D01*
X310000Y-815000D01*
X338571Y-800714D01*
X567143Y-1072143D02*
X581428Y-1086429D01*
X567143Y-1100714D01*
X552857Y-1086429D01*
X567143Y-1072143D01*
X567143Y-1100714D01*
X852857Y-800714D02*
X710000Y-800714D01*
X695714Y-943571D01*
X710000Y-929286D01*
X738571Y-915000D01*
X810000Y-915000D01*
X838571Y-929286D01*
X852857Y-943571D01*
X867143Y-972143D01*
X867143Y-1043571D01*
X852857Y-1072143D01*
X838571Y-1086429D01*
X810000Y-1100714D01*
X738571Y-1100714D01*
X710000Y-1086429D01*
X695714Y-1072143D01*
X1052857Y-800714D02*
X1081428Y-800714D01*
X1110000Y-815000D01*
X1124286Y-829286D01*
X1138571Y-857857D01*
X1152857Y-915000D01*
X1152857Y-986429D01*
X1138571Y-1043571D01*
X1124286Y-1072143D01*
X1110000Y-1086429D01*
X1081428Y-1100714D01*
X1052857Y-1100714D01*
X1024286Y-1086429D01*
X1010000Y-1072143D01*
X995714Y-1043571D01*
X981428Y-986429D01*
X981428Y-915000D01*
X995714Y-857857D01*
X1010000Y-829286D01*
X1024286Y-815000D01*
X1052857Y-800714D01*
X1281428Y-1100714D02*
X1281428Y-900714D01*
X1281428Y-929286D02*
X1295714Y-915000D01*
X1324286Y-900714D01*
X1367143Y-900714D01*
X1395714Y-915000D01*
X1410000Y-943571D01*
X1410000Y-1100714D01*
X1410000Y-943571D02*
X1424286Y-915000D01*
X1452857Y-900714D01*
X1495714Y-900714D01*
X1524286Y-915000D01*
X1538571Y-943571D01*
X1538571Y-1100714D01*
X1681428Y-1100714D02*
X1681428Y-900714D01*
X1681428Y-929286D02*
X1695714Y-915000D01*
X1724286Y-900714D01*
X1767143Y-900714D01*
X1795714Y-915000D01*
X1810000Y-943571D01*
X1810000Y-1100714D01*
X1810000Y-943571D02*
X1824286Y-915000D01*
X1852857Y-900714D01*
X1895714Y-900714D01*
X1924286Y-915000D01*
X1938571Y-943571D01*
X1938571Y-1100714D01*
X2524286Y-786429D02*
X2267143Y-1172143D01*
X2910000Y-800714D02*
X2938571Y-800714D01*
X2967143Y-815000D01*
X2981428Y-829286D01*
X2995714Y-857857D01*
X3010000Y-915000D01*
X3010000Y-986429D01*
X2995714Y-1043571D01*
X2981428Y-1072143D01*
X2967143Y-1086429D01*
X2938571Y-1100714D01*
X2910000Y-1100714D01*
X2881428Y-1086429D01*
X2867143Y-1072143D01*
X2852857Y-1043571D01*
X2838571Y-986429D01*
X2838571Y-915000D01*
X2852857Y-857857D01*
X2867143Y-829286D01*
X2881428Y-815000D01*
X2910000Y-800714D01*
X3138571Y-1072143D02*
X3152857Y-1086429D01*
X3138571Y-1100714D01*
X3124286Y-1086429D01*
X3138571Y-1072143D01*
X3138571Y-1100714D01*
X3338571Y-800714D02*
X3367143Y-800714D01*
X3395714Y-815000D01*
X3410000Y-829286D01*
X3424286Y-857857D01*
X3438571Y-915000D01*
X3438571Y-986429D01*
X3424286Y-1043571D01*
X3410000Y-1072143D01*
X3395714Y-1086429D01*
X3367143Y-1100714D01*
X3338571Y-1100714D01*
X3310000Y-1086429D01*
X3295714Y-1072143D01*
X3281428Y-1043571D01*
X3267143Y-986429D01*
X3267143Y-915000D01*
X3281428Y-857857D01*
X3295714Y-829286D01*
X3310000Y-815000D01*
X3338571Y-800714D01*
X3552857Y-829286D02*
X3567143Y-815000D01*
X3595714Y-800714D01*
X3667143Y-800714D01*
X3695714Y-815000D01*
X3710000Y-829286D01*
X3724286Y-857857D01*
X3724286Y-886429D01*
X3710000Y-929286D01*
X3538571Y-1100714D01*
X3724286Y-1100714D01*
X3910000Y-800714D02*
X3938571Y-800714D01*
X3967143Y-815000D01*
X3981428Y-829286D01*
X3995714Y-857857D01*
X4010000Y-915000D01*
X4010000Y-986429D01*
X3995714Y-1043571D01*
X3981428Y-1072143D01*
X3967143Y-1086429D01*
X3938571Y-1100714D01*
X3910000Y-1100714D01*
X3881428Y-1086429D01*
X3867143Y-1072143D01*
X3852857Y-1043571D01*
X3838571Y-986429D01*
X3838571Y-915000D01*
X3852857Y-857857D01*
X3867143Y-829286D01*
X3881428Y-815000D01*
X3910000Y-800714D01*
X4124286Y-800714D02*
X4124286Y-857857D01*
X4238571Y-800714D02*
X4238571Y-857857D01*
X4681428Y-1215000D02*
X4667143Y-1200714D01*
X4638571Y-1157857D01*
X4624286Y-1129286D01*
X4610000Y-1086429D01*
X4595714Y-1015000D01*
X4595714Y-957857D01*
X4610000Y-886429D01*
X4624286Y-843571D01*
X4638571Y-815000D01*
X4667143Y-772143D01*
X4681428Y-757857D01*
X4952857Y-1100714D02*
X4781428Y-1100714D01*
X4867143Y-1100714D02*
X4867143Y-800714D01*
X4838571Y-843571D01*
X4810000Y-872143D01*
X4781428Y-886429D01*
X5052857Y-800714D02*
X5252857Y-800714D01*
X5124286Y-1100714D01*
X5424286Y-800714D02*
X5452857Y-800714D01*
X5481428Y-815000D01*
X5495714Y-829286D01*
X5510000Y-857857D01*
X5524286Y-915000D01*
X5524286Y-986429D01*
X5510000Y-1043571D01*
X5495714Y-1072143D01*
X5481428Y-1086429D01*
X5452857Y-1100714D01*
X5424286Y-1100714D01*
X5395714Y-1086429D01*
X5381428Y-1072143D01*
X5367143Y-1043571D01*
X5352857Y-986429D01*
X5352857Y-915000D01*
X5367143Y-857857D01*
X5381428Y-829286D01*
X5395714Y-815000D01*
X5424286Y-800714D01*
X5881428Y-1100714D02*
X5881428Y-800714D01*
X6010000Y-1100714D02*
X6010000Y-943571D01*
X5995714Y-915000D01*
X5967143Y-900714D01*
X5924286Y-900714D01*
X5895714Y-915000D01*
X5881428Y-929286D01*
X6195714Y-1100714D02*
X6167143Y-1086429D01*
X6152857Y-1072143D01*
X6138571Y-1043571D01*
X6138571Y-957857D01*
X6152857Y-929286D01*
X6167143Y-915000D01*
X6195714Y-900714D01*
X6238571Y-900714D01*
X6267143Y-915000D01*
X6281428Y-929286D01*
X6295714Y-957857D01*
X6295714Y-1043571D01*
X6281428Y-1072143D01*
X6267143Y-1086429D01*
X6238571Y-1100714D01*
X6195714Y-1100714D01*
X6467143Y-1100714D02*
X6438571Y-1086429D01*
X6424286Y-1057857D01*
X6424286Y-800714D01*
X6695714Y-1086429D02*
X6667143Y-1100714D01*
X6610000Y-1100714D01*
X6581428Y-1086429D01*
X6567143Y-1057857D01*
X6567143Y-943571D01*
X6581428Y-915000D01*
X6610000Y-900714D01*
X6667143Y-900714D01*
X6695714Y-915000D01*
X6710000Y-943571D01*
X6710000Y-972143D01*
X6567143Y-1000714D01*
X6824286Y-1086429D02*
X6852857Y-1100714D01*
X6910000Y-1100714D01*
X6938571Y-1086429D01*
X6952857Y-1057857D01*
X6952857Y-1043571D01*
X6938571Y-1015000D01*
X6910000Y-1000714D01*
X6867143Y-1000714D01*
X6838571Y-986429D01*
X6824286Y-957857D01*
X6824286Y-943571D01*
X6838571Y-915000D01*
X6867143Y-900714D01*
X6910000Y-900714D01*
X6938571Y-915000D01*
X7052857Y-1215000D02*
X7067143Y-1200714D01*
X7095714Y-1157857D01*
X7110000Y-1129286D01*
X7124286Y-1086429D01*
X7138571Y-1015000D01*
X7138571Y-957857D01*
X7124286Y-886429D01*
X7110000Y-843571D01*
X7095714Y-815000D01*
X7067143Y-772143D01*
X7052857Y-757857D01*
X-5000Y-1361000D02*
G75*
G03X-5000Y-1361000I-35000J0D01*
G01*
X338571Y-1196714D02*
X367143Y-1196714D01*
X395714Y-1211000D01*
X410000Y-1225286D01*
X424286Y-1253857D01*
X438571Y-1311000D01*
X438571Y-1382429D01*
X424286Y-1439571D01*
X410000Y-1468143D01*
X395714Y-1482429D01*
X367143Y-1496714D01*
X338571Y-1496714D01*
X310000Y-1482429D01*
X295714Y-1468143D01*
X281428Y-1439571D01*
X267143Y-1382429D01*
X267143Y-1311000D01*
X281428Y-1253857D01*
X295714Y-1225286D01*
X310000Y-1211000D01*
X338571Y-1196714D01*
X567143Y-1468143D02*
X581428Y-1482429D01*
X567143Y-1496714D01*
X552857Y-1482429D01*
X567143Y-1468143D01*
X567143Y-1496714D01*
X681428Y-1196714D02*
X881428Y-1196714D01*
X752857Y-1496714D01*
X1052857Y-1196714D02*
X1081428Y-1196714D01*
X1110000Y-1211000D01*
X1124286Y-1225286D01*
X1138571Y-1253857D01*
X1152857Y-1311000D01*
X1152857Y-1382429D01*
X1138571Y-1439571D01*
X1124286Y-1468143D01*
X1110000Y-1482429D01*
X1081428Y-1496714D01*
X1052857Y-1496714D01*
X1024286Y-1482429D01*
X1010000Y-1468143D01*
X995714Y-1439571D01*
X981428Y-1382429D01*
X981428Y-1311000D01*
X995714Y-1253857D01*
X1010000Y-1225286D01*
X1024286Y-1211000D01*
X1052857Y-1196714D01*
X1281428Y-1496714D02*
X1281428Y-1296714D01*
X1281428Y-1325286D02*
X1295714Y-1311000D01*
X1324286Y-1296714D01*
X1367143Y-1296714D01*
X1395714Y-1311000D01*
X1410000Y-1339572D01*
X1410000Y-1496714D01*
X1410000Y-1339572D02*
X1424286Y-1311000D01*
X1452857Y-1296714D01*
X1495714Y-1296714D01*
X1524286Y-1311000D01*
X1538571Y-1339572D01*
X1538571Y-1496714D01*
X1681428Y-1496714D02*
X1681428Y-1296714D01*
X1681428Y-1325286D02*
X1695714Y-1311000D01*
X1724286Y-1296714D01*
X1767143Y-1296714D01*
X1795714Y-1311000D01*
X1810000Y-1339572D01*
X1810000Y-1496714D01*
X1810000Y-1339572D02*
X1824286Y-1311000D01*
X1852857Y-1296714D01*
X1895714Y-1296714D01*
X1924286Y-1311000D01*
X1938571Y-1339572D01*
X1938571Y-1496714D01*
X2524286Y-1182429D02*
X2267143Y-1568143D01*
X2910000Y-1196714D02*
X2938571Y-1196714D01*
X2967143Y-1211000D01*
X2981428Y-1225286D01*
X2995714Y-1253857D01*
X3010000Y-1311000D01*
X3010000Y-1382429D01*
X2995714Y-1439571D01*
X2981428Y-1468143D01*
X2967143Y-1482429D01*
X2938571Y-1496714D01*
X2910000Y-1496714D01*
X2881428Y-1482429D01*
X2867143Y-1468143D01*
X2852857Y-1439571D01*
X2838571Y-1382429D01*
X2838571Y-1311000D01*
X2852857Y-1253857D01*
X2867143Y-1225286D01*
X2881428Y-1211000D01*
X2910000Y-1196714D01*
X3138571Y-1468143D02*
X3152857Y-1482429D01*
X3138571Y-1496714D01*
X3124286Y-1482429D01*
X3138571Y-1468143D01*
X3138571Y-1496714D01*
X3338571Y-1196714D02*
X3367143Y-1196714D01*
X3395714Y-1211000D01*
X3410000Y-1225286D01*
X3424286Y-1253857D01*
X3438571Y-1311000D01*
X3438571Y-1382429D01*
X3424286Y-1439571D01*
X3410000Y-1468143D01*
X3395714Y-1482429D01*
X3367143Y-1496714D01*
X3338571Y-1496714D01*
X3310000Y-1482429D01*
X3295714Y-1468143D01*
X3281428Y-1439571D01*
X3267143Y-1382429D01*
X3267143Y-1311000D01*
X3281428Y-1253857D01*
X3295714Y-1225286D01*
X3310000Y-1211000D01*
X3338571Y-1196714D01*
X3552857Y-1225286D02*
X3567143Y-1211000D01*
X3595714Y-1196714D01*
X3667143Y-1196714D01*
X3695714Y-1211000D01*
X3710000Y-1225286D01*
X3724286Y-1253857D01*
X3724286Y-1282429D01*
X3710000Y-1325286D01*
X3538571Y-1496714D01*
X3724286Y-1496714D01*
X3895714Y-1325286D02*
X3867143Y-1311000D01*
X3852857Y-1296714D01*
X3838571Y-1268143D01*
X3838571Y-1253857D01*
X3852857Y-1225286D01*
X3867143Y-1211000D01*
X3895714Y-1196714D01*
X3952857Y-1196714D01*
X3981428Y-1211000D01*
X3995714Y-1225286D01*
X4010000Y-1253857D01*
X4010000Y-1268143D01*
X3995714Y-1296714D01*
X3981428Y-1311000D01*
X3952857Y-1325286D01*
X3895714Y-1325286D01*
X3867143Y-1339572D01*
X3852857Y-1353857D01*
X3838571Y-1382429D01*
X3838571Y-1439571D01*
X3852857Y-1468143D01*
X3867143Y-1482429D01*
X3895714Y-1496714D01*
X3952857Y-1496714D01*
X3981428Y-1482429D01*
X3995714Y-1468143D01*
X4010000Y-1439571D01*
X4010000Y-1382429D01*
X3995714Y-1353857D01*
X3981428Y-1339572D01*
X3952857Y-1325286D01*
X4124286Y-1196714D02*
X4124286Y-1253857D01*
X4238571Y-1196714D02*
X4238571Y-1253857D01*
X4681428Y-1611000D02*
X4667143Y-1596714D01*
X4638571Y-1553857D01*
X4624286Y-1525286D01*
X4610000Y-1482429D01*
X4595714Y-1411000D01*
X4595714Y-1353857D01*
X4610000Y-1282429D01*
X4624286Y-1239572D01*
X4638571Y-1211000D01*
X4667143Y-1168143D01*
X4681428Y-1153857D01*
X4781428Y-1225286D02*
X4795714Y-1211000D01*
X4824286Y-1196714D01*
X4895714Y-1196714D01*
X4924286Y-1211000D01*
X4938571Y-1225286D01*
X4952857Y-1253857D01*
X4952857Y-1282429D01*
X4938571Y-1325286D01*
X4767143Y-1496714D01*
X4952857Y-1496714D01*
X5224286Y-1196714D02*
X5081428Y-1196714D01*
X5067143Y-1339572D01*
X5081428Y-1325286D01*
X5110000Y-1311000D01*
X5181428Y-1311000D01*
X5210000Y-1325286D01*
X5224286Y-1339572D01*
X5238571Y-1368143D01*
X5238571Y-1439571D01*
X5224286Y-1468143D01*
X5210000Y-1482429D01*
X5181428Y-1496714D01*
X5110000Y-1496714D01*
X5081428Y-1482429D01*
X5067143Y-1468143D01*
X5595714Y-1496714D02*
X5595714Y-1196714D01*
X5724286Y-1496714D02*
X5724286Y-1339572D01*
X5710000Y-1311000D01*
X5681428Y-1296714D01*
X5638571Y-1296714D01*
X5610000Y-1311000D01*
X5595714Y-1325286D01*
X5910000Y-1496714D02*
X5881428Y-1482429D01*
X5867143Y-1468143D01*
X5852857Y-1439571D01*
X5852857Y-1353857D01*
X5867143Y-1325286D01*
X5881428Y-1311000D01*
X5910000Y-1296714D01*
X5952857Y-1296714D01*
X5981428Y-1311000D01*
X5995714Y-1325286D01*
X6010000Y-1353857D01*
X6010000Y-1439571D01*
X5995714Y-1468143D01*
X5981428Y-1482429D01*
X5952857Y-1496714D01*
X5910000Y-1496714D01*
X6181428Y-1496714D02*
X6152857Y-1482429D01*
X6138571Y-1453857D01*
X6138571Y-1196714D01*
X6410000Y-1482429D02*
X6381428Y-1496714D01*
X6324286Y-1496714D01*
X6295714Y-1482429D01*
X6281428Y-1453857D01*
X6281428Y-1339572D01*
X6295714Y-1311000D01*
X6324286Y-1296714D01*
X6381428Y-1296714D01*
X6410000Y-1311000D01*
X6424286Y-1339572D01*
X6424286Y-1368143D01*
X6281428Y-1396714D01*
X6538571Y-1482429D02*
X6567143Y-1496714D01*
X6624286Y-1496714D01*
X6652857Y-1482429D01*
X6667143Y-1453857D01*
X6667143Y-1439571D01*
X6652857Y-1411000D01*
X6624286Y-1396714D01*
X6581428Y-1396714D01*
X6552857Y-1382429D01*
X6538571Y-1353857D01*
X6538571Y-1339572D01*
X6552857Y-1311000D01*
X6581428Y-1296714D01*
X6624286Y-1296714D01*
X6652857Y-1311000D01*
X6767143Y-1611000D02*
X6781428Y-1596714D01*
X6810000Y-1553857D01*
X6824286Y-1525286D01*
X6838571Y-1482429D01*
X6852857Y-1411000D01*
X6852857Y-1353857D01*
X6838571Y-1282429D01*
X6824286Y-1239572D01*
X6810000Y-1211000D01*
X6781428Y-1168143D01*
X6767143Y-1153857D01*
X-45000Y-1717000D02*
X-45000Y-1797000D01*
X-85000Y-1757000D02*
X-5000Y-1757000D01*
X338571Y-1592714D02*
X367143Y-1592714D01*
X395714Y-1607000D01*
X410000Y-1621286D01*
X424286Y-1649857D01*
X438571Y-1707000D01*
X438571Y-1778429D01*
X424286Y-1835571D01*
X410000Y-1864143D01*
X395714Y-1878429D01*
X367143Y-1892714D01*
X338571Y-1892714D01*
X310000Y-1878429D01*
X295714Y-1864143D01*
X281428Y-1835571D01*
X267143Y-1778429D01*
X267143Y-1707000D01*
X281428Y-1649857D01*
X295714Y-1621286D01*
X310000Y-1607000D01*
X338571Y-1592714D01*
X567143Y-1864143D02*
X581428Y-1878429D01*
X567143Y-1892714D01*
X552857Y-1878429D01*
X567143Y-1864143D01*
X567143Y-1892714D01*
X752857Y-1721286D02*
X724286Y-1707000D01*
X710000Y-1692714D01*
X695714Y-1664143D01*
X695714Y-1649857D01*
X710000Y-1621286D01*
X724286Y-1607000D01*
X752857Y-1592714D01*
X810000Y-1592714D01*
X838571Y-1607000D01*
X852857Y-1621286D01*
X867143Y-1649857D01*
X867143Y-1664143D01*
X852857Y-1692714D01*
X838571Y-1707000D01*
X810000Y-1721286D01*
X752857Y-1721286D01*
X724286Y-1735571D01*
X710000Y-1749857D01*
X695714Y-1778429D01*
X695714Y-1835571D01*
X710000Y-1864143D01*
X724286Y-1878429D01*
X752857Y-1892714D01*
X810000Y-1892714D01*
X838571Y-1878429D01*
X852857Y-1864143D01*
X867143Y-1835571D01*
X867143Y-1778429D01*
X852857Y-1749857D01*
X838571Y-1735571D01*
X810000Y-1721286D01*
X1052857Y-1592714D02*
X1081428Y-1592714D01*
X1110000Y-1607000D01*
X1124286Y-1621286D01*
X1138571Y-1649857D01*
X1152857Y-1707000D01*
X1152857Y-1778429D01*
X1138571Y-1835571D01*
X1124286Y-1864143D01*
X1110000Y-1878429D01*
X1081428Y-1892714D01*
X1052857Y-1892714D01*
X1024286Y-1878429D01*
X1010000Y-1864143D01*
X995714Y-1835571D01*
X981428Y-1778429D01*
X981428Y-1707000D01*
X995714Y-1649857D01*
X1010000Y-1621286D01*
X1024286Y-1607000D01*
X1052857Y-1592714D01*
X1281428Y-1892714D02*
X1281428Y-1692714D01*
X1281428Y-1721286D02*
X1295714Y-1707000D01*
X1324286Y-1692714D01*
X1367143Y-1692714D01*
X1395714Y-1707000D01*
X1410000Y-1735571D01*
X1410000Y-1892714D01*
X1410000Y-1735571D02*
X1424286Y-1707000D01*
X1452857Y-1692714D01*
X1495714Y-1692714D01*
X1524286Y-1707000D01*
X1538571Y-1735571D01*
X1538571Y-1892714D01*
X1681428Y-1892714D02*
X1681428Y-1692714D01*
X1681428Y-1721286D02*
X1695714Y-1707000D01*
X1724286Y-1692714D01*
X1767143Y-1692714D01*
X1795714Y-1707000D01*
X1810000Y-1735571D01*
X1810000Y-1892714D01*
X1810000Y-1735571D02*
X1824286Y-1707000D01*
X1852857Y-1692714D01*
X1895714Y-1692714D01*
X1924286Y-1707000D01*
X1938571Y-1735571D01*
X1938571Y-1892714D01*
X2524286Y-1578429D02*
X2267143Y-1964143D01*
X2910000Y-1592714D02*
X2938571Y-1592714D01*
X2967143Y-1607000D01*
X2981428Y-1621286D01*
X2995714Y-1649857D01*
X3010000Y-1707000D01*
X3010000Y-1778429D01*
X2995714Y-1835571D01*
X2981428Y-1864143D01*
X2967143Y-1878429D01*
X2938571Y-1892714D01*
X2910000Y-1892714D01*
X2881428Y-1878429D01*
X2867143Y-1864143D01*
X2852857Y-1835571D01*
X2838571Y-1778429D01*
X2838571Y-1707000D01*
X2852857Y-1649857D01*
X2867143Y-1621286D01*
X2881428Y-1607000D01*
X2910000Y-1592714D01*
X3138571Y-1864143D02*
X3152857Y-1878429D01*
X3138571Y-1892714D01*
X3124286Y-1878429D01*
X3138571Y-1864143D01*
X3138571Y-1892714D01*
X3338571Y-1592714D02*
X3367143Y-1592714D01*
X3395714Y-1607000D01*
X3410000Y-1621286D01*
X3424286Y-1649857D01*
X3438571Y-1707000D01*
X3438571Y-1778429D01*
X3424286Y-1835571D01*
X3410000Y-1864143D01*
X3395714Y-1878429D01*
X3367143Y-1892714D01*
X3338571Y-1892714D01*
X3310000Y-1878429D01*
X3295714Y-1864143D01*
X3281428Y-1835571D01*
X3267143Y-1778429D01*
X3267143Y-1707000D01*
X3281428Y-1649857D01*
X3295714Y-1621286D01*
X3310000Y-1607000D01*
X3338571Y-1592714D01*
X3538571Y-1592714D02*
X3724286Y-1592714D01*
X3624286Y-1707000D01*
X3667143Y-1707000D01*
X3695714Y-1721286D01*
X3710000Y-1735571D01*
X3724286Y-1764143D01*
X3724286Y-1835571D01*
X3710000Y-1864143D01*
X3695714Y-1878429D01*
X3667143Y-1892714D01*
X3581428Y-1892714D01*
X3552857Y-1878429D01*
X3538571Y-1864143D01*
X4010000Y-1892714D02*
X3838571Y-1892714D01*
X3924286Y-1892714D02*
X3924286Y-1592714D01*
X3895714Y-1635571D01*
X3867143Y-1664143D01*
X3838571Y-1678429D01*
X4124286Y-1592714D02*
X4124286Y-1649857D01*
X4238571Y-1592714D02*
X4238571Y-1649857D01*
X4681428Y-2007000D02*
X4667143Y-1992714D01*
X4638571Y-1949857D01*
X4624286Y-1921286D01*
X4610000Y-1878429D01*
X4595714Y-1807000D01*
X4595714Y-1749857D01*
X4610000Y-1678429D01*
X4624286Y-1635571D01*
X4638571Y-1607000D01*
X4667143Y-1564143D01*
X4681428Y-1549857D01*
X4781428Y-1621286D02*
X4795714Y-1607000D01*
X4824286Y-1592714D01*
X4895714Y-1592714D01*
X4924286Y-1607000D01*
X4938571Y-1621286D01*
X4952857Y-1649857D01*
X4952857Y-1678429D01*
X4938571Y-1721286D01*
X4767143Y-1892714D01*
X4952857Y-1892714D01*
X5124286Y-1721286D02*
X5095714Y-1707000D01*
X5081428Y-1692714D01*
X5067143Y-1664143D01*
X5067143Y-1649857D01*
X5081428Y-1621286D01*
X5095714Y-1607000D01*
X5124286Y-1592714D01*
X5181428Y-1592714D01*
X5210000Y-1607000D01*
X5224286Y-1621286D01*
X5238571Y-1649857D01*
X5238571Y-1664143D01*
X5224286Y-1692714D01*
X5210000Y-1707000D01*
X5181428Y-1721286D01*
X5124286Y-1721286D01*
X5095714Y-1735571D01*
X5081428Y-1749857D01*
X5067143Y-1778429D01*
X5067143Y-1835571D01*
X5081428Y-1864143D01*
X5095714Y-1878429D01*
X5124286Y-1892714D01*
X5181428Y-1892714D01*
X5210000Y-1878429D01*
X5224286Y-1864143D01*
X5238571Y-1835571D01*
X5238571Y-1778429D01*
X5224286Y-1749857D01*
X5210000Y-1735571D01*
X5181428Y-1721286D01*
X5595714Y-1892714D02*
X5595714Y-1592714D01*
X5724286Y-1892714D02*
X5724286Y-1735571D01*
X5710000Y-1707000D01*
X5681428Y-1692714D01*
X5638571Y-1692714D01*
X5610000Y-1707000D01*
X5595714Y-1721286D01*
X5910000Y-1892714D02*
X5881428Y-1878429D01*
X5867143Y-1864143D01*
X5852857Y-1835571D01*
X5852857Y-1749857D01*
X5867143Y-1721286D01*
X5881428Y-1707000D01*
X5910000Y-1692714D01*
X5952857Y-1692714D01*
X5981428Y-1707000D01*
X5995714Y-1721286D01*
X6010000Y-1749857D01*
X6010000Y-1835571D01*
X5995714Y-1864143D01*
X5981428Y-1878429D01*
X5952857Y-1892714D01*
X5910000Y-1892714D01*
X6181428Y-1892714D02*
X6152857Y-1878429D01*
X6138571Y-1849857D01*
X6138571Y-1592714D01*
X6410000Y-1878429D02*
X6381428Y-1892714D01*
X6324286Y-1892714D01*
X6295714Y-1878429D01*
X6281428Y-1849857D01*
X6281428Y-1735571D01*
X6295714Y-1707000D01*
X6324286Y-1692714D01*
X6381428Y-1692714D01*
X6410000Y-1707000D01*
X6424286Y-1735571D01*
X6424286Y-1764143D01*
X6281428Y-1792714D01*
X6538571Y-1878429D02*
X6567143Y-1892714D01*
X6624286Y-1892714D01*
X6652857Y-1878429D01*
X6667143Y-1849857D01*
X6667143Y-1835571D01*
X6652857Y-1807000D01*
X6624286Y-1792714D01*
X6581428Y-1792714D01*
X6552857Y-1778429D01*
X6538571Y-1749857D01*
X6538571Y-1735571D01*
X6552857Y-1707000D01*
X6581428Y-1692714D01*
X6624286Y-1692714D01*
X6652857Y-1707000D01*
X6767143Y-2007000D02*
X6781428Y-1992714D01*
X6810000Y-1949857D01*
X6824286Y-1921286D01*
X6838571Y-1878429D01*
X6852857Y-1807000D01*
X6852857Y-1749857D01*
X6838571Y-1678429D01*
X6824286Y-1635571D01*
X6810000Y-1607000D01*
X6781428Y-1564143D01*
X6767143Y-1549857D01*
X-18180Y-2184820D02*
X-18180Y-2121180D01*
X-81820Y-2121180D01*
X-81820Y-2184820D01*
X-18180Y-2184820D01*
X338571Y-1988714D02*
X367143Y-1988714D01*
X395714Y-2003000D01*
X410000Y-2017286D01*
X424286Y-2045857D01*
X438571Y-2103000D01*
X438571Y-2174429D01*
X424286Y-2231572D01*
X410000Y-2260143D01*
X395714Y-2274429D01*
X367143Y-2288714D01*
X338571Y-2288714D01*
X310000Y-2274429D01*
X295714Y-2260143D01*
X281428Y-2231572D01*
X267143Y-2174429D01*
X267143Y-2103000D01*
X281428Y-2045857D01*
X295714Y-2017286D01*
X310000Y-2003000D01*
X338571Y-1988714D01*
X567143Y-2260143D02*
X581428Y-2274429D01*
X567143Y-2288714D01*
X552857Y-2274429D01*
X567143Y-2260143D01*
X567143Y-2288714D01*
X724286Y-2288714D02*
X781428Y-2288714D01*
X810000Y-2274429D01*
X824286Y-2260143D01*
X852857Y-2217286D01*
X867143Y-2160143D01*
X867143Y-2045857D01*
X852857Y-2017286D01*
X838571Y-2003000D01*
X810000Y-1988714D01*
X752857Y-1988714D01*
X724286Y-2003000D01*
X710000Y-2017286D01*
X695714Y-2045857D01*
X695714Y-2117286D01*
X710000Y-2145857D01*
X724286Y-2160143D01*
X752857Y-2174429D01*
X810000Y-2174429D01*
X838571Y-2160143D01*
X852857Y-2145857D01*
X867143Y-2117286D01*
X1052857Y-1988714D02*
X1081428Y-1988714D01*
X1110000Y-2003000D01*
X1124286Y-2017286D01*
X1138571Y-2045857D01*
X1152857Y-2103000D01*
X1152857Y-2174429D01*
X1138571Y-2231572D01*
X1124286Y-2260143D01*
X1110000Y-2274429D01*
X1081428Y-2288714D01*
X1052857Y-2288714D01*
X1024286Y-2274429D01*
X1010000Y-2260143D01*
X995714Y-2231572D01*
X981428Y-2174429D01*
X981428Y-2103000D01*
X995714Y-2045857D01*
X1010000Y-2017286D01*
X1024286Y-2003000D01*
X1052857Y-1988714D01*
X1281428Y-2288714D02*
X1281428Y-2088714D01*
X1281428Y-2117286D02*
X1295714Y-2103000D01*
X1324286Y-2088714D01*
X1367143Y-2088714D01*
X1395714Y-2103000D01*
X1410000Y-2131572D01*
X1410000Y-2288714D01*
X1410000Y-2131572D02*
X1424286Y-2103000D01*
X1452857Y-2088714D01*
X1495714Y-2088714D01*
X1524286Y-2103000D01*
X1538571Y-2131572D01*
X1538571Y-2288714D01*
X1681428Y-2288714D02*
X1681428Y-2088714D01*
X1681428Y-2117286D02*
X1695714Y-2103000D01*
X1724286Y-2088714D01*
X1767143Y-2088714D01*
X1795714Y-2103000D01*
X1810000Y-2131572D01*
X1810000Y-2288714D01*
X1810000Y-2131572D02*
X1824286Y-2103000D01*
X1852857Y-2088714D01*
X1895714Y-2088714D01*
X1924286Y-2103000D01*
X1938571Y-2131572D01*
X1938571Y-2288714D01*
X2524286Y-1974429D02*
X2267143Y-2360143D01*
X2910000Y-1988714D02*
X2938571Y-1988714D01*
X2967143Y-2003000D01*
X2981428Y-2017286D01*
X2995714Y-2045857D01*
X3010000Y-2103000D01*
X3010000Y-2174429D01*
X2995714Y-2231572D01*
X2981428Y-2260143D01*
X2967143Y-2274429D01*
X2938571Y-2288714D01*
X2910000Y-2288714D01*
X2881428Y-2274429D01*
X2867143Y-2260143D01*
X2852857Y-2231572D01*
X2838571Y-2174429D01*
X2838571Y-2103000D01*
X2852857Y-2045857D01*
X2867143Y-2017286D01*
X2881428Y-2003000D01*
X2910000Y-1988714D01*
X3138571Y-2260143D02*
X3152857Y-2274429D01*
X3138571Y-2288714D01*
X3124286Y-2274429D01*
X3138571Y-2260143D01*
X3138571Y-2288714D01*
X3338571Y-1988714D02*
X3367143Y-1988714D01*
X3395714Y-2003000D01*
X3410000Y-2017286D01*
X3424286Y-2045857D01*
X3438571Y-2103000D01*
X3438571Y-2174429D01*
X3424286Y-2231572D01*
X3410000Y-2260143D01*
X3395714Y-2274429D01*
X3367143Y-2288714D01*
X3338571Y-2288714D01*
X3310000Y-2274429D01*
X3295714Y-2260143D01*
X3281428Y-2231572D01*
X3267143Y-2174429D01*
X3267143Y-2103000D01*
X3281428Y-2045857D01*
X3295714Y-2017286D01*
X3310000Y-2003000D01*
X3338571Y-1988714D01*
X3538571Y-1988714D02*
X3724286Y-1988714D01*
X3624286Y-2103000D01*
X3667143Y-2103000D01*
X3695714Y-2117286D01*
X3710000Y-2131572D01*
X3724286Y-2160143D01*
X3724286Y-2231572D01*
X3710000Y-2260143D01*
X3695714Y-2274429D01*
X3667143Y-2288714D01*
X3581428Y-2288714D01*
X3552857Y-2274429D01*
X3538571Y-2260143D01*
X3995714Y-1988714D02*
X3852857Y-1988714D01*
X3838571Y-2131572D01*
X3852857Y-2117286D01*
X3881428Y-2103000D01*
X3952857Y-2103000D01*
X3981428Y-2117286D01*
X3995714Y-2131572D01*
X4010000Y-2160143D01*
X4010000Y-2231572D01*
X3995714Y-2260143D01*
X3981428Y-2274429D01*
X3952857Y-2288714D01*
X3881428Y-2288714D01*
X3852857Y-2274429D01*
X3838571Y-2260143D01*
X4124286Y-1988714D02*
X4124286Y-2045857D01*
X4238571Y-1988714D02*
X4238571Y-2045857D01*
X4681428Y-2403000D02*
X4667143Y-2388714D01*
X4638571Y-2345857D01*
X4624286Y-2317286D01*
X4610000Y-2274429D01*
X4595714Y-2203000D01*
X4595714Y-2145857D01*
X4610000Y-2074429D01*
X4624286Y-2031571D01*
X4638571Y-2003000D01*
X4667143Y-1960143D01*
X4681428Y-1945857D01*
X4838571Y-2117286D02*
X4810000Y-2103000D01*
X4795714Y-2088714D01*
X4781428Y-2060143D01*
X4781428Y-2045857D01*
X4795714Y-2017286D01*
X4810000Y-2003000D01*
X4838571Y-1988714D01*
X4895714Y-1988714D01*
X4924286Y-2003000D01*
X4938571Y-2017286D01*
X4952857Y-2045857D01*
X4952857Y-2060143D01*
X4938571Y-2088714D01*
X4924286Y-2103000D01*
X4895714Y-2117286D01*
X4838571Y-2117286D01*
X4810000Y-2131572D01*
X4795714Y-2145857D01*
X4781428Y-2174429D01*
X4781428Y-2231572D01*
X4795714Y-2260143D01*
X4810000Y-2274429D01*
X4838571Y-2288714D01*
X4895714Y-2288714D01*
X4924286Y-2274429D01*
X4938571Y-2260143D01*
X4952857Y-2231572D01*
X4952857Y-2174429D01*
X4938571Y-2145857D01*
X4924286Y-2131572D01*
X4895714Y-2117286D01*
X5310000Y-2288714D02*
X5310000Y-1988714D01*
X5438571Y-2288714D02*
X5438571Y-2131572D01*
X5424286Y-2103000D01*
X5395714Y-2088714D01*
X5352857Y-2088714D01*
X5324286Y-2103000D01*
X5310000Y-2117286D01*
X5624286Y-2288714D02*
X5595714Y-2274429D01*
X5581428Y-2260143D01*
X5567143Y-2231572D01*
X5567143Y-2145857D01*
X5581428Y-2117286D01*
X5595714Y-2103000D01*
X5624286Y-2088714D01*
X5667143Y-2088714D01*
X5695714Y-2103000D01*
X5710000Y-2117286D01*
X5724286Y-2145857D01*
X5724286Y-2231572D01*
X5710000Y-2260143D01*
X5695714Y-2274429D01*
X5667143Y-2288714D01*
X5624286Y-2288714D01*
X5895714Y-2288714D02*
X5867143Y-2274429D01*
X5852857Y-2245857D01*
X5852857Y-1988714D01*
X6124286Y-2274429D02*
X6095714Y-2288714D01*
X6038571Y-2288714D01*
X6010000Y-2274429D01*
X5995714Y-2245857D01*
X5995714Y-2131572D01*
X6010000Y-2103000D01*
X6038571Y-2088714D01*
X6095714Y-2088714D01*
X6124286Y-2103000D01*
X6138571Y-2131572D01*
X6138571Y-2160143D01*
X5995714Y-2188714D01*
X6252857Y-2274429D02*
X6281428Y-2288714D01*
X6338571Y-2288714D01*
X6367143Y-2274429D01*
X6381428Y-2245857D01*
X6381428Y-2231572D01*
X6367143Y-2203000D01*
X6338571Y-2188714D01*
X6295714Y-2188714D01*
X6267143Y-2174429D01*
X6252857Y-2145857D01*
X6252857Y-2131572D01*
X6267143Y-2103000D01*
X6295714Y-2088714D01*
X6338571Y-2088714D01*
X6367143Y-2103000D01*
X6481428Y-2403000D02*
X6495714Y-2388714D01*
X6524286Y-2345857D01*
X6538571Y-2317286D01*
X6552857Y-2274429D01*
X6567143Y-2203000D01*
X6567143Y-2145857D01*
X6552857Y-2074429D01*
X6538571Y-2031571D01*
X6524286Y-2003000D01*
X6495714Y-1960143D01*
X6481428Y-1945857D01*
X-55000Y-2599000D02*
X-5000Y-2549000D01*
X-55000Y-2499000D01*
X-105000Y-2549000D01*
X-55000Y-2599000D01*
X438571Y-2684714D02*
X267143Y-2684714D01*
X352857Y-2684714D02*
X352857Y-2384714D01*
X324286Y-2427572D01*
X295714Y-2456143D01*
X267143Y-2470429D01*
X567143Y-2656143D02*
X581428Y-2670429D01*
X567143Y-2684714D01*
X552857Y-2670429D01*
X567143Y-2656143D01*
X567143Y-2684714D01*
X767143Y-2384714D02*
X795714Y-2384714D01*
X824286Y-2399000D01*
X838571Y-2413286D01*
X852857Y-2441857D01*
X867143Y-2499000D01*
X867143Y-2570429D01*
X852857Y-2627572D01*
X838571Y-2656143D01*
X824286Y-2670429D01*
X795714Y-2684714D01*
X767143Y-2684714D01*
X738571Y-2670429D01*
X724286Y-2656143D01*
X710000Y-2627572D01*
X695714Y-2570429D01*
X695714Y-2499000D01*
X710000Y-2441857D01*
X724286Y-2413286D01*
X738571Y-2399000D01*
X767143Y-2384714D01*
X1052857Y-2384714D02*
X1081428Y-2384714D01*
X1110000Y-2399000D01*
X1124286Y-2413286D01*
X1138571Y-2441857D01*
X1152857Y-2499000D01*
X1152857Y-2570429D01*
X1138571Y-2627572D01*
X1124286Y-2656143D01*
X1110000Y-2670429D01*
X1081428Y-2684714D01*
X1052857Y-2684714D01*
X1024286Y-2670429D01*
X1010000Y-2656143D01*
X995714Y-2627572D01*
X981428Y-2570429D01*
X981428Y-2499000D01*
X995714Y-2441857D01*
X1010000Y-2413286D01*
X1024286Y-2399000D01*
X1052857Y-2384714D01*
X1281428Y-2684714D02*
X1281428Y-2484714D01*
X1281428Y-2513286D02*
X1295714Y-2499000D01*
X1324286Y-2484714D01*
X1367143Y-2484714D01*
X1395714Y-2499000D01*
X1410000Y-2527572D01*
X1410000Y-2684714D01*
X1410000Y-2527572D02*
X1424286Y-2499000D01*
X1452857Y-2484714D01*
X1495714Y-2484714D01*
X1524286Y-2499000D01*
X1538571Y-2527572D01*
X1538571Y-2684714D01*
X1681428Y-2684714D02*
X1681428Y-2484714D01*
X1681428Y-2513286D02*
X1695714Y-2499000D01*
X1724286Y-2484714D01*
X1767143Y-2484714D01*
X1795714Y-2499000D01*
X1810000Y-2527572D01*
X1810000Y-2684714D01*
X1810000Y-2527572D02*
X1824286Y-2499000D01*
X1852857Y-2484714D01*
X1895714Y-2484714D01*
X1924286Y-2499000D01*
X1938571Y-2527572D01*
X1938571Y-2684714D01*
X2524286Y-2370429D02*
X2267143Y-2756143D01*
X2910000Y-2384714D02*
X2938571Y-2384714D01*
X2967143Y-2399000D01*
X2981428Y-2413286D01*
X2995714Y-2441857D01*
X3010000Y-2499000D01*
X3010000Y-2570429D01*
X2995714Y-2627572D01*
X2981428Y-2656143D01*
X2967143Y-2670429D01*
X2938571Y-2684714D01*
X2910000Y-2684714D01*
X2881428Y-2670429D01*
X2867143Y-2656143D01*
X2852857Y-2627572D01*
X2838571Y-2570429D01*
X2838571Y-2499000D01*
X2852857Y-2441857D01*
X2867143Y-2413286D01*
X2881428Y-2399000D01*
X2910000Y-2384714D01*
X3138571Y-2656143D02*
X3152857Y-2670429D01*
X3138571Y-2684714D01*
X3124286Y-2670429D01*
X3138571Y-2656143D01*
X3138571Y-2684714D01*
X3338571Y-2384714D02*
X3367143Y-2384714D01*
X3395714Y-2399000D01*
X3410000Y-2413286D01*
X3424286Y-2441857D01*
X3438571Y-2499000D01*
X3438571Y-2570429D01*
X3424286Y-2627572D01*
X3410000Y-2656143D01*
X3395714Y-2670429D01*
X3367143Y-2684714D01*
X3338571Y-2684714D01*
X3310000Y-2670429D01*
X3295714Y-2656143D01*
X3281428Y-2627572D01*
X3267143Y-2570429D01*
X3267143Y-2499000D01*
X3281428Y-2441857D01*
X3295714Y-2413286D01*
X3310000Y-2399000D01*
X3338571Y-2384714D01*
X3538571Y-2384714D02*
X3724286Y-2384714D01*
X3624286Y-2499000D01*
X3667143Y-2499000D01*
X3695714Y-2513286D01*
X3710000Y-2527572D01*
X3724286Y-2556143D01*
X3724286Y-2627572D01*
X3710000Y-2656143D01*
X3695714Y-2670429D01*
X3667143Y-2684714D01*
X3581428Y-2684714D01*
X3552857Y-2670429D01*
X3538571Y-2656143D01*
X3867143Y-2684714D02*
X3924286Y-2684714D01*
X3952857Y-2670429D01*
X3967143Y-2656143D01*
X3995714Y-2613286D01*
X4010000Y-2556143D01*
X4010000Y-2441857D01*
X3995714Y-2413286D01*
X3981428Y-2399000D01*
X3952857Y-2384714D01*
X3895714Y-2384714D01*
X3867143Y-2399000D01*
X3852857Y-2413286D01*
X3838571Y-2441857D01*
X3838571Y-2513286D01*
X3852857Y-2541857D01*
X3867143Y-2556143D01*
X3895714Y-2570429D01*
X3952857Y-2570429D01*
X3981428Y-2556143D01*
X3995714Y-2541857D01*
X4010000Y-2513286D01*
X4124286Y-2384714D02*
X4124286Y-2441857D01*
X4238571Y-2384714D02*
X4238571Y-2441857D01*
X4681428Y-2799000D02*
X4667143Y-2784714D01*
X4638571Y-2741857D01*
X4624286Y-2713286D01*
X4610000Y-2670429D01*
X4595714Y-2599000D01*
X4595714Y-2541857D01*
X4610000Y-2470429D01*
X4624286Y-2427572D01*
X4638571Y-2399000D01*
X4667143Y-2356143D01*
X4681428Y-2341857D01*
X4952857Y-2684714D02*
X4781428Y-2684714D01*
X4867143Y-2684714D02*
X4867143Y-2384714D01*
X4838571Y-2427572D01*
X4810000Y-2456143D01*
X4781428Y-2470429D01*
X5138571Y-2384714D02*
X5167143Y-2384714D01*
X5195714Y-2399000D01*
X5210000Y-2413286D01*
X5224286Y-2441857D01*
X5238571Y-2499000D01*
X5238571Y-2570429D01*
X5224286Y-2627572D01*
X5210000Y-2656143D01*
X5195714Y-2670429D01*
X5167143Y-2684714D01*
X5138571Y-2684714D01*
X5110000Y-2670429D01*
X5095714Y-2656143D01*
X5081428Y-2627572D01*
X5067143Y-2570429D01*
X5067143Y-2499000D01*
X5081428Y-2441857D01*
X5095714Y-2413286D01*
X5110000Y-2399000D01*
X5138571Y-2384714D01*
X5524286Y-2684714D02*
X5352857Y-2684714D01*
X5438571Y-2684714D02*
X5438571Y-2384714D01*
X5410000Y-2427572D01*
X5381428Y-2456143D01*
X5352857Y-2470429D01*
X5881428Y-2684714D02*
X5881428Y-2384714D01*
X6010000Y-2684714D02*
X6010000Y-2527572D01*
X5995714Y-2499000D01*
X5967143Y-2484714D01*
X5924286Y-2484714D01*
X5895714Y-2499000D01*
X5881428Y-2513286D01*
X6195714Y-2684714D02*
X6167143Y-2670429D01*
X6152857Y-2656143D01*
X6138571Y-2627572D01*
X6138571Y-2541857D01*
X6152857Y-2513286D01*
X6167143Y-2499000D01*
X6195714Y-2484714D01*
X6238571Y-2484714D01*
X6267143Y-2499000D01*
X6281428Y-2513286D01*
X6295714Y-2541857D01*
X6295714Y-2627572D01*
X6281428Y-2656143D01*
X6267143Y-2670429D01*
X6238571Y-2684714D01*
X6195714Y-2684714D01*
X6467143Y-2684714D02*
X6438571Y-2670429D01*
X6424286Y-2641857D01*
X6424286Y-2384714D01*
X6695714Y-2670429D02*
X6667143Y-2684714D01*
X6610000Y-2684714D01*
X6581428Y-2670429D01*
X6567143Y-2641857D01*
X6567143Y-2527572D01*
X6581428Y-2499000D01*
X6610000Y-2484714D01*
X6667143Y-2484714D01*
X6695714Y-2499000D01*
X6710000Y-2527572D01*
X6710000Y-2556143D01*
X6567143Y-2584714D01*
X6824286Y-2670429D02*
X6852857Y-2684714D01*
X6910000Y-2684714D01*
X6938571Y-2670429D01*
X6952857Y-2641857D01*
X6952857Y-2627572D01*
X6938571Y-2599000D01*
X6910000Y-2584714D01*
X6867143Y-2584714D01*
X6838571Y-2570429D01*
X6824286Y-2541857D01*
X6824286Y-2527572D01*
X6838571Y-2499000D01*
X6867143Y-2484714D01*
X6910000Y-2484714D01*
X6938571Y-2499000D01*
X7052857Y-2799000D02*
X7067143Y-2784714D01*
X7095714Y-2741857D01*
X7110000Y-2713286D01*
X7124286Y-2670429D01*
X7138571Y-2599000D01*
X7138571Y-2541857D01*
X7124286Y-2470429D01*
X7110000Y-2427572D01*
X7095714Y-2399000D01*
X7067143Y-2356143D01*
X7052857Y-2341857D01*
X-115000Y-2890000D02*
X-5000Y-3000000D01*
X-5000Y-2890000D02*
X-115000Y-3000000D01*
X-5000Y-2945000D02*
G75*
G03X-5000Y-2945000I-55000J0D01*
G01*
X438571Y-3080714D02*
X267143Y-3080714D01*
X352857Y-3080714D02*
X352857Y-2780714D01*
X324286Y-2823571D01*
X295714Y-2852143D01*
X267143Y-2866429D01*
X567143Y-3052143D02*
X581428Y-3066429D01*
X567143Y-3080714D01*
X552857Y-3066429D01*
X567143Y-3052143D01*
X567143Y-3080714D01*
X867143Y-3080714D02*
X695714Y-3080714D01*
X781428Y-3080714D02*
X781428Y-2780714D01*
X752857Y-2823571D01*
X724286Y-2852143D01*
X695714Y-2866429D01*
X1052857Y-2780714D02*
X1081428Y-2780714D01*
X1110000Y-2795000D01*
X1124286Y-2809286D01*
X1138571Y-2837857D01*
X1152857Y-2895000D01*
X1152857Y-2966429D01*
X1138571Y-3023571D01*
X1124286Y-3052143D01*
X1110000Y-3066429D01*
X1081428Y-3080714D01*
X1052857Y-3080714D01*
X1024286Y-3066429D01*
X1010000Y-3052143D01*
X995714Y-3023571D01*
X981428Y-2966429D01*
X981428Y-2895000D01*
X995714Y-2837857D01*
X1010000Y-2809286D01*
X1024286Y-2795000D01*
X1052857Y-2780714D01*
X1281428Y-3080714D02*
X1281428Y-2880714D01*
X1281428Y-2909286D02*
X1295714Y-2895000D01*
X1324286Y-2880714D01*
X1367143Y-2880714D01*
X1395714Y-2895000D01*
X1410000Y-2923571D01*
X1410000Y-3080714D01*
X1410000Y-2923571D02*
X1424286Y-2895000D01*
X1452857Y-2880714D01*
X1495714Y-2880714D01*
X1524286Y-2895000D01*
X1538571Y-2923571D01*
X1538571Y-3080714D01*
X1681428Y-3080714D02*
X1681428Y-2880714D01*
X1681428Y-2909286D02*
X1695714Y-2895000D01*
X1724286Y-2880714D01*
X1767143Y-2880714D01*
X1795714Y-2895000D01*
X1810000Y-2923571D01*
X1810000Y-3080714D01*
X1810000Y-2923571D02*
X1824286Y-2895000D01*
X1852857Y-2880714D01*
X1895714Y-2880714D01*
X1924286Y-2895000D01*
X1938571Y-2923571D01*
X1938571Y-3080714D01*
X2524286Y-2766429D02*
X2267143Y-3152143D01*
X2910000Y-2780714D02*
X2938571Y-2780714D01*
X2967143Y-2795000D01*
X2981428Y-2809286D01*
X2995714Y-2837857D01*
X3010000Y-2895000D01*
X3010000Y-2966429D01*
X2995714Y-3023571D01*
X2981428Y-3052143D01*
X2967143Y-3066429D01*
X2938571Y-3080714D01*
X2910000Y-3080714D01*
X2881428Y-3066429D01*
X2867143Y-3052143D01*
X2852857Y-3023571D01*
X2838571Y-2966429D01*
X2838571Y-2895000D01*
X2852857Y-2837857D01*
X2867143Y-2809286D01*
X2881428Y-2795000D01*
X2910000Y-2780714D01*
X3138571Y-3052143D02*
X3152857Y-3066429D01*
X3138571Y-3080714D01*
X3124286Y-3066429D01*
X3138571Y-3052143D01*
X3138571Y-3080714D01*
X3338571Y-2780714D02*
X3367143Y-2780714D01*
X3395714Y-2795000D01*
X3410000Y-2809286D01*
X3424286Y-2837857D01*
X3438571Y-2895000D01*
X3438571Y-2966429D01*
X3424286Y-3023571D01*
X3410000Y-3052143D01*
X3395714Y-3066429D01*
X3367143Y-3080714D01*
X3338571Y-3080714D01*
X3310000Y-3066429D01*
X3295714Y-3052143D01*
X3281428Y-3023571D01*
X3267143Y-2966429D01*
X3267143Y-2895000D01*
X3281428Y-2837857D01*
X3295714Y-2809286D01*
X3310000Y-2795000D01*
X3338571Y-2780714D01*
X3695714Y-2880714D02*
X3695714Y-3080714D01*
X3624286Y-2766429D02*
X3552857Y-2980714D01*
X3738571Y-2980714D01*
X3824286Y-2780714D02*
X4010000Y-2780714D01*
X3910000Y-2895000D01*
X3952857Y-2895000D01*
X3981428Y-2909286D01*
X3995714Y-2923571D01*
X4010000Y-2952143D01*
X4010000Y-3023571D01*
X3995714Y-3052143D01*
X3981428Y-3066429D01*
X3952857Y-3080714D01*
X3867143Y-3080714D01*
X3838571Y-3066429D01*
X3824286Y-3052143D01*
X4124286Y-2780714D02*
X4124286Y-2837857D01*
X4238571Y-2780714D02*
X4238571Y-2837857D01*
X4681428Y-3195000D02*
X4667143Y-3180714D01*
X4638571Y-3137857D01*
X4624286Y-3109286D01*
X4610000Y-3066429D01*
X4595714Y-2995000D01*
X4595714Y-2937857D01*
X4610000Y-2866429D01*
X4624286Y-2823571D01*
X4638571Y-2795000D01*
X4667143Y-2752143D01*
X4681428Y-2737857D01*
X4781428Y-2809286D02*
X4795714Y-2795000D01*
X4824286Y-2780714D01*
X4895714Y-2780714D01*
X4924286Y-2795000D01*
X4938571Y-2809286D01*
X4952857Y-2837857D01*
X4952857Y-2866429D01*
X4938571Y-2909286D01*
X4767143Y-3080714D01*
X4952857Y-3080714D01*
X5238571Y-3080714D02*
X5067143Y-3080714D01*
X5152857Y-3080714D02*
X5152857Y-2780714D01*
X5124286Y-2823571D01*
X5095714Y-2852143D01*
X5067143Y-2866429D01*
X5595714Y-3080714D02*
X5595714Y-2780714D01*
X5724286Y-3080714D02*
X5724286Y-2923571D01*
X5710000Y-2895000D01*
X5681428Y-2880714D01*
X5638571Y-2880714D01*
X5610000Y-2895000D01*
X5595714Y-2909286D01*
X5910000Y-3080714D02*
X5881428Y-3066429D01*
X5867143Y-3052143D01*
X5852857Y-3023571D01*
X5852857Y-2937857D01*
X5867143Y-2909286D01*
X5881428Y-2895000D01*
X5910000Y-2880714D01*
X5952857Y-2880714D01*
X5981428Y-2895000D01*
X5995714Y-2909286D01*
X6010000Y-2937857D01*
X6010000Y-3023571D01*
X5995714Y-3052143D01*
X5981428Y-3066429D01*
X5952857Y-3080714D01*
X5910000Y-3080714D01*
X6181428Y-3080714D02*
X6152857Y-3066429D01*
X6138571Y-3037857D01*
X6138571Y-2780714D01*
X6410000Y-3066429D02*
X6381428Y-3080714D01*
X6324286Y-3080714D01*
X6295714Y-3066429D01*
X6281428Y-3037857D01*
X6281428Y-2923571D01*
X6295714Y-2895000D01*
X6324286Y-2880714D01*
X6381428Y-2880714D01*
X6410000Y-2895000D01*
X6424286Y-2923571D01*
X6424286Y-2952143D01*
X6281428Y-2980714D01*
X6538571Y-3066429D02*
X6567143Y-3080714D01*
X6624286Y-3080714D01*
X6652857Y-3066429D01*
X6667143Y-3037857D01*
X6667143Y-3023571D01*
X6652857Y-2995000D01*
X6624286Y-2980714D01*
X6581428Y-2980714D01*
X6552857Y-2966429D01*
X6538571Y-2937857D01*
X6538571Y-2923571D01*
X6552857Y-2895000D01*
X6581428Y-2880714D01*
X6624286Y-2880714D01*
X6652857Y-2895000D01*
X6767143Y-3195000D02*
X6781428Y-3180714D01*
X6810000Y-3137857D01*
X6824286Y-3109286D01*
X6838571Y-3066429D01*
X6852857Y-2995000D01*
X6852857Y-2937857D01*
X6838571Y-2866429D01*
X6824286Y-2823571D01*
X6810000Y-2795000D01*
X6781428Y-2752143D01*
X6767143Y-2737857D01*
X-145000Y-3271000D02*
X-5000Y-3411000D01*
X-5000Y-3271000D02*
X-145000Y-3411000D01*
X-75000Y-3271000D02*
X-75000Y-3411000D01*
X-145000Y-3341000D02*
X-5000Y-3341000D01*
X438571Y-3476714D02*
X267143Y-3476714D01*
X352857Y-3476714D02*
X352857Y-3176714D01*
X324286Y-3219571D01*
X295714Y-3248143D01*
X267143Y-3262429D01*
X567143Y-3448143D02*
X581428Y-3462429D01*
X567143Y-3476714D01*
X552857Y-3462429D01*
X567143Y-3448143D01*
X567143Y-3476714D01*
X838571Y-3276714D02*
X838571Y-3476714D01*
X767143Y-3162429D02*
X695714Y-3376714D01*
X881428Y-3376714D01*
X1052857Y-3176714D02*
X1081428Y-3176714D01*
X1110000Y-3191000D01*
X1124286Y-3205286D01*
X1138571Y-3233857D01*
X1152857Y-3291000D01*
X1152857Y-3362429D01*
X1138571Y-3419571D01*
X1124286Y-3448143D01*
X1110000Y-3462429D01*
X1081428Y-3476714D01*
X1052857Y-3476714D01*
X1024286Y-3462429D01*
X1010000Y-3448143D01*
X995714Y-3419571D01*
X981428Y-3362429D01*
X981428Y-3291000D01*
X995714Y-3233857D01*
X1010000Y-3205286D01*
X1024286Y-3191000D01*
X1052857Y-3176714D01*
X1281428Y-3476714D02*
X1281428Y-3276714D01*
X1281428Y-3305286D02*
X1295714Y-3291000D01*
X1324286Y-3276714D01*
X1367143Y-3276714D01*
X1395714Y-3291000D01*
X1410000Y-3319571D01*
X1410000Y-3476714D01*
X1410000Y-3319571D02*
X1424286Y-3291000D01*
X1452857Y-3276714D01*
X1495714Y-3276714D01*
X1524286Y-3291000D01*
X1538571Y-3319571D01*
X1538571Y-3476714D01*
X1681428Y-3476714D02*
X1681428Y-3276714D01*
X1681428Y-3305286D02*
X1695714Y-3291000D01*
X1724286Y-3276714D01*
X1767143Y-3276714D01*
X1795714Y-3291000D01*
X1810000Y-3319571D01*
X1810000Y-3476714D01*
X1810000Y-3319571D02*
X1824286Y-3291000D01*
X1852857Y-3276714D01*
X1895714Y-3276714D01*
X1924286Y-3291000D01*
X1938571Y-3319571D01*
X1938571Y-3476714D01*
X2524286Y-3162429D02*
X2267143Y-3548143D01*
X2910000Y-3176714D02*
X2938571Y-3176714D01*
X2967143Y-3191000D01*
X2981428Y-3205286D01*
X2995714Y-3233857D01*
X3010000Y-3291000D01*
X3010000Y-3362429D01*
X2995714Y-3419571D01*
X2981428Y-3448143D01*
X2967143Y-3462429D01*
X2938571Y-3476714D01*
X2910000Y-3476714D01*
X2881428Y-3462429D01*
X2867143Y-3448143D01*
X2852857Y-3419571D01*
X2838571Y-3362429D01*
X2838571Y-3291000D01*
X2852857Y-3233857D01*
X2867143Y-3205286D01*
X2881428Y-3191000D01*
X2910000Y-3176714D01*
X3138571Y-3448143D02*
X3152857Y-3462429D01*
X3138571Y-3476714D01*
X3124286Y-3462429D01*
X3138571Y-3448143D01*
X3138571Y-3476714D01*
X3338571Y-3176714D02*
X3367143Y-3176714D01*
X3395714Y-3191000D01*
X3410000Y-3205286D01*
X3424286Y-3233857D01*
X3438571Y-3291000D01*
X3438571Y-3362429D01*
X3424286Y-3419571D01*
X3410000Y-3448143D01*
X3395714Y-3462429D01*
X3367143Y-3476714D01*
X3338571Y-3476714D01*
X3310000Y-3462429D01*
X3295714Y-3448143D01*
X3281428Y-3419571D01*
X3267143Y-3362429D01*
X3267143Y-3291000D01*
X3281428Y-3233857D01*
X3295714Y-3205286D01*
X3310000Y-3191000D01*
X3338571Y-3176714D01*
X3710000Y-3176714D02*
X3567143Y-3176714D01*
X3552857Y-3319571D01*
X3567143Y-3305286D01*
X3595714Y-3291000D01*
X3667143Y-3291000D01*
X3695714Y-3305286D01*
X3710000Y-3319571D01*
X3724286Y-3348143D01*
X3724286Y-3419571D01*
X3710000Y-3448143D01*
X3695714Y-3462429D01*
X3667143Y-3476714D01*
X3595714Y-3476714D01*
X3567143Y-3462429D01*
X3552857Y-3448143D01*
X3995714Y-3176714D02*
X3852857Y-3176714D01*
X3838571Y-3319571D01*
X3852857Y-3305286D01*
X3881428Y-3291000D01*
X3952857Y-3291000D01*
X3981428Y-3305286D01*
X3995714Y-3319571D01*
X4010000Y-3348143D01*
X4010000Y-3419571D01*
X3995714Y-3448143D01*
X3981428Y-3462429D01*
X3952857Y-3476714D01*
X3881428Y-3476714D01*
X3852857Y-3462429D01*
X3838571Y-3448143D01*
X4124286Y-3176714D02*
X4124286Y-3233857D01*
X4238571Y-3176714D02*
X4238571Y-3233857D01*
X4681428Y-3591000D02*
X4667143Y-3576714D01*
X4638571Y-3533857D01*
X4624286Y-3505286D01*
X4610000Y-3462429D01*
X4595714Y-3391000D01*
X4595714Y-3333857D01*
X4610000Y-3262429D01*
X4624286Y-3219571D01*
X4638571Y-3191000D01*
X4667143Y-3148143D01*
X4681428Y-3133857D01*
X4924286Y-3176714D02*
X4867143Y-3176714D01*
X4838571Y-3191000D01*
X4824286Y-3205286D01*
X4795714Y-3248143D01*
X4781428Y-3305286D01*
X4781428Y-3419571D01*
X4795714Y-3448143D01*
X4810000Y-3462429D01*
X4838571Y-3476714D01*
X4895714Y-3476714D01*
X4924286Y-3462429D01*
X4938571Y-3448143D01*
X4952857Y-3419571D01*
X4952857Y-3348143D01*
X4938571Y-3319571D01*
X4924286Y-3305286D01*
X4895714Y-3291000D01*
X4838571Y-3291000D01*
X4810000Y-3305286D01*
X4795714Y-3319571D01*
X4781428Y-3348143D01*
X5310000Y-3476714D02*
X5310000Y-3176714D01*
X5438571Y-3476714D02*
X5438571Y-3319571D01*
X5424286Y-3291000D01*
X5395714Y-3276714D01*
X5352857Y-3276714D01*
X5324286Y-3291000D01*
X5310000Y-3305286D01*
X5624286Y-3476714D02*
X5595714Y-3462429D01*
X5581428Y-3448143D01*
X5567143Y-3419571D01*
X5567143Y-3333857D01*
X5581428Y-3305286D01*
X5595714Y-3291000D01*
X5624286Y-3276714D01*
X5667143Y-3276714D01*
X5695714Y-3291000D01*
X5710000Y-3305286D01*
X5724286Y-3333857D01*
X5724286Y-3419571D01*
X5710000Y-3448143D01*
X5695714Y-3462429D01*
X5667143Y-3476714D01*
X5624286Y-3476714D01*
X5895714Y-3476714D02*
X5867143Y-3462429D01*
X5852857Y-3433857D01*
X5852857Y-3176714D01*
X6124286Y-3462429D02*
X6095714Y-3476714D01*
X6038571Y-3476714D01*
X6010000Y-3462429D01*
X5995714Y-3433857D01*
X5995714Y-3319571D01*
X6010000Y-3291000D01*
X6038571Y-3276714D01*
X6095714Y-3276714D01*
X6124286Y-3291000D01*
X6138571Y-3319571D01*
X6138571Y-3348143D01*
X5995714Y-3376714D01*
X6252857Y-3462429D02*
X6281428Y-3476714D01*
X6338571Y-3476714D01*
X6367143Y-3462429D01*
X6381428Y-3433857D01*
X6381428Y-3419571D01*
X6367143Y-3391000D01*
X6338571Y-3376714D01*
X6295714Y-3376714D01*
X6267143Y-3362429D01*
X6252857Y-3333857D01*
X6252857Y-3319571D01*
X6267143Y-3291000D01*
X6295714Y-3276714D01*
X6338571Y-3276714D01*
X6367143Y-3291000D01*
X6481428Y-3591000D02*
X6495714Y-3576714D01*
X6524286Y-3533857D01*
X6538571Y-3505286D01*
X6552857Y-3462429D01*
X6567143Y-3391000D01*
X6567143Y-3333857D01*
X6552857Y-3262429D01*
X6538571Y-3219571D01*
X6524286Y-3191000D01*
X6495714Y-3148143D01*
X6481428Y-3133857D01*
M02*
