%FSLAX45Y45*%
G04 Gerber Fmt 4.5, Leading zero omitted, Abs format (unit mm)*
G04 Created by KiCad (PCBNEW (5.0.0-rc2-dev)) date Thu Jun 18 08:05:52 2020*
%MOMM*%
%LPD*%
G01*
G04 APERTURE LIST*
%ADD10C,0.100000*%
%ADD11C,0.200000*%
%ADD12C,0.300000*%
G04 APERTURE END LIST*
D10*
X5900000Y10600000D02*
X5900000Y0D01*
X0Y0D02*
X0Y10600000D01*
X5900000Y0D02*
X0Y0D01*
X0Y10600000D02*
X5900000Y10600000D01*
D11*
X3930000Y5920000D02*
X4270000Y5580000D01*
X4270000Y5920000D02*
X3930000Y5580000D01*
X4610000Y6700000D02*
G75*
G03X4610000Y6700000I-510000J0D01*
G01*
D12*
X281428Y-470714D02*
X281428Y-170714D01*
X352857Y-170714D01*
X395714Y-185000D01*
X424286Y-213571D01*
X438571Y-242143D01*
X452857Y-299286D01*
X452857Y-342143D01*
X438571Y-399286D01*
X424286Y-427857D01*
X395714Y-456429D01*
X352857Y-470714D01*
X281428Y-470714D01*
X581428Y-470714D02*
X581428Y-270714D01*
X581428Y-327857D02*
X595714Y-299286D01*
X610000Y-285000D01*
X638571Y-270714D01*
X667143Y-270714D01*
X767143Y-470714D02*
X767143Y-270714D01*
X767143Y-170714D02*
X752857Y-185000D01*
X767143Y-199286D01*
X781428Y-185000D01*
X767143Y-170714D01*
X767143Y-199286D01*
X952857Y-470714D02*
X924286Y-456429D01*
X910000Y-427857D01*
X910000Y-170714D01*
X1110000Y-470714D02*
X1081428Y-456429D01*
X1067143Y-427857D01*
X1067143Y-170714D01*
X1452857Y-470714D02*
X1452857Y-170714D01*
X1552857Y-385000D01*
X1652857Y-170714D01*
X1652857Y-470714D01*
X1924286Y-470714D02*
X1924286Y-313572D01*
X1910000Y-285000D01*
X1881428Y-270714D01*
X1824286Y-270714D01*
X1795714Y-285000D01*
X1924286Y-456429D02*
X1895714Y-470714D01*
X1824286Y-470714D01*
X1795714Y-456429D01*
X1781428Y-427857D01*
X1781428Y-399286D01*
X1795714Y-370714D01*
X1824286Y-356429D01*
X1895714Y-356429D01*
X1924286Y-342143D01*
X2067143Y-270714D02*
X2067143Y-570714D01*
X2067143Y-285000D02*
X2095714Y-270714D01*
X2152857Y-270714D01*
X2181428Y-285000D01*
X2195714Y-299286D01*
X2210000Y-327857D01*
X2210000Y-413571D01*
X2195714Y-442143D01*
X2181428Y-456429D01*
X2152857Y-470714D01*
X2095714Y-470714D01*
X2067143Y-456429D01*
X2338571Y-442143D02*
X2352857Y-456429D01*
X2338571Y-470714D01*
X2324286Y-456429D01*
X2338571Y-442143D01*
X2338571Y-470714D01*
X2338571Y-285000D02*
X2352857Y-299286D01*
X2338571Y-313572D01*
X2324286Y-299286D01*
X2338571Y-285000D01*
X2338571Y-313572D01*
X-345000Y-795000D02*
X-5000Y-1135000D01*
X-5000Y-795000D02*
X-345000Y-1135000D01*
X252857Y-800714D02*
X438571Y-800714D01*
X338571Y-915000D01*
X381428Y-915000D01*
X410000Y-929286D01*
X424286Y-943571D01*
X438571Y-972143D01*
X438571Y-1043571D01*
X424286Y-1072143D01*
X410000Y-1086429D01*
X381428Y-1100714D01*
X295714Y-1100714D01*
X267143Y-1086429D01*
X252857Y-1072143D01*
X567143Y-1072143D02*
X581428Y-1086429D01*
X567143Y-1100714D01*
X552857Y-1086429D01*
X567143Y-1072143D01*
X567143Y-1100714D01*
X838571Y-900714D02*
X838571Y-1100714D01*
X767143Y-786429D02*
X695714Y-1000714D01*
X881428Y-1000714D01*
X1052857Y-800714D02*
X1081428Y-800714D01*
X1110000Y-815000D01*
X1124286Y-829286D01*
X1138571Y-857857D01*
X1152857Y-915000D01*
X1152857Y-986429D01*
X1138571Y-1043571D01*
X1124286Y-1072143D01*
X1110000Y-1086429D01*
X1081428Y-1100714D01*
X1052857Y-1100714D01*
X1024286Y-1086429D01*
X1010000Y-1072143D01*
X995714Y-1043571D01*
X981428Y-986429D01*
X981428Y-915000D01*
X995714Y-857857D01*
X1010000Y-829286D01*
X1024286Y-815000D01*
X1052857Y-800714D01*
X1281428Y-1100714D02*
X1281428Y-900714D01*
X1281428Y-929286D02*
X1295714Y-915000D01*
X1324286Y-900714D01*
X1367143Y-900714D01*
X1395714Y-915000D01*
X1410000Y-943571D01*
X1410000Y-1100714D01*
X1410000Y-943571D02*
X1424286Y-915000D01*
X1452857Y-900714D01*
X1495714Y-900714D01*
X1524286Y-915000D01*
X1538571Y-943571D01*
X1538571Y-1100714D01*
X1681428Y-1100714D02*
X1681428Y-900714D01*
X1681428Y-929286D02*
X1695714Y-915000D01*
X1724286Y-900714D01*
X1767143Y-900714D01*
X1795714Y-915000D01*
X1810000Y-943571D01*
X1810000Y-1100714D01*
X1810000Y-943571D02*
X1824286Y-915000D01*
X1852857Y-900714D01*
X1895714Y-900714D01*
X1924286Y-915000D01*
X1938571Y-943571D01*
X1938571Y-1100714D01*
X2524286Y-786429D02*
X2267143Y-1172143D01*
X2910000Y-800714D02*
X2938571Y-800714D01*
X2967143Y-815000D01*
X2981428Y-829286D01*
X2995714Y-857857D01*
X3010000Y-915000D01*
X3010000Y-986429D01*
X2995714Y-1043571D01*
X2981428Y-1072143D01*
X2967143Y-1086429D01*
X2938571Y-1100714D01*
X2910000Y-1100714D01*
X2881428Y-1086429D01*
X2867143Y-1072143D01*
X2852857Y-1043571D01*
X2838571Y-986429D01*
X2838571Y-915000D01*
X2852857Y-857857D01*
X2867143Y-829286D01*
X2881428Y-815000D01*
X2910000Y-800714D01*
X3138571Y-1072143D02*
X3152857Y-1086429D01*
X3138571Y-1100714D01*
X3124286Y-1086429D01*
X3138571Y-1072143D01*
X3138571Y-1100714D01*
X3438571Y-1100714D02*
X3267143Y-1100714D01*
X3352857Y-1100714D02*
X3352857Y-800714D01*
X3324286Y-843571D01*
X3295714Y-872143D01*
X3267143Y-886429D01*
X3538571Y-800714D02*
X3724286Y-800714D01*
X3624286Y-915000D01*
X3667143Y-915000D01*
X3695714Y-929286D01*
X3710000Y-943571D01*
X3724286Y-972143D01*
X3724286Y-1043571D01*
X3710000Y-1072143D01*
X3695714Y-1086429D01*
X3667143Y-1100714D01*
X3581428Y-1100714D01*
X3552857Y-1086429D01*
X3538571Y-1072143D01*
X3981428Y-900714D02*
X3981428Y-1100714D01*
X3910000Y-786429D02*
X3838571Y-1000714D01*
X4024286Y-1000714D01*
X4124286Y-800714D02*
X4124286Y-857857D01*
X4238571Y-800714D02*
X4238571Y-857857D01*
X4681428Y-1215000D02*
X4667143Y-1200714D01*
X4638571Y-1157857D01*
X4624286Y-1129286D01*
X4610000Y-1086429D01*
X4595714Y-1015000D01*
X4595714Y-957857D01*
X4610000Y-886429D01*
X4624286Y-843571D01*
X4638571Y-815000D01*
X4667143Y-772143D01*
X4681428Y-757857D01*
X4952857Y-1100714D02*
X4781428Y-1100714D01*
X4867143Y-1100714D02*
X4867143Y-800714D01*
X4838571Y-843571D01*
X4810000Y-872143D01*
X4781428Y-886429D01*
X5310000Y-1100714D02*
X5310000Y-800714D01*
X5438571Y-1100714D02*
X5438571Y-943571D01*
X5424286Y-915000D01*
X5395714Y-900714D01*
X5352857Y-900714D01*
X5324286Y-915000D01*
X5310000Y-929286D01*
X5624286Y-1100714D02*
X5595714Y-1086429D01*
X5581428Y-1072143D01*
X5567143Y-1043571D01*
X5567143Y-957857D01*
X5581428Y-929286D01*
X5595714Y-915000D01*
X5624286Y-900714D01*
X5667143Y-900714D01*
X5695714Y-915000D01*
X5710000Y-929286D01*
X5724286Y-957857D01*
X5724286Y-1043571D01*
X5710000Y-1072143D01*
X5695714Y-1086429D01*
X5667143Y-1100714D01*
X5624286Y-1100714D01*
X5895714Y-1100714D02*
X5867143Y-1086429D01*
X5852857Y-1057857D01*
X5852857Y-800714D01*
X6124286Y-1086429D02*
X6095714Y-1100714D01*
X6038571Y-1100714D01*
X6010000Y-1086429D01*
X5995714Y-1057857D01*
X5995714Y-943571D01*
X6010000Y-915000D01*
X6038571Y-900714D01*
X6095714Y-900714D01*
X6124286Y-915000D01*
X6138571Y-943571D01*
X6138571Y-972143D01*
X5995714Y-1000714D01*
X6238571Y-1215000D02*
X6252857Y-1200714D01*
X6281428Y-1157857D01*
X6295714Y-1129286D01*
X6310000Y-1086429D01*
X6324286Y-1015000D01*
X6324286Y-957857D01*
X6310000Y-886429D01*
X6295714Y-843571D01*
X6281428Y-815000D01*
X6252857Y-772143D01*
X6238571Y-757857D01*
X6781428Y-1215000D02*
X6767143Y-1200714D01*
X6738571Y-1157857D01*
X6724286Y-1129286D01*
X6710000Y-1086429D01*
X6695714Y-1015000D01*
X6695714Y-957857D01*
X6710000Y-886429D01*
X6724286Y-843571D01*
X6738571Y-815000D01*
X6767143Y-772143D01*
X6781428Y-757857D01*
X6895714Y-900714D02*
X6895714Y-1100714D01*
X6895714Y-929286D02*
X6910000Y-915000D01*
X6938571Y-900714D01*
X6981428Y-900714D01*
X7010000Y-915000D01*
X7024286Y-943571D01*
X7024286Y-1100714D01*
X7210000Y-1100714D02*
X7181428Y-1086429D01*
X7167143Y-1072143D01*
X7152857Y-1043571D01*
X7152857Y-957857D01*
X7167143Y-929286D01*
X7181428Y-915000D01*
X7210000Y-900714D01*
X7252857Y-900714D01*
X7281428Y-915000D01*
X7295714Y-929286D01*
X7310000Y-957857D01*
X7310000Y-1043571D01*
X7295714Y-1072143D01*
X7281428Y-1086429D01*
X7252857Y-1100714D01*
X7210000Y-1100714D01*
X7395714Y-900714D02*
X7510000Y-900714D01*
X7438571Y-800714D02*
X7438571Y-1057857D01*
X7452857Y-1086429D01*
X7481428Y-1100714D01*
X7510000Y-1100714D01*
X7838571Y-900714D02*
X7838571Y-1200714D01*
X7838571Y-915000D02*
X7867143Y-900714D01*
X7924286Y-900714D01*
X7952857Y-915000D01*
X7967143Y-929286D01*
X7981428Y-957857D01*
X7981428Y-1043571D01*
X7967143Y-1072143D01*
X7952857Y-1086429D01*
X7924286Y-1100714D01*
X7867143Y-1100714D01*
X7838571Y-1086429D01*
X8152857Y-1100714D02*
X8124286Y-1086429D01*
X8110000Y-1057857D01*
X8110000Y-800714D01*
X8395714Y-1100714D02*
X8395714Y-943571D01*
X8381428Y-915000D01*
X8352857Y-900714D01*
X8295714Y-900714D01*
X8267143Y-915000D01*
X8395714Y-1086429D02*
X8367143Y-1100714D01*
X8295714Y-1100714D01*
X8267143Y-1086429D01*
X8252857Y-1057857D01*
X8252857Y-1029286D01*
X8267143Y-1000714D01*
X8295714Y-986429D01*
X8367143Y-986429D01*
X8395714Y-972143D01*
X8495714Y-900714D02*
X8610000Y-900714D01*
X8538571Y-800714D02*
X8538571Y-1057857D01*
X8552857Y-1086429D01*
X8581428Y-1100714D01*
X8610000Y-1100714D01*
X8824286Y-1086429D02*
X8795714Y-1100714D01*
X8738571Y-1100714D01*
X8710000Y-1086429D01*
X8695714Y-1057857D01*
X8695714Y-943571D01*
X8710000Y-915000D01*
X8738571Y-900714D01*
X8795714Y-900714D01*
X8824286Y-915000D01*
X8838571Y-943571D01*
X8838571Y-972143D01*
X8695714Y-1000714D01*
X9095714Y-1100714D02*
X9095714Y-800714D01*
X9095714Y-1086429D02*
X9067143Y-1100714D01*
X9010000Y-1100714D01*
X8981428Y-1086429D01*
X8967143Y-1072143D01*
X8952857Y-1043571D01*
X8952857Y-957857D01*
X8967143Y-929286D01*
X8981428Y-915000D01*
X9010000Y-900714D01*
X9067143Y-900714D01*
X9095714Y-915000D01*
X9210000Y-1215000D02*
X9224286Y-1200714D01*
X9252857Y-1157857D01*
X9267143Y-1129286D01*
X9281428Y-1086429D01*
X9295714Y-1015000D01*
X9295714Y-957857D01*
X9281428Y-886429D01*
X9267143Y-843571D01*
X9252857Y-815000D01*
X9224286Y-772143D01*
X9210000Y-757857D01*
X-5000Y-1435000D02*
G75*
G03X-5000Y-1435000I-510000J0D01*
G01*
X438571Y-1570714D02*
X267143Y-1570714D01*
X352857Y-1570714D02*
X352857Y-1270714D01*
X324286Y-1313572D01*
X295714Y-1342143D01*
X267143Y-1356429D01*
X624286Y-1270714D02*
X652857Y-1270714D01*
X681428Y-1285000D01*
X695714Y-1299286D01*
X710000Y-1327857D01*
X724286Y-1385000D01*
X724286Y-1456429D01*
X710000Y-1513571D01*
X695714Y-1542143D01*
X681428Y-1556429D01*
X652857Y-1570714D01*
X624286Y-1570714D01*
X595714Y-1556429D01*
X581428Y-1542143D01*
X567143Y-1513571D01*
X552857Y-1456429D01*
X552857Y-1385000D01*
X567143Y-1327857D01*
X581428Y-1299286D01*
X595714Y-1285000D01*
X624286Y-1270714D01*
X852857Y-1542143D02*
X867143Y-1556429D01*
X852857Y-1570714D01*
X838571Y-1556429D01*
X852857Y-1542143D01*
X852857Y-1570714D01*
X981428Y-1299286D02*
X995714Y-1285000D01*
X1024286Y-1270714D01*
X1095714Y-1270714D01*
X1124286Y-1285000D01*
X1138571Y-1299286D01*
X1152857Y-1327857D01*
X1152857Y-1356429D01*
X1138571Y-1399286D01*
X967143Y-1570714D01*
X1152857Y-1570714D01*
X1338571Y-1270714D02*
X1367143Y-1270714D01*
X1395714Y-1285000D01*
X1410000Y-1299286D01*
X1424286Y-1327857D01*
X1438571Y-1385000D01*
X1438571Y-1456429D01*
X1424286Y-1513571D01*
X1410000Y-1542143D01*
X1395714Y-1556429D01*
X1367143Y-1570714D01*
X1338571Y-1570714D01*
X1310000Y-1556429D01*
X1295714Y-1542143D01*
X1281428Y-1513571D01*
X1267143Y-1456429D01*
X1267143Y-1385000D01*
X1281428Y-1327857D01*
X1295714Y-1299286D01*
X1310000Y-1285000D01*
X1338571Y-1270714D01*
X1567143Y-1570714D02*
X1567143Y-1370714D01*
X1567143Y-1399286D02*
X1581428Y-1385000D01*
X1610000Y-1370714D01*
X1652857Y-1370714D01*
X1681428Y-1385000D01*
X1695714Y-1413571D01*
X1695714Y-1570714D01*
X1695714Y-1413571D02*
X1710000Y-1385000D01*
X1738571Y-1370714D01*
X1781428Y-1370714D01*
X1810000Y-1385000D01*
X1824286Y-1413571D01*
X1824286Y-1570714D01*
X1967143Y-1570714D02*
X1967143Y-1370714D01*
X1967143Y-1399286D02*
X1981428Y-1385000D01*
X2010000Y-1370714D01*
X2052857Y-1370714D01*
X2081428Y-1385000D01*
X2095714Y-1413571D01*
X2095714Y-1570714D01*
X2095714Y-1413571D02*
X2110000Y-1385000D01*
X2138571Y-1370714D01*
X2181428Y-1370714D01*
X2210000Y-1385000D01*
X2224286Y-1413571D01*
X2224286Y-1570714D01*
X2810000Y-1256429D02*
X2552857Y-1642143D01*
X3195714Y-1270714D02*
X3224286Y-1270714D01*
X3252857Y-1285000D01*
X3267143Y-1299286D01*
X3281428Y-1327857D01*
X3295714Y-1385000D01*
X3295714Y-1456429D01*
X3281428Y-1513571D01*
X3267143Y-1542143D01*
X3252857Y-1556429D01*
X3224286Y-1570714D01*
X3195714Y-1570714D01*
X3167143Y-1556429D01*
X3152857Y-1542143D01*
X3138571Y-1513571D01*
X3124286Y-1456429D01*
X3124286Y-1385000D01*
X3138571Y-1327857D01*
X3152857Y-1299286D01*
X3167143Y-1285000D01*
X3195714Y-1270714D01*
X3424286Y-1542143D02*
X3438571Y-1556429D01*
X3424286Y-1570714D01*
X3410000Y-1556429D01*
X3424286Y-1542143D01*
X3424286Y-1570714D01*
X3695714Y-1370714D02*
X3695714Y-1570714D01*
X3624286Y-1256429D02*
X3552857Y-1470714D01*
X3738571Y-1470714D01*
X3910000Y-1270714D02*
X3938571Y-1270714D01*
X3967143Y-1285000D01*
X3981428Y-1299286D01*
X3995714Y-1327857D01*
X4010000Y-1385000D01*
X4010000Y-1456429D01*
X3995714Y-1513571D01*
X3981428Y-1542143D01*
X3967143Y-1556429D01*
X3938571Y-1570714D01*
X3910000Y-1570714D01*
X3881428Y-1556429D01*
X3867143Y-1542143D01*
X3852857Y-1513571D01*
X3838571Y-1456429D01*
X3838571Y-1385000D01*
X3852857Y-1327857D01*
X3867143Y-1299286D01*
X3881428Y-1285000D01*
X3910000Y-1270714D01*
X4124286Y-1299286D02*
X4138571Y-1285000D01*
X4167143Y-1270714D01*
X4238571Y-1270714D01*
X4267143Y-1285000D01*
X4281428Y-1299286D01*
X4295714Y-1327857D01*
X4295714Y-1356429D01*
X4281428Y-1399286D01*
X4110000Y-1570714D01*
X4295714Y-1570714D01*
X4410000Y-1270714D02*
X4410000Y-1327857D01*
X4524286Y-1270714D02*
X4524286Y-1327857D01*
X4967143Y-1685000D02*
X4952857Y-1670714D01*
X4924286Y-1627857D01*
X4910000Y-1599286D01*
X4895714Y-1556429D01*
X4881428Y-1485000D01*
X4881428Y-1427857D01*
X4895714Y-1356429D01*
X4910000Y-1313572D01*
X4924286Y-1285000D01*
X4952857Y-1242143D01*
X4967143Y-1227857D01*
X5238571Y-1570714D02*
X5067143Y-1570714D01*
X5152857Y-1570714D02*
X5152857Y-1270714D01*
X5124286Y-1313572D01*
X5095714Y-1342143D01*
X5067143Y-1356429D01*
X5595714Y-1570714D02*
X5595714Y-1270714D01*
X5724286Y-1570714D02*
X5724286Y-1413571D01*
X5710000Y-1385000D01*
X5681428Y-1370714D01*
X5638571Y-1370714D01*
X5610000Y-1385000D01*
X5595714Y-1399286D01*
X5910000Y-1570714D02*
X5881428Y-1556429D01*
X5867143Y-1542143D01*
X5852857Y-1513571D01*
X5852857Y-1427857D01*
X5867143Y-1399286D01*
X5881428Y-1385000D01*
X5910000Y-1370714D01*
X5952857Y-1370714D01*
X5981428Y-1385000D01*
X5995714Y-1399286D01*
X6010000Y-1427857D01*
X6010000Y-1513571D01*
X5995714Y-1542143D01*
X5981428Y-1556429D01*
X5952857Y-1570714D01*
X5910000Y-1570714D01*
X6181428Y-1570714D02*
X6152857Y-1556429D01*
X6138571Y-1527857D01*
X6138571Y-1270714D01*
X6410000Y-1556429D02*
X6381428Y-1570714D01*
X6324286Y-1570714D01*
X6295714Y-1556429D01*
X6281428Y-1527857D01*
X6281428Y-1413571D01*
X6295714Y-1385000D01*
X6324286Y-1370714D01*
X6381428Y-1370714D01*
X6410000Y-1385000D01*
X6424286Y-1413571D01*
X6424286Y-1442143D01*
X6281428Y-1470714D01*
X6524286Y-1685000D02*
X6538571Y-1670714D01*
X6567143Y-1627857D01*
X6581428Y-1599286D01*
X6595714Y-1556429D01*
X6610000Y-1485000D01*
X6610000Y-1427857D01*
X6595714Y-1356429D01*
X6581428Y-1313572D01*
X6567143Y-1285000D01*
X6538571Y-1242143D01*
X6524286Y-1227857D01*
X7067143Y-1685000D02*
X7052857Y-1670714D01*
X7024286Y-1627857D01*
X7010000Y-1599286D01*
X6995714Y-1556429D01*
X6981428Y-1485000D01*
X6981428Y-1427857D01*
X6995714Y-1356429D01*
X7010000Y-1313572D01*
X7024286Y-1285000D01*
X7052857Y-1242143D01*
X7067143Y-1227857D01*
X7181428Y-1370714D02*
X7181428Y-1570714D01*
X7181428Y-1399286D02*
X7195714Y-1385000D01*
X7224286Y-1370714D01*
X7267143Y-1370714D01*
X7295714Y-1385000D01*
X7310000Y-1413571D01*
X7310000Y-1570714D01*
X7495714Y-1570714D02*
X7467143Y-1556429D01*
X7452857Y-1542143D01*
X7438571Y-1513571D01*
X7438571Y-1427857D01*
X7452857Y-1399286D01*
X7467143Y-1385000D01*
X7495714Y-1370714D01*
X7538571Y-1370714D01*
X7567143Y-1385000D01*
X7581428Y-1399286D01*
X7595714Y-1427857D01*
X7595714Y-1513571D01*
X7581428Y-1542143D01*
X7567143Y-1556429D01*
X7538571Y-1570714D01*
X7495714Y-1570714D01*
X7681428Y-1370714D02*
X7795714Y-1370714D01*
X7724286Y-1270714D02*
X7724286Y-1527857D01*
X7738571Y-1556429D01*
X7767143Y-1570714D01*
X7795714Y-1570714D01*
X8124286Y-1370714D02*
X8124286Y-1670714D01*
X8124286Y-1385000D02*
X8152857Y-1370714D01*
X8210000Y-1370714D01*
X8238571Y-1385000D01*
X8252857Y-1399286D01*
X8267143Y-1427857D01*
X8267143Y-1513571D01*
X8252857Y-1542143D01*
X8238571Y-1556429D01*
X8210000Y-1570714D01*
X8152857Y-1570714D01*
X8124286Y-1556429D01*
X8438571Y-1570714D02*
X8410000Y-1556429D01*
X8395714Y-1527857D01*
X8395714Y-1270714D01*
X8681428Y-1570714D02*
X8681428Y-1413571D01*
X8667143Y-1385000D01*
X8638571Y-1370714D01*
X8581428Y-1370714D01*
X8552857Y-1385000D01*
X8681428Y-1556429D02*
X8652857Y-1570714D01*
X8581428Y-1570714D01*
X8552857Y-1556429D01*
X8538571Y-1527857D01*
X8538571Y-1499286D01*
X8552857Y-1470714D01*
X8581428Y-1456429D01*
X8652857Y-1456429D01*
X8681428Y-1442143D01*
X8781428Y-1370714D02*
X8895714Y-1370714D01*
X8824286Y-1270714D02*
X8824286Y-1527857D01*
X8838571Y-1556429D01*
X8867143Y-1570714D01*
X8895714Y-1570714D01*
X9110000Y-1556429D02*
X9081428Y-1570714D01*
X9024286Y-1570714D01*
X8995714Y-1556429D01*
X8981428Y-1527857D01*
X8981428Y-1413571D01*
X8995714Y-1385000D01*
X9024286Y-1370714D01*
X9081428Y-1370714D01*
X9110000Y-1385000D01*
X9124286Y-1413571D01*
X9124286Y-1442143D01*
X8981428Y-1470714D01*
X9381428Y-1570714D02*
X9381428Y-1270714D01*
X9381428Y-1556429D02*
X9352857Y-1570714D01*
X9295714Y-1570714D01*
X9267143Y-1556429D01*
X9252857Y-1542143D01*
X9238571Y-1513571D01*
X9238571Y-1427857D01*
X9252857Y-1399286D01*
X9267143Y-1385000D01*
X9295714Y-1370714D01*
X9352857Y-1370714D01*
X9381428Y-1385000D01*
X9495714Y-1685000D02*
X9510000Y-1670714D01*
X9538571Y-1627857D01*
X9552857Y-1599286D01*
X9567143Y-1556429D01*
X9581428Y-1485000D01*
X9581428Y-1427857D01*
X9567143Y-1356429D01*
X9552857Y-1313572D01*
X9538571Y-1285000D01*
X9510000Y-1242143D01*
X9495714Y-1227857D01*
M02*
